<svg id="Layer_1" data-name="Layer 1" xmlns="http://www.w3.org/2000/svg" viewBox="0 0 182 182">
  <title>logo</title>
  <g>
    <g>
      <path d="M123.57,40.59c-4.6-5.78-15-16.83-20.47-22.44l1.75-1.71c5.5,5.65,16,16.78,20.63,22.63Z" style="fill: #27295b"/>
      <path d="M118.05,43.3a193.88,193.88,0,0,0-17.93-20.9l1.74-1.72A196.18,196.18,0,0,1,120,41.84Z" style="fill: #27295b"/>
      <path d="M114.32,48A202.27,202.27,0,0,0,97.41,26.09l1.8-1.66a204.93,204.93,0,0,1,17.13,22.21Z" style="fill: #27295b"/>
      <path d="M146.33,88c-4.3,0-12.64-5.63-15.15-8.56A22,22,0,0,1,126.81,69a49.54,49.54,0,0,1,.2-10.33c-.36-.38-.72-.71-1.09-1.06a16.69,16.69,0,0,1-2.06-2.18c-.36-.47-.72-.89-1.05-1.29a9.2,9.2,0,0,1-2.58-4.85c-.5-3.14.35-5.49,2.39-6.62,2.69-1.48,5.87-.24,8,1.41l.95.74a25.93,25.93,0,0,1,4,3.56c2.63,3,6.5,6.62,9.48,7.89l-1,2.25c-4.23-1.8-9-7-10.36-8.52A23.59,23.59,0,0,0,130,46.75l-1-.75c-1.4-1.11-3.62-2.09-5.26-1.18-1.37.75-1.38,2.64-1.15,4.09a7,7,0,0,0,2,3.64c.37.43.75.88,1.14,1.39a14.52,14.52,0,0,0,1.78,1.87,21.8,21.8,0,0,1,1.62,1.63l.36.41-.07.54a47.06,47.06,0,0,0-.26,10.3A19.54,19.54,0,0,0,133,77.8c2.35,2.75,10.1,7.77,13.34,7.7l.06,2.45Z" style="fill: #27295b"/>
      <path d="M93.31,181.85l12.6-18-12-16.17,1.82-.42c20.68-4.82,33.54-18.13,35.29-36.53a12.62,12.62,0,0,0-1-6.38c-2.51-5.57-8.6-19-10.77-23-1.88-3.51-3.51-9.8-5.09-15.88-1.4-5.38-2.84-10.93-4.27-13.64-.91-1.73-13-19.29-15.13-21.87l1.88-1.57c2,2.43,14.28,20.14,15.42,22.3,1.56,3,3,8.4,4.47,14.17,1.54,5.94,3.14,12.09,4.88,15.34,2.21,4.12,8.32,17.57,10.84,23.16a15.06,15.06,0,0,1,1.25,7.62c-1.8,19-14.66,32.82-35.37,38.24l10.88,14.61-10.4,14.88c41.15-6.4,64.17-31.43,64.9-70.75,0-.48,3.42-38.51-24.46-68-2.86-3-28.29-27.51-34.56-30.82L104.15,9a1.35,1.35,0,0,0-1-.23V6.29a3.62,3.62,0,0,1,2.12.53l.24.13c6.64,3.5,32.21,28.14,35.2,31.31,28.67,30.3,25.16,69.41,25.12,69.8-.36,19.81-6.31,36.29-17.67,48.87-12,13.31-29.56,21.58-52.13,24.57Z" style="fill: #27295b"/>
      <path d="M80.32,181.5l-.7-.09c-37.22-4.92-64-35.82-63.65-73.48C16.33,69,35.15,50,46.39,38.69l2-2,1.15-1.18A285.5,285.5,0,0,1,73.18,13.23c.06-.05,6.44-5.17,9.82-3.83l-.9,2.28c-1.12-.44-5.15,1.59-7.34,3.43A283.27,283.27,0,0,0,51.29,37.2l-1.15,1.18-2,2C37.15,51.48,18.77,70,18.42,107.94c-.33,36.17,25.21,65.9,60.82,70.94l11.63-15.06L79,149.38c-18.24-5.5-31.95-23.74-31.95-42.6A29.13,29.13,0,0,1,57.51,85.83c3.06-2.53,6.19-4.67,9-6.57,2.17-1.49,4-2.78,5.49-4,4.81-4,8.89-10.09,11.88-14.56a55.09,55.09,0,0,1,3.78-5.28c.42-.47,1-1,1.53-1.56,1.81-1.78,4.06-4,4-6a3.46,3.46,0,0,0-1.5-2.45c-3-2.5-15.05,7.74-19,11.11-1.57,1.34-2.61,2.22-3.2,2.6l-1.46-2c11-9.58,27.31-29.51,35.33-40.6a10.54,10.54,0,0,0,2.27-4.52c.17-1.3-.44-2.93-1.63-3.28a3.47,3.47,0,0,0-3.3.94c-2.9,3-5.54,5.92-8.1,8.72C85.71,26,79.27,33,69.28,41.19l-1.55-1.9c9.86-8.07,16.24-15.05,23-22.45,2.57-2.81,5.22-5.72,8.14-8.76a5.88,5.88,0,0,1,5.75-1.59c2.51.74,3.68,3.6,3.37,6a12.63,12.63,0,0,1-2.72,5.63c-5.2,7.19-13.85,18.08-22.34,27.52,4.26-2.64,8-3.86,10.25-2a5.82,5.82,0,0,1,2.39,4.23c.14,3.05-2.55,5.7-4.71,7.82-.53.52-1,1-1.41,1.45a54.49,54.49,0,0,0-3.57,5C82.81,66.7,78.6,73,73.52,77.19c-1.53,1.26-3.45,2.58-5.67,4.1-2.72,1.86-5.8,4-8.78,6.44a27.15,27.15,0,0,0-9.54,19.06c0,17.93,13.13,35.28,30.55,40.35l.36.11L94,163.78Z" style="fill: #27295b"/>
      <g>
        <path d="M94.31,4.37a3.42,3.42,0,0,0-2.76-1c-2.65.13-5.17,2.58-7,4.46-9.06,9.13-12.62,14.2-25,24.88" style="fill: #fff"/>
        <path d="M60.27,33.66l-1.6-1.86a192.08,192.08,0,0,0,17.47-17c2.26-2.42,4.59-4.93,7.5-7.86,1.73-1.75,4.63-4.67,7.85-4.83a4.6,4.6,0,0,1,3.74,1.39L93.39,5.17a2.21,2.21,0,0,0-1.78-.56c-2.27.11-4.75,2.61-6.23,4.1-2.88,2.91-5.2,5.4-7.45,7.81A194.15,194.15,0,0,1,60.27,33.66Z" style="fill: #27295b"/>
      </g>
      <path d="M65.35,35.81l-1.58-1.87c8.38-7.09,15.14-14.34,22.3-22C88.34,9.49,90.63,7,93,4.58,95,2.51,97.56.15,100.22.15h.07a4.28,4.28,0,0,1,3.2,1.53c2.31,2.56.5,5.54-.1,6.52L101.3,6.92c.88-1.44,1.27-2.6.37-3.61a1.88,1.88,0,0,0-1.42-.72h0c-1.3,0-3.14,1.24-5.48,3.68s-4.62,4.89-6.88,7.32C80.65,21.33,73.84,28.63,65.35,35.81Z" style="fill: #27295b"/>
    </g>
    <g>
      <path d="M85.58,131.89c2.33-1.78,5.77-3.15,8.48-1.83,1.35.66,2.22,1.87,3.46,2.68,1.43.93,3.26,1.28,4.78,2.1s2.74,2.49,1.92,3.85a3.55,3.55,0,0,1-1.32,1.14c-2.8,1.6-6.37,1.76-9.74,1.81-2.26,0-4.53,0-6.79-.13-2-.15-8.91-1.14-8.1-4,.29-1,2.55-1.88,3.39-2.48C83.05,134.08,84.24,132.91,85.58,131.89Z" style="fill: #27295b"/>
      <path d="M90.14,132.19c-2.14-5,1.19-17,2.58-20.53.5-1.29,1.06-2.57,1.61-3.81a38.88,38.88,0,0,0,3.09-8.94,39.13,39.13,0,0,0,0-9.54c-.27-3.64-.56-7.41.27-11.1l2.39.53c-.75,3.34-.49,6.76-.22,10.38a41.58,41.58,0,0,1-.07,10.13,41.3,41.3,0,0,1-3.26,9.51C96,110,95.49,111.3,95,112.54c-1.72,4.41-4.19,15-2.61,18.68Z" style="fill: #27295b"/>
      <path d="M92.73,109A19.14,19.14,0,0,1,83,106.35c-5.71-3.4-9-9.42-11.28-14.28l2.22-1c2.11,4.54,5.18,10.15,10.31,13.2a16.65,16.65,0,0,0,11.55,2l.47,2.41A18.64,18.64,0,0,1,92.73,109Z" style="fill: #27295b"/>
      <path d="M95.62,118a39.79,39.79,0,0,1-4.14-.22l.26-2.44a26,26,0,0,0,11.56-1,17.81,17.81,0,0,0,8.26-6.53A39.91,39.91,0,0,0,116,98.6l2.29.86a42,42,0,0,1-4.75,9.76,20.12,20.12,0,0,1-9.41,7.41A24.7,24.7,0,0,1,95.62,118Z" style="fill: #27295b"/>
      <path d="M97.67,82.53s-9.28,0-9.27-10.19C88.39,72.34,98.73,72.54,97.67,82.53Z" style="fill: #27295b"/>
      <path d="M98.94,82.59s9.24.83,10.19-9.27C109.14,73.32,98.73,72.54,98.94,82.59Z" style="fill: #27295b"/>
      <path d="M98.52,80.72S92,74.13,99.17,67C99.17,67,105.6,73.82,98.52,80.72Z" style="fill: #27295b"/>
      <path d="M76.44,99.33s-8,4.64-13.15-4.12C63.3,95.21,71.57,90.73,76.44,99.33Z" style="fill: #27295b"/>
      <path d="M77.58,98.74S86,94.8,81.7,85.59C81.7,85.59,73.3,89.82,77.58,98.74Z" style="fill: #27295b"/>
      <path d="M76.27,97.34s-9-2.4-6.38-12.21C69.89,85.13,78.91,87.81,76.27,97.34Z" style="fill: #27295b"/>
      <path d="M80.62,125.6c-5.22,0-11.52-2.3-14.13-8.83l2.27-.91c2.81,7,10.12,7.35,12.3,7.29,4.65-.14,8.69-2.2,9.59-4.92L93,119c-1.24,3.71-6.11,6.42-11.84,6.59Z" style="fill: #27295b"/>
      <path d="M71.79,121.81s-7.36,5.66-13.57-2.37C58.22,119.44,65.83,113.91,71.79,121.81Z" style="fill: #27295b"/>
      <path d="M71.79,121.6s8.13-4.47,3.28-13.38C75.07,108.22,66.47,112.86,71.79,121.6Z" style="fill: #27295b"/>
      <path d="M70.39,120.29s-9.1-1.82-7.15-11.78C63.25,108.51,72.42,110.61,70.39,120.29Z" style="fill: #27295b"/>
      <path d="M112.42,109.52S103.5,107,106.26,97.2C106.26,97.2,115.23,100,112.42,109.52Z" style="fill: #27295b"/>
      <path d="M112.48,109.93s8.67,3.31,12.32-6.16C124.8,103.77,115.93,100.66,112.48,109.93Z" style="fill: #27295b"/>
      <path d="M113.51,107s-4.5-8.12,4.36-13.07C117.87,93.92,122.21,102.27,113.51,107Z" style="fill: #27295b"/>
    </g>
  </g>
</svg>
