<svg id="Réteg_1" data-name="Réteg 1" xmlns="http://www.w3.org/2000/svg" viewBox="0 0 841 182">
  <title>logo_full</title>
  <g>
    <path d="M107.52,40.92c-4.6-5.78-15-16.83-20.47-22.44l1.75-1.71c5.5,5.65,16,16.78,20.63,22.63Z" style="fill: #27295b"/>
    <path d="M102,43.62a193.88,193.88,0,0,0-17.93-20.9L85.82,21A196.18,196.18,0,0,1,104,42.16Z" style="fill: #27295b"/>
    <path d="M98.27,48.34A202.27,202.27,0,0,0,81.36,26.42l1.8-1.66A204.93,204.93,0,0,1,100.3,47Z" style="fill: #27295b"/>
    <path d="M130.28,88.28c-4.3,0-12.64-5.63-15.15-8.56a22,22,0,0,1-4.37-10.4A49.54,49.54,0,0,1,111,59c-.36-.38-.72-.71-1.09-1.06a16.69,16.69,0,0,1-2.06-2.18c-.36-.47-.72-.89-1.05-1.29a9.2,9.2,0,0,1-2.58-4.85c-.5-3.14.35-5.49,2.39-6.62,2.69-1.48,5.87-.24,8,1.41l.95.74a25.93,25.93,0,0,1,4,3.56c2.63,3,6.5,6.62,9.48,7.89l-1,2.25c-4.23-1.8-9-7-10.36-8.52A23.59,23.59,0,0,0,114,47.07l-1-.75c-1.4-1.11-3.62-2.09-5.26-1.18-1.37.75-1.38,2.64-1.15,4.09a7,7,0,0,0,2,3.64c.37.43.75.88,1.14,1.39a14.52,14.52,0,0,0,1.78,1.87,21.8,21.8,0,0,1,1.62,1.63l.36.41-.07.54a47.06,47.06,0,0,0-.26,10.3,19.54,19.54,0,0,0,3.8,9.11c2.35,2.75,10.1,7.77,13.34,7.7l.06,2.45Z" style="fill: #27295b"/>
    <path d="M77.26,182.18l12.6-18L77.83,148l1.82-.42c20.68-4.82,33.54-18.13,35.29-36.53a12.62,12.62,0,0,0-1-6.38c-2.51-5.57-8.6-19-10.77-23-1.88-3.51-3.51-9.8-5.09-15.88-1.4-5.38-2.84-10.93-4.27-13.64-.91-1.73-13-19.29-15.13-21.87l1.88-1.57c2,2.43,14.28,20.14,15.42,22.3,1.56,3,3,8.4,4.47,14.17,1.54,5.94,3.14,12.09,4.88,15.34,2.21,4.12,8.32,17.57,10.84,23.16a15.06,15.06,0,0,1,1.25,7.62c-1.8,19-14.66,32.82-35.37,38.24L92.88,164.1,82.48,179c41.15-6.4,64.17-31.43,64.9-70.75,0-.48,3.42-38.51-24.46-68-2.86-3-28.29-27.51-34.56-30.82L88.1,9.3a1.35,1.35,0,0,0-1-.23V6.61a3.62,3.62,0,0,1,2.12.53l.24.13c6.64,3.5,32.21,28.14,35.2,31.31,28.67,30.3,25.16,69.41,25.12,69.8-.36,19.81-6.31,36.29-17.67,48.87-12,13.31-29.56,21.58-52.13,24.57Z" style="fill: #27295b"/>
    <path d="M64.27,181.82l-.7-.09c-37.22-4.92-64-35.82-63.65-73.48C.28,69.31,19.1,50.34,30.34,39l2-2,1.15-1.18A285.5,285.5,0,0,1,57.13,13.55c.06-.05,6.44-5.17,9.82-3.83L66,12c-1.12-.44-5.15,1.59-7.34,3.43a283.27,283.27,0,0,0-23.46,22.1L34.09,38.7l-2,2C21.1,51.8,2.72,70.33,2.38,108.26,2,144.44,27.59,174.16,63.2,179.2l11.63-15.06L63,149.7C44.74,144.2,31,126,31,107.1A29.13,29.13,0,0,1,41.46,86.16c3.06-2.53,6.19-4.67,9-6.57,2.17-1.49,4-2.78,5.49-4,4.81-4,8.89-10.09,11.88-14.56a55.09,55.09,0,0,1,3.78-5.28c.42-.47,1-1,1.53-1.56,1.81-1.78,4.06-4,4-6a3.46,3.46,0,0,0-1.5-2.45c-3-2.5-15.05,7.74-19,11.11-1.57,1.34-2.61,2.22-3.2,2.6l-1.46-2C63,48,79.22,28.05,87.23,17a10.54,10.54,0,0,0,2.27-4.52c.17-1.3-.44-2.93-1.63-3.28a3.47,3.47,0,0,0-3.3.94c-2.9,3-5.54,5.92-8.1,8.72-6.82,7.46-13.26,14.51-23.25,22.69l-1.55-1.9c9.86-8.07,16.24-15.05,23-22.45,2.57-2.81,5.22-5.72,8.14-8.76a5.88,5.88,0,0,1,5.75-1.59c2.51.74,3.68,3.6,3.37,6a12.63,12.63,0,0,1-2.72,5.63C84,25.59,75.37,36.48,66.88,45.92c4.26-2.64,8-3.86,10.25-2a5.82,5.82,0,0,1,2.39,4.23c.14,3.05-2.55,5.7-4.71,7.82-.53.52-1,1-1.41,1.45a54.49,54.49,0,0,0-3.57,5C66.76,67,62.56,73.32,57.47,77.51c-1.53,1.26-3.45,2.58-5.67,4.1C49.09,83.47,46,85.59,43,88a27.15,27.15,0,0,0-9.54,19.06c0,17.93,13.13,35.28,30.55,40.35l.36.11L78,164.1Z" style="fill: #27295b"/>
    <g>
      <path d="M78.26,4.69a3.42,3.42,0,0,0-2.76-1c-2.65.13-5.17,2.58-7,4.46-9.06,9.13-12.62,14.2-25,24.88" style="fill: #fff"/>
      <path d="M44.22,34l-1.6-1.86a192.08,192.08,0,0,0,17.47-17c2.26-2.42,4.59-4.93,7.5-7.86,1.73-1.75,4.63-4.67,7.85-4.83a4.6,4.6,0,0,1,3.74,1.39L77.34,5.5a2.21,2.21,0,0,0-1.78-.56C73.29,5,70.81,7.55,69.33,9c-2.88,2.91-5.2,5.4-7.45,7.81A194.15,194.15,0,0,1,44.22,34Z" style="fill: #27295b"/>
    </g>
    <path d="M49.3,36.14l-1.58-1.87c8.38-7.09,15.14-14.34,22.3-22,2.27-2.44,4.55-4.89,6.91-7.34,2-2.07,4.58-4.43,7.24-4.43h.07A4.28,4.28,0,0,1,87.44,2c2.31,2.56.5,5.54-.1,6.52L85.25,7.24c.88-1.44,1.27-2.6.37-3.61a1.88,1.88,0,0,0-1.42-.72h0c-1.3,0-3.14,1.24-5.48,3.68s-4.62,4.89-6.88,7.32C64.6,21.65,57.79,29,49.3,36.14Z" style="fill: #27295b"/>
  </g>
  <g>
    <path d="M197.86,126.27a12.47,12.47,0,0,1-5.56-1.16,8.66,8.66,0,0,1-3.65-3.23,8.94,8.94,0,0,1-1.29-4.81H191a6.38,6.38,0,0,0,.79,3.13,5.8,5.8,0,0,0,2.3,2.28,7.57,7.57,0,0,0,3.75.85,6.72,6.72,0,0,0,4.56-1.41,4.48,4.48,0,0,0,1.62-3.53,4.76,4.76,0,0,0-.75-2.8,5.59,5.59,0,0,0-2-1.72,16.76,16.76,0,0,0-2.9-1.16q-1.64-.5-3.42-1.12a12.22,12.22,0,0,1-5-2.88,6.3,6.3,0,0,1-1.62-4.5,7.4,7.4,0,0,1,1.08-4.13,7.61,7.61,0,0,1,3.17-2.82,10.87,10.87,0,0,1,4.87-1,10.6,10.6,0,0,1,4.83,1,7.83,7.83,0,0,1,3.19,2.86,8,8,0,0,1,1.18,4.15H203a5.07,5.07,0,0,0-.62-2.38,4.86,4.86,0,0,0-1.89-1.93,6.15,6.15,0,0,0-3.17-.75,5.74,5.74,0,0,0-3.88,1.2,4.21,4.21,0,0,0-1.51,3.44,3.74,3.74,0,0,0,1.06,2.86,8,8,0,0,0,3,1.64l4.4,1.47a21.23,21.23,0,0,1,3.73,1.74,7.35,7.35,0,0,1,2.59,2.57,7.81,7.81,0,0,1,.93,4,7.64,7.64,0,0,1-1.08,3.92,8,8,0,0,1-3.26,3A11.5,11.5,0,0,1,197.86,126.27Z" style="fill: #27295b"/>
    <path d="M211.76,125.78V123l14.31-23.26H212v-3h18.16v2.74l-14.35,23.27h14.51v3Z" style="fill: #27295b"/>
    <path d="M248,126.27a14.5,14.5,0,0,1-7.49-1.89,13.12,13.12,0,0,1-5-5.29,17.89,17.89,0,0,1,0-15.66,13.31,13.31,0,0,1,5-5.29,15.72,15.72,0,0,1,15,0,13.16,13.16,0,0,1,5,5.29,18.07,18.07,0,0,1,0,15.66,13,13,0,0,1-5,5.29A14.59,14.59,0,0,1,248,126.27Zm0-3.07a10.86,10.86,0,0,0,5.62-1.43,9.71,9.71,0,0,0,3.77-4.11,15.85,15.85,0,0,0,0-12.79,9.74,9.74,0,0,0-3.77-4.08,11.75,11.75,0,0,0-11.24,0,9.73,9.73,0,0,0-3.77,4.08,15.85,15.85,0,0,0,0,12.79,9.71,9.71,0,0,0,3.77,4.11A10.85,10.85,0,0,0,248,123.2Z" style="fill: #27295b"/>
    <path d="M267.7,125.78v-29h3.48V123H284.7v2.78Z" style="fill: #27295b"/>
    <path d="M289.89,125.78v-29h3.48v29Z" style="fill: #27295b"/>
    <path d="M299.92,125.78v-29h8.92q7.67,0,11.3,3.9t3.63,10.7q0,6.68-3.63,10.55t-11.3,3.88Zm3.48-2.9h5.35a13.93,13.93,0,0,0,6.74-1.39,7.92,7.92,0,0,0,3.59-4,16,16,0,0,0,1.08-6.16,16.39,16.39,0,0,0-1.08-6.26,8,8,0,0,0-3.59-4,13.77,13.77,0,0,0-6.74-1.41h-5.35Z" style="fill: #27295b"/>
    <path d="M325.3,125.78l10.7-29h3.69l10.66,29h-3.69L344,118.31H331.65l-2.7,7.46Zm7.38-10.28H343l-5.14-14.35ZM336,95V92.43l8.71-5.27v3Z" style="fill: #27295b"/>
    <path d="M355.08,125.78v-29h9.37A12,12,0,0,1,370,97.87a7.31,7.31,0,0,1,3.19,3.07,9,9,0,0,1,1,4.31,8.67,8.67,0,0,1-1.47,4.93,8,8,0,0,1-4.58,3.11l6.34,12.48h-4.11l-5.89-12h-6v12Zm3.48-14.72h5.64q3.36,0,4.89-1.62a5.78,5.78,0,0,0,1.53-4.15,5.52,5.52,0,0,0-1.51-4.08q-1.51-1.51-5-1.51h-5.6Z" style="fill: #27295b"/>
    <path d="M380.09,125.78v-29h3.48v29Z" style="fill: #27295b"/>
    <path d="M399.37,126.27a12.47,12.47,0,0,1-5.56-1.16,8.66,8.66,0,0,1-3.65-3.23,8.94,8.94,0,0,1-1.29-4.81h3.65a6.38,6.38,0,0,0,.79,3.13,5.8,5.8,0,0,0,2.3,2.28,7.57,7.57,0,0,0,3.75.85,6.72,6.72,0,0,0,4.56-1.41,4.48,4.48,0,0,0,1.62-3.53,4.76,4.76,0,0,0-.75-2.8,5.59,5.59,0,0,0-2-1.72,16.76,16.76,0,0,0-2.9-1.16q-1.64-.5-3.42-1.12a12.22,12.22,0,0,1-5-2.88,6.3,6.3,0,0,1-1.62-4.5,7.4,7.4,0,0,1,1.08-4.13,7.61,7.61,0,0,1,3.17-2.82,10.87,10.87,0,0,1,4.87-1,10.6,10.6,0,0,1,4.83,1,7.83,7.83,0,0,1,3.19,2.86,8,8,0,0,1,1.18,4.15h-3.65a5.07,5.07,0,0,0-.62-2.38A4.86,4.86,0,0,0,402,100a6.15,6.15,0,0,0-3.17-.75,5.74,5.74,0,0,0-3.88,1.2,4.21,4.21,0,0,0-1.51,3.44,3.74,3.74,0,0,0,1.06,2.86,8,8,0,0,0,3,1.64l4.4,1.47a21.23,21.23,0,0,1,3.73,1.74,7.35,7.35,0,0,1,2.59,2.57,7.81,7.81,0,0,1,.93,4,7.64,7.64,0,0,1-1.08,3.92,8,8,0,0,1-3.26,3A11.5,11.5,0,0,1,399.37,126.27Z" style="fill: #27295b"/>
    <path d="M438.4,126.27a13.33,13.33,0,0,1-7.13-1.89,12.76,12.76,0,0,1-4.77-5.27,18.77,18.77,0,0,1,0-15.66,12.8,12.8,0,0,1,4.89-5.31,14.25,14.25,0,0,1,7.49-1.91A13.51,13.51,0,0,1,447,98.61a10.73,10.73,0,0,1,4.21,6.51h-4a6.68,6.68,0,0,0-2.76-4.15,9.46,9.46,0,0,0-5.58-1.53,10.53,10.53,0,0,0-5.56,1.43,9.6,9.6,0,0,0-3.67,4.09,14.24,14.24,0,0,0-1.31,6.34,14.43,14.43,0,0,0,1.29,6.34,9.64,9.64,0,0,0,3.57,4.08,9.78,9.78,0,0,0,5.31,1.43q4.64,0,7-2.72a12.33,12.33,0,0,0,2.7-7.44h-8.38v-2.74h11.94v15.51H448.6l-.29-4.77a11.57,11.57,0,0,1-3.86,3.9A11.69,11.69,0,0,1,438.4,126.27Z" style="fill: #27295b"/>
    <path d="M455.9,125.78l10.7-29h3.69l10.66,29h-3.69l-2.65-7.46H462.24l-2.7,7.46Zm7.38-10.28h10.28l-5.14-14.35Z" style="fill: #27295b"/>
    <path d="M484.43,125.78V123l14.31-23.26h-14.1v-3H502.8v2.74l-14.35,23.27H503v3Z" style="fill: #27295b"/>
    <path d="M508.28,125.78v-29h8.92q7.67,0,11.3,3.9t3.63,10.7q0,6.68-3.63,10.55t-11.3,3.88Zm3.48-2.9h5.35a13.92,13.92,0,0,0,6.74-1.39,7.92,7.92,0,0,0,3.59-4,16,16,0,0,0,1.08-6.16,16.39,16.39,0,0,0-1.08-6.26,8,8,0,0,0-3.59-4,13.77,13.77,0,0,0-6.74-1.41h-5.35Z" style="fill: #27295b"/>
    <path d="M533.66,125.78l10.7-29H548l10.66,29H555l-2.65-7.46H540l-2.7,7.46ZM541,115.49h10.28l-5.14-14.35Z" style="fill: #27295b"/>
    <path d="M572.68,126.27a12.47,12.47,0,0,1-5.56-1.16,8.66,8.66,0,0,1-3.65-3.23,8.94,8.94,0,0,1-1.29-4.81h3.65a6.38,6.38,0,0,0,.79,3.13,5.8,5.8,0,0,0,2.3,2.28,7.58,7.58,0,0,0,3.75.85,6.72,6.72,0,0,0,4.56-1.41,4.48,4.48,0,0,0,1.62-3.53,4.76,4.76,0,0,0-.75-2.8,5.6,5.6,0,0,0-2-1.72,16.75,16.75,0,0,0-2.9-1.16q-1.64-.5-3.42-1.12a12.22,12.22,0,0,1-5-2.88,6.31,6.31,0,0,1-1.62-4.5,7.4,7.4,0,0,1,1.08-4.13,7.61,7.61,0,0,1,3.17-2.82,10.88,10.88,0,0,1,4.87-1,10.59,10.59,0,0,1,4.83,1,7.83,7.83,0,0,1,3.19,2.86,8,8,0,0,1,1.18,4.15h-3.65a5.08,5.08,0,0,0-.62-2.38,4.86,4.86,0,0,0-1.89-1.93,6.15,6.15,0,0,0-3.17-.75,5.74,5.74,0,0,0-3.88,1.2,4.21,4.21,0,0,0-1.51,3.44,3.74,3.74,0,0,0,1.06,2.86,8,8,0,0,0,3,1.64l4.4,1.47a21.22,21.22,0,0,1,3.73,1.74,7.34,7.34,0,0,1,2.59,2.57,7.81,7.81,0,0,1,.93,4,7.65,7.65,0,0,1-1.08,3.92,8,8,0,0,1-3.26,3A11.5,11.5,0,0,1,572.68,126.27Z" style="fill: #27295b"/>
    <path d="M586,125.78l10.7-29h3.69l10.66,29h-3.69l-2.65-7.46H592.34l-2.7,7.46Zm7.38-10.28h10.28l-5.14-14.35ZM596.69,95V92.43l8.71-5.27v3Z" style="fill: #27295b"/>
    <path d="M626.59,126.27a13.34,13.34,0,0,1-7.13-1.89,12.76,12.76,0,0,1-4.77-5.27,18.77,18.77,0,0,1,0-15.66,12.81,12.81,0,0,1,4.89-5.31,14.25,14.25,0,0,1,7.49-1.91,13.51,13.51,0,0,1,8.15,2.36,10.73,10.73,0,0,1,4.21,6.51h-4a6.68,6.68,0,0,0-2.76-4.15,9.47,9.47,0,0,0-5.58-1.53,10.53,10.53,0,0,0-5.56,1.43,9.6,9.6,0,0,0-3.67,4.09,14.24,14.24,0,0,0-1.31,6.34,14.43,14.43,0,0,0,1.29,6.34,9.64,9.64,0,0,0,3.57,4.08,9.77,9.77,0,0,0,5.31,1.43q4.64,0,7-2.72a12.34,12.34,0,0,0,2.7-7.44H628v-2.74H640v15.51H636.8L636.5,121a11.57,11.57,0,0,1-3.86,3.9A11.69,11.69,0,0,1,626.59,126.27Z" style="fill: #27295b"/>
    <path d="M657.32,125.78v-29h3.48v13.15l12.11-13.15h4.4l-10.78,11.57,10.95,17.46h-4.23L664,111l-3.23,3.44v11.32Z" style="fill: #27295b"/>
    <path d="M693.36,126.27a14.5,14.5,0,0,1-7.49-1.89,13.12,13.12,0,0,1-5-5.29,17.89,17.89,0,0,1,0-15.66,13.3,13.3,0,0,1,5-5.29,15.72,15.72,0,0,1,15,0,13.17,13.17,0,0,1,5,5.29,18.07,18.07,0,0,1,0,15.66,13,13,0,0,1-5,5.29A14.59,14.59,0,0,1,693.36,126.27Zm0-3.07a10.85,10.85,0,0,0,5.62-1.43,9.72,9.72,0,0,0,3.77-4.11,15.85,15.85,0,0,0,0-12.79,9.74,9.74,0,0,0-3.77-4.08,11.75,11.75,0,0,0-11.24,0,9.73,9.73,0,0,0-3.77,4.08,15.85,15.85,0,0,0,0,12.79,9.7,9.7,0,0,0,3.77,4.11A10.85,10.85,0,0,0,693.36,123.2Zm-3.28-29.57A2.06,2.06,0,0,1,688,91.56a2,2,0,0,1,.6-1.45,2,2,0,0,1,1.47-.62,2.13,2.13,0,0,1,2.07,2.07,2,2,0,0,1-.62,1.47A2,2,0,0,1,690.09,93.64Zm6.64,0a2.06,2.06,0,0,1-2.07-2.07,2,2,0,0,1,.6-1.45,2,2,0,0,1,1.47-.62,1.9,1.9,0,0,1,1.45.62,2.06,2.06,0,0,1,.58,1.45,2,2,0,0,1-.58,1.47A1.93,1.93,0,0,1,696.72,93.64Z" style="fill: #27295b"/>
    <path d="M711.86,125.78V123l14.31-23.26h-14.1v-3h18.17v2.74l-14.35,23.27H730.4v3Z" style="fill: #27295b"/>
    <path d="M735.7,125.78v-29h9.54a12.29,12.29,0,0,1,5.6,1.12,7.46,7.46,0,0,1,3.26,3,9.32,9.32,0,0,1,0,8.58,7.46,7.46,0,0,1-3.24,3,12.22,12.22,0,0,1-5.64,1.14h-6.05v12.11Zm3.48-15.05h6q3.48,0,5-1.47a5.46,5.46,0,0,0,1.47-4,5.52,5.52,0,0,0-1.47-4.08q-1.47-1.47-5-1.47h-6Z" style="fill: #27295b"/>
    <path d="M773.32,126.27a14.5,14.5,0,0,1-7.49-1.89,13.12,13.12,0,0,1-5-5.29,17.89,17.89,0,0,1,0-15.66,13.3,13.3,0,0,1,5-5.29,15.72,15.72,0,0,1,15,0,13.17,13.17,0,0,1,5,5.29,18.07,18.07,0,0,1,0,15.66,13,13,0,0,1-5,5.29A14.59,14.59,0,0,1,773.32,126.27Zm0-3.07a10.85,10.85,0,0,0,5.62-1.43,9.72,9.72,0,0,0,3.77-4.11,15.85,15.85,0,0,0,0-12.79,9.74,9.74,0,0,0-3.77-4.08,11.75,11.75,0,0,0-11.24,0,9.73,9.73,0,0,0-3.77,4.08,15.85,15.85,0,0,0,0,12.79,9.7,9.7,0,0,0,3.77,4.11A10.85,10.85,0,0,0,773.32,123.2Z" style="fill: #27295b"/>
    <path d="M793.06,125.78v-29h3.48L812,120V96.74h3.48v29H812l-15.47-23.26v23.26Z" style="fill: #27295b"/>
    <path d="M828.85,125.78V99.61h-8.67V96.74H841v2.86h-8.67v26.17Z" style="fill: #27295b"/>
  </g>
  <g>
    <path d="M69.54,132.21c2.33-1.78,5.77-3.15,8.48-1.83,1.35.66,2.22,1.87,3.46,2.68,1.43.93,3.26,1.28,4.78,2.1S89,137.65,88.17,139a3.55,3.55,0,0,1-1.32,1.14c-2.8,1.6-6.37,1.76-9.74,1.81-2.26,0-4.53,0-6.79-.13-2-.15-8.91-1.14-8.1-4,.29-1,2.55-1.88,3.39-2.48C67,134.41,68.19,133.24,69.54,132.21Z" style="fill: #27295b"/>
    <path d="M74.09,132.51c-2.14-5,1.19-17,2.58-20.53.5-1.29,1.06-2.57,1.61-3.81a38.88,38.88,0,0,0,3.09-8.94,39.13,39.13,0,0,0,0-9.54c-.27-3.64-.56-7.41.27-11.1l2.39.53c-.75,3.34-.49,6.76-.22,10.38a41.58,41.58,0,0,1-.07,10.13,41.3,41.3,0,0,1-3.26,9.51c-.53,1.22-1.08,2.47-1.57,3.72-1.72,4.41-4.19,15-2.61,18.68Z" style="fill: #27295b"/>
    <path d="M76.68,109.32a19.14,19.14,0,0,1-9.73-2.65c-5.71-3.4-9-9.42-11.28-14.28l2.22-1c2.11,4.54,5.18,10.15,10.31,13.2a16.65,16.65,0,0,0,11.55,2l.47,2.41A18.64,18.64,0,0,1,76.68,109.32Z" style="fill: #27295b"/>
    <path d="M79.57,118.31a39.79,39.79,0,0,1-4.14-.22l.26-2.44a26,26,0,0,0,11.56-1,17.81,17.81,0,0,0,8.26-6.53A39.91,39.91,0,0,0,100,98.92l2.29.86a42,42,0,0,1-4.75,9.76A20.12,20.12,0,0,1,88.1,117,24.7,24.7,0,0,1,79.57,118.31Z" style="fill: #27295b"/>
    <path d="M81.62,82.85s-9.28,0-9.27-10.19C72.35,72.66,82.68,72.86,81.62,82.85Z" style="fill: #27295b"/>
    <path d="M82.89,82.91s9.24.83,10.19-9.27C93.09,73.64,82.68,72.86,82.89,82.91Z" style="fill: #27295b"/>
    <path d="M82.47,81s-6.53-6.59.65-13.76C83.12,67.28,89.56,74.14,82.47,81Z" style="fill: #27295b"/>
    <path d="M60.39,99.66s-8,4.64-13.15-4.12C47.25,95.53,55.52,91.05,60.39,99.66Z" style="fill: #27295b"/>
    <path d="M61.53,99.06s8.4-3.94,4.12-13.15C65.65,85.92,57.25,90.15,61.53,99.06Z" style="fill: #27295b"/>
    <path d="M60.22,97.67s-9-2.4-6.38-12.21C53.84,85.45,62.86,88.13,60.22,97.67Z" style="fill: #27295b"/>
    <path d="M64.57,125.92c-5.22,0-11.52-2.3-14.13-8.83l2.27-.91c2.81,7,10.12,7.35,12.3,7.29,4.65-.14,8.69-2.2,9.59-4.92l2.32.77c-1.24,3.71-6.11,6.42-11.84,6.59Z" style="fill: #27295b"/>
    <path d="M55.74,122.13s-7.36,5.66-13.57-2.37C42.17,119.76,49.78,114.24,55.74,122.13Z" style="fill: #27295b"/>
    <path d="M55.74,121.92s8.13-4.47,3.28-13.38C59,108.54,50.42,113.18,55.74,121.92Z" style="fill: #27295b"/>
    <path d="M54.35,120.61s-9.1-1.82-7.15-11.78C47.2,108.83,56.37,110.93,54.35,120.61Z" style="fill: #27295b"/>
    <path d="M96.37,109.85s-8.92-2.56-6.16-12.32C90.21,97.52,99.18,100.36,96.37,109.85Z" style="fill: #27295b"/>
    <path d="M96.43,110.25s8.67,3.31,12.32-6.16C108.76,104.09,99.88,101,96.43,110.25Z" style="fill: #27295b"/>
    <path d="M97.47,107.31S93,99.2,101.82,94.24C101.82,94.24,106.16,102.59,97.47,107.31Z" style="fill: #27295b"/>
  </g>
</svg>
