<svg width="48" height="68" viewBox="0 0 48 68" fill="none" xmlns="http://www.w3.org/2000/svg">
<path d="M35.9229 14.216C34.5539 12.4967 29.9206 7.63322 28.0179 5.6813L28.5698 5.14334C30.5597 7.18614 35.1276 11.9769 36.5256 13.7362L35.9229 14.216Z" fill="#27295B"/>
<path d="M33.4573 14.7067C32.368 13.2236 29.5248 9.50517 27.0811 7.01892L27.6294 6.47733C30.1094 8.99629 32.9635 12.7475 34.0746 14.245L33.4573 14.7067Z" fill="#27295B"/>
<path d="M31.9177 15.8298C29.4122 12.115 27.5386 9.61422 26.2277 8.18571L26.7942 7.66229C28.1341 9.11624 30.0186 11.6606 32.5568 15.3973L31.9177 15.8298Z" fill="#27295B"/>
<path d="M41.6455 27.705C40.2911 27.705 37.6513 25.9275 36.8706 25.0042C36.1358 24.0519 35.6615 22.9245 35.4944 21.7329C35.4029 20.6432 35.4236 19.5469 35.5561 18.4615C35.4436 18.3415 35.331 18.2361 35.2112 18.1271C34.9747 17.9204 34.7572 17.6929 34.5612 17.4474C34.4486 17.2983 34.3361 17.1675 34.2308 17.0403C33.8052 16.6243 33.5175 16.0876 33.4065 15.5027C33.2503 14.5104 33.5154 13.7689 34.1581 13.4163C35.0042 12.951 36.01 13.34 36.6672 13.8597L36.9686 14.096C37.4225 14.4264 37.8411 14.8028 38.2177 15.2192C39.0456 16.1606 40.2657 17.3056 41.2062 17.7091L40.9048 18.436C39.5722 17.869 38.0689 16.2333 37.6368 15.7462C37.2928 15.3674 36.9107 15.0251 36.4966 14.7248L36.1916 14.4849C35.7486 14.1215 35.0478 13.827 34.5321 14.1215C34.1 14.3577 34.0964 14.9538 34.169 15.4118C34.2582 15.8527 34.4815 16.2552 34.8081 16.5641C34.9243 16.6986 35.0441 16.8403 35.1712 17.0039C35.3408 17.2178 35.5292 17.4161 35.734 17.5964C35.9135 17.7582 36.0844 17.9293 36.246 18.1089L36.3586 18.2398L36.3368 18.4106C36.1903 19.4875 36.1623 20.5772 36.2533 21.6602C36.4009 22.7053 36.8134 23.6951 37.4516 24.5353C38.1778 25.3932 40.6361 26.9671 41.6346 26.9671H41.6564L41.6746 27.7413L41.6455 27.705Z" fill="#27295B"/>
<path d="M48 37.1229H36.4421V36.7303C36.491 34.7949 36.4 32.8586 36.1698 30.9363C36.1226 30.4347 35.193 28.9953 34.445 27.8358C33.9403 27.0543 33.4174 26.2437 33.0761 25.6076C32.4842 24.5172 31.9867 22.518 31.4711 20.5988C31.0426 18.9013 30.5851 17.1457 30.1385 16.2951C29.8516 15.7499 26.0498 10.2103 25.3708 9.38886L25.9627 8.89451C26.5981 9.6651 30.4616 15.2664 30.8175 15.9316C31.3077 16.8658 31.7543 18.5814 32.2264 20.4025C32.7166 22.2781 33.2177 24.2155 33.7696 25.2405C34.0964 25.8512 34.6084 26.6472 35.1059 27.4214C36.1952 29.1371 36.8888 30.2239 36.9505 30.8673C37.166 32.6885 37.2607 34.5221 37.2337 36.3559H47.2302C47.2302 32.761 46.9724 26.7053 45.6652 23.6339C44.5505 21.0277 41.1009 14.5467 39.3216 12.5366C38.3884 11.4825 30.389 3.85296 28.4282 2.82066L28.3447 2.77704C28.2576 2.7172 28.1517 2.69134 28.0469 2.70434V1.93738C28.2816 1.92188 28.5153 1.98035 28.7151 2.10459L28.7913 2.14457C30.97 3.28955 39.151 11.1917 39.8953 12.0314C41.8344 14.2123 45.3892 21.0422 46.3733 23.3358C47.7822 26.629 48 33.15 48 36.7339V37.1229Z" fill="#27295B"/>
<path d="M10.8135 37.1229H0.0181664V36.7594C-0.101661 32.2194 0.689927 25.7276 2.38204 22.6052C4.27749 19.1048 7.41479 14.972 10.7736 11.5189L11.1367 11.1554C13.4851 8.67247 15.9728 6.32539 18.5878 4.12557C18.606 4.12557 20.6212 2.49715 21.6815 2.91516L21.3983 3.64213C21.0352 3.50401 19.7752 4.14374 19.0853 4.73259C16.4898 6.91056 14.0203 9.23456 11.6886 11.6934L11.3255 12.0568C8.01393 15.4482 4.92746 19.5301 3.06106 22.9614C1.53598 25.7894 0.726238 31.8887 0.773443 36.3486H10.0655C10.0655 36.2129 10.0655 36.076 10.0655 35.9379C10.1636 32.5502 10.2725 28.7082 13.6967 26.9889C15.0989 26.24 16.4017 25.318 17.5747 24.2445C17.7998 24.0519 18.0104 23.8811 18.2029 23.7102C19.7171 22.4598 21.0061 20.5297 21.9466 19.1194C22.3103 18.539 22.708 17.9807 23.1376 17.4473C23.272 17.2983 23.439 17.1311 23.6206 16.953C24.1906 16.3896 24.9023 15.6917 24.8733 15.0701C24.8547 14.9147 24.803 14.7652 24.7215 14.6316C24.6401 14.498 24.5308 14.3835 24.4012 14.2959C23.4426 13.5181 19.6554 16.7495 18.4099 17.8108C17.916 18.2325 17.5892 18.5124 17.4004 18.6323L16.9393 18.0144C20.4215 14.9902 25.5487 8.70186 28.076 5.20149C28.4309 4.79179 28.6802 4.30135 28.8022 3.77299C28.8567 3.36225 28.6642 2.84973 28.2866 2.73705C28.1001 2.68978 27.9044 2.69279 27.7194 2.74578C27.5345 2.79877 27.3668 2.89985 27.2335 3.03874C26.3258 3.99835 25.4942 4.90707 24.6917 5.79034C22.4394 8.36731 19.9868 10.7617 17.3568 12.951L16.8666 12.3585C19.4704 10.1927 21.8988 7.82386 24.1289 5.27419C24.9387 4.38728 25.7775 3.45675 26.6961 2.50805C26.9265 2.26985 27.2163 2.09772 27.5356 2.00951C27.8549 1.9213 28.1919 1.92025 28.5117 2.00644C29.3033 2.23907 29.6737 3.14416 29.5756 3.88567C29.4322 4.5411 29.1262 5.14986 28.686 5.65585C27.0483 7.92764 24.3286 11.3626 21.6452 14.3395C22.9887 13.5072 24.1616 13.1219 24.8733 13.7107C25.0887 13.8645 25.2679 14.0636 25.3984 14.2941C25.5288 14.5245 25.6074 14.7807 25.6286 15.0447C25.6721 16.0079 24.8261 16.8403 24.1471 17.5128C23.98 17.6763 23.8239 17.829 23.7004 17.9708C23.2957 18.4762 22.9199 19.004 22.5748 19.5519C21.6089 21.0059 20.2835 22.9869 18.6822 24.31C18.4898 24.4663 18.2864 24.6444 18.0649 24.8334C16.8558 25.9443 15.5142 26.9015 14.0707 27.6831C11.0459 29.1989 10.9443 32.7937 10.8535 35.9634C10.8535 36.2287 10.8535 36.4904 10.8281 36.7485L10.8135 37.1229Z" fill="#27295B"/>
<path d="M25.2473 1.33034C25.134 1.21851 24.9976 1.1329 24.8476 1.07952C24.6977 1.02614 24.5379 1.0063 24.3795 1.02138C23.5443 1.06136 22.7491 1.83559 22.1608 2.4317C19.3068 5.31415 18.1666 6.91349 14.2704 10.283" fill="white"/>
<path d="M14.5245 10.5738L14.0162 9.98859C15.9622 8.32457 17.8008 6.53869 19.521 4.64171C20.2472 3.87839 20.9734 3.08599 21.8848 2.16273C22.6111 1.41758 23.4244 0.686975 24.3576 0.639722C24.5756 0.62106 24.7949 0.651902 24.9992 0.729946C25.2036 0.807991 25.3877 0.931222 25.5378 1.09044L24.9568 1.59933C24.8821 1.53074 24.7934 1.47927 24.6968 1.44851C24.6002 1.41775 24.4981 1.40844 24.3976 1.42122C23.6714 1.45393 22.9016 2.2427 22.4331 2.71523C21.5254 3.63122 20.7919 4.41998 20.0838 5.17967C18.3464 7.09343 16.4896 8.89509 14.5245 10.5738Z" fill="#27295B"/>
<path d="M16.1186 11.2681L15.6139 10.6647C18.2574 8.42925 20.3888 6.13929 22.6438 3.71483C23.37 2.94788 24.0962 2.17365 24.8225 1.39942C25.4506 0.745147 26.2713 0 27.1101 0H27.1319C27.3249 0.00370038 27.5148 0.0487649 27.6889 0.132157C27.8631 0.21555 28.0173 0.335333 28.1413 0.483437C28.8675 1.29038 28.2975 2.23181 28.1086 2.54077L27.4514 2.1373C27.7274 1.68294 27.8545 1.31582 27.5676 0.999588C27.5139 0.93185 27.4462 0.876609 27.3691 0.837694C27.2919 0.798779 27.2073 0.777123 27.121 0.774226C26.7106 0.774226 26.126 1.15952 25.3853 1.93375C24.6445 2.70797 23.9328 3.47857 23.2066 4.24189C20.9444 6.68452 18.7984 8.98902 16.1186 11.2681Z" fill="#27295B"/>
<path d="M5.14168 47.2533C4.83611 47.2592 4.5328 47.1997 4.25205 47.0788C4.00347 46.9781 3.78827 46.8092 3.63113 46.5917C3.48198 46.355 3.40734 46.079 3.41689 45.7993H4.29926C4.30407 46.002 4.3874 46.1949 4.53165 46.3373C4.61268 46.4129 4.70822 46.4712 4.81246 46.5087C4.91671 46.5462 5.02748 46.5621 5.13805 46.5554C5.32801 46.5658 5.5156 46.5092 5.6682 46.3954C5.73213 46.3443 5.78318 46.2788 5.81724 46.2043C5.85129 46.1298 5.86741 46.0484 5.86428 45.9665C5.86882 45.8849 5.85559 45.8034 5.82549 45.7274C5.79539 45.6515 5.74916 45.583 5.68998 45.5267C5.55521 45.4113 5.39828 45.3247 5.22883 45.2723L4.61153 45.0723C4.30968 44.98 4.03361 44.8181 3.80542 44.5998C3.71021 44.497 3.63644 44.3762 3.58844 44.2445C3.54043 44.1128 3.51914 43.9729 3.52582 43.8329C3.51443 43.5857 3.58182 43.3413 3.71828 43.135C3.85533 42.9378 4.04369 42.7819 4.26295 42.6842C4.51436 42.5732 4.78704 42.5186 5.0618 42.5243C5.33924 42.5189 5.61448 42.5747 5.86791 42.6879C6.08919 42.7873 6.27888 42.9457 6.41621 43.1459C6.55245 43.3545 6.62558 43.5981 6.62682 43.8474H5.73719C5.73316 43.6858 5.66679 43.5321 5.552 43.4185C5.48596 43.3544 5.40728 43.3048 5.321 43.2729C5.23471 43.2409 5.14272 43.2274 5.0509 43.2331C4.8864 43.2243 4.72378 43.2717 4.58975 43.3676C4.52764 43.4156 4.47828 43.4782 4.44599 43.5498C4.4137 43.6215 4.39947 43.6999 4.40456 43.7783C4.40142 43.8458 4.41276 43.9131 4.43781 43.9758C4.46286 44.0385 4.50105 44.0951 4.54981 44.1418C4.66436 44.2422 4.79765 44.3188 4.94197 44.3672C5.10658 44.4278 5.29661 44.4932 5.51206 44.5635C5.72673 44.6371 5.9345 44.7296 6.13298 44.8397C6.31444 44.9392 6.46898 45.0814 6.58324 45.2541C6.70428 45.4542 6.76364 45.6856 6.75391 45.9193C6.75582 46.1547 6.69301 46.386 6.57235 46.5881C6.44228 46.8007 6.25469 46.9721 6.03131 47.0824C5.75283 47.2102 5.44764 47.2688 5.14168 47.2533Z" fill="#28285B"/>
<path d="M7.836 47.1842V46.5263L9.94206 43.2876H7.85415V42.5861H10.8934V43.2549L8.77646 46.4936H10.9079V47.1951L7.836 47.1842Z" fill="#28285B"/>
<path d="M14.1614 47.2533C13.7421 47.2626 13.3281 47.1584 12.9631 46.9516C12.6239 46.7537 12.3462 46.4656 12.1607 46.1192C11.969 45.7361 11.8691 45.3136 11.8691 44.8852C11.8691 44.4567 11.969 44.0342 12.1607 43.6511C12.3462 43.3048 12.6239 43.0166 12.9631 42.8187C13.3318 42.6215 13.7434 42.5182 14.1614 42.5182C14.5794 42.5182 14.991 42.6215 15.3597 42.8187C15.6997 43.0156 15.9778 43.304 16.1622 43.6511C16.3517 44.0348 16.4503 44.4571 16.4503 44.8852C16.4503 45.3132 16.3517 45.7355 16.1622 46.1192C15.9778 46.4664 15.6997 46.7547 15.3597 46.9516C14.9946 47.158 14.5807 47.2622 14.1614 47.2533ZM14.1614 46.5263C14.3561 46.5349 14.5504 46.5006 14.7305 46.4259C14.9105 46.3511 15.072 46.2378 15.2035 46.0937C15.4565 45.7506 15.5931 45.3353 15.5931 44.9088C15.5931 44.4823 15.4565 44.067 15.2035 43.7238C14.926 43.4479 14.5507 43.2931 14.1596 43.2931C13.7684 43.2931 13.3932 43.4479 13.1156 43.7238C12.8604 44.0661 12.7226 44.4817 12.7226 44.9088C12.7226 45.3359 12.8604 45.7515 13.1156 46.0937C13.248 46.2376 13.4102 46.3509 13.5908 46.4256C13.7714 46.5003 13.9662 46.5347 14.1614 46.5263Z" fill="#28285B"/>
<path d="M17.6909 47.1842V42.6042H18.5188V46.5263H20.545V47.1805L17.6909 47.1842Z" fill="#28285B"/>
<path d="M21.7868 47.1842V42.6042H22.622V47.1842H21.7868Z" fill="#28285B"/>
<path d="M23.9982 47.1842V42.6043H25.5596C26.0135 42.5898 26.464 42.6885 26.8704 42.8914C27.205 43.0699 27.4745 43.3498 27.6402 43.6911C27.8062 44.0717 27.8918 44.4826 27.8918 44.8979C27.8918 45.3132 27.8062 45.724 27.6402 46.1046C27.472 46.4405 27.2027 46.7151 26.8704 46.8898C26.4604 47.0932 26.006 47.1907 25.5487 47.1733L23.9982 47.1842ZM24.8333 46.4572H25.5196C25.833 46.4726 26.1451 46.4089 26.4274 46.2718C26.6436 46.1533 26.8118 45.9631 26.9031 45.7339C27.0955 45.1869 27.0955 44.5906 26.9031 44.0437C26.8105 43.8144 26.6427 43.6234 26.4274 43.5021C26.1458 43.3627 25.8334 43.2977 25.5196 43.3131H24.837L24.8333 46.4572Z" fill="#28285B"/>
<path d="M28.548 47.1842L30.2219 42.6043H31.1624L32.8363 47.1842H31.954L31.5909 46.1228H29.7971L29.434 47.1842H28.548ZM30.0258 45.4685H31.3512L30.6831 43.5639L30.0258 45.4685ZM30.3672 42.3426V41.7537L31.845 40.954V41.6338L30.3672 42.3426Z" fill="#28285B"/>
<path d="M33.9148 47.1842V42.6043H35.5851C35.897 42.5925 36.2071 42.656 36.4893 42.7896C36.7136 42.9009 36.8996 43.0769 37.023 43.2949C37.1418 43.5094 37.2031 43.7511 37.201 43.9964C37.2038 44.2678 37.1281 44.5341 36.9831 44.7634C36.8219 45.0068 36.5802 45.1857 36.3005 45.2686L37.2482 47.1842H36.3113L35.4617 45.3668H34.75V47.1842H33.9148ZM34.75 44.7634H35.5415C35.6523 44.7726 35.7637 44.7593 35.8691 44.7243C35.9746 44.6894 36.0719 44.6334 36.1552 44.5598C36.2226 44.4881 36.2747 44.4035 36.3084 44.311C36.3421 44.2185 36.3567 44.1201 36.3513 44.0219C36.3552 43.9262 36.3402 43.8308 36.3072 43.7409C36.2742 43.6511 36.2238 43.5687 36.1588 43.4984C36.073 43.4258 35.9735 43.3711 35.8663 43.3374C35.7591 43.3037 35.6462 43.2917 35.5343 43.3022H34.75V44.7634Z" fill="#28285B"/>
<path d="M38.4901 47.1842V42.6042H39.3252V47.1842H38.4901Z" fill="#28285B"/>
<path d="M42.2555 47.2533C41.95 47.2592 41.6467 47.1997 41.3659 47.0788C41.1213 46.9727 40.9112 46.8002 40.7595 46.5808C40.606 46.3468 40.5263 46.072 40.5308 45.792H41.395C41.3994 45.9948 41.4828 46.1879 41.6274 46.33C41.7847 46.4607 41.98 46.537 42.1842 46.5475C42.3883 46.558 42.5904 46.5021 42.7603 46.3882C42.8242 46.337 42.8753 46.2716 42.9093 46.1971C42.9434 46.1226 42.9595 46.0411 42.9564 45.9592C42.9609 45.8777 42.9477 45.7961 42.9176 45.7201C42.8875 45.6442 42.8412 45.5757 42.7821 45.5194C42.6472 45.4041 42.4903 45.3175 42.3209 45.265L41.7072 45.0542C41.4053 44.9619 41.1292 44.8001 40.9011 44.5816C40.8066 44.4785 40.7335 44.3576 40.6861 44.2259C40.6387 44.0943 40.618 43.9545 40.6252 43.8147C40.6138 43.5675 40.6812 43.3231 40.8176 43.1168C40.9544 42.9193 41.1428 42.7634 41.3623 42.6661C41.6163 42.5591 41.8892 42.504 42.1648 42.504C42.4404 42.504 42.7132 42.5591 42.9673 42.6661C43.1885 42.7655 43.3782 42.9239 43.5156 43.1241C43.6516 43.3328 43.7247 43.5763 43.7262 43.8256H42.8474C42.8434 43.664 42.777 43.5103 42.6622 43.3967C42.5961 43.3327 42.5174 43.2833 42.4311 43.2514C42.3449 43.2194 42.2529 43.2058 42.1611 43.2113C41.9966 43.2025 41.834 43.2499 41.7 43.3458C41.6379 43.3938 41.5885 43.4564 41.5562 43.528C41.5239 43.5997 41.5097 43.6781 41.5148 43.7565C41.5117 43.824 41.523 43.8913 41.548 43.954C41.5731 44.0167 41.6113 44.0733 41.66 44.12C41.7746 44.2203 41.9079 44.2969 42.0522 44.3454C42.2168 44.4059 42.4068 44.4714 42.6223 44.5416C42.837 44.6153 43.0447 44.7078 43.2432 44.8179C43.4246 44.9175 43.5791 45.0597 43.6935 45.2323C43.8145 45.4324 43.8739 45.6637 43.8641 45.8974C43.8662 46.1329 43.8034 46.3643 43.6826 46.5663C43.5525 46.7789 43.3649 46.9503 43.1415 47.0606C42.866 47.1953 42.5621 47.2614 42.2555 47.2533Z" fill="#28285B"/>
<path d="M6.60139 54.8865C6.20493 54.8954 5.81384 54.7934 5.4721 54.592C5.15241 54.4019 4.89209 54.1262 4.72046 53.796C4.54102 53.4088 4.44806 52.987 4.44806 52.5601C4.44806 52.1333 4.54102 51.7115 4.72046 51.3243C4.89812 50.9731 5.17289 50.6803 5.51204 50.481C5.88346 50.2701 6.30526 50.1646 6.73211 50.1757C7.20613 50.1574 7.67341 50.2926 8.06473 50.561C8.41821 50.8144 8.66531 51.1899 8.75828 51.6151H7.82145C7.76173 51.411 7.63347 51.2338 7.45833 51.1135C7.24631 50.9853 7.0014 50.9221 6.75389 50.9317C6.55576 50.9198 6.35749 50.9529 6.1739 51.0284C5.9903 51.1039 5.82612 51.22 5.6936 51.3679C5.43163 51.7092 5.30257 52.1343 5.33049 52.5638C5.30184 52.9867 5.43126 53.4051 5.6936 53.7378C5.81727 53.8753 5.96934 53.9843 6.13926 54.0571C6.30918 54.1299 6.49288 54.1648 6.67764 54.1595C6.85237 54.1701 7.02733 54.1431 7.19079 54.0804C7.35425 54.0177 7.50243 53.9207 7.62537 53.796C7.83569 53.5525 7.9629 53.2482 7.98848 52.9273H6.84104V52.2984H8.8418V54.8174H8.072L7.98848 54.214C7.848 54.4259 7.65708 54.5995 7.43292 54.7193C7.17281 54.8399 6.88786 54.8972 6.60139 54.8865Z" fill="#28285B"/>
<path d="M9.84766 54.8174L11.5216 50.2375H12.4621L14.136 54.8174H13.2464L12.8833 53.756H11.0968L10.7337 54.8174H9.84766ZM11.3255 53.1018H12.6509L11.9828 51.1971L11.3255 53.1018Z" fill="#28285B"/>
<path d="M15.0765 54.8174V54.1595L17.1825 50.9208H15.0983V50.2193H18.1557V50.8881L16.0387 54.1268H18.1557V54.8283L15.0765 54.8174Z" fill="#28285B"/>
<path d="M19.4048 54.8174V50.2375H20.9662C21.4235 50.2201 21.8779 50.3175 22.2879 50.521C22.6225 50.6994 22.892 50.9794 23.0577 51.3207C23.2237 51.7013 23.3093 52.1121 23.3093 52.5274C23.3093 52.9427 23.2237 53.3536 23.0577 53.7342C22.892 54.0755 22.6225 54.3555 22.2879 54.5339C21.8779 54.7373 21.4235 54.8348 20.9662 54.8174H19.4048ZM20.2399 54.0904H20.9262C21.2396 54.1058 21.5517 54.0421 21.834 53.9051C22.0502 53.7865 22.2184 53.5963 22.3097 53.3671C22.5021 52.8202 22.5021 52.2238 22.3097 51.6769C22.2171 51.4476 22.0493 51.2566 21.834 51.1353C21.5524 50.9959 21.24 50.9309 20.9262 50.9463H20.2399V54.0904Z" fill="#28285B"/>
<path d="M23.9655 54.8174L25.6395 50.2375H26.5799L28.2539 54.8174H27.3534L26.9903 53.756H25.2001L24.837 54.8174H23.9655ZM25.418 53.1018H26.7433L26.0752 51.1971L25.418 53.1018Z" fill="#28285B"/>
<path d="M30.8647 54.8865C30.5591 54.8924 30.2558 54.8329 29.9751 54.712C29.7304 54.606 29.5204 54.4335 29.3687 54.214C29.2151 53.98 29.1354 53.7052 29.1399 53.4253H30.0223C30.0267 53.6281 30.1101 53.8211 30.2546 53.9632C30.412 54.0939 30.6073 54.1702 30.8115 54.1807C31.0156 54.1912 31.2177 54.1353 31.3876 54.0214C31.4515 53.9702 31.5025 53.9048 31.5366 53.8303C31.5707 53.7558 31.5868 53.6743 31.5836 53.5925C31.5882 53.5109 31.575 53.4293 31.5449 53.3534C31.5148 53.2774 31.4685 53.2089 31.4093 53.1526C31.2745 53.0373 31.1176 52.9507 30.9482 52.8982L30.3527 52.7056C30.0508 52.6133 29.7747 52.4515 29.5466 52.233C29.452 52.1299 29.3789 52.009 29.3315 51.8773C29.2842 51.7457 29.2634 51.6059 29.2706 51.4661C29.2592 51.2189 29.3266 50.9745 29.4631 50.7682C29.5998 50.5707 29.7883 50.4148 30.0077 50.3175C30.2618 50.2105 30.5346 50.1554 30.8102 50.1554C31.0858 50.1554 31.3586 50.2105 31.6127 50.3175C31.834 50.4169 32.0237 50.5753 32.161 50.7755C32.297 50.9842 32.3702 51.2277 32.3716 51.477H31.4747C31.4707 51.3154 31.4043 51.1617 31.2895 51.0481C31.2234 50.9841 31.1447 50.9347 31.0584 50.9027C30.9721 50.8708 30.8802 50.8572 30.7884 50.8627C30.6239 50.8539 30.4613 50.9013 30.3273 50.9972C30.2652 51.0452 30.2158 51.1078 30.1835 51.1794C30.1512 51.2511 30.137 51.3295 30.1421 51.4079C30.1389 51.4754 30.1503 51.5427 30.1753 51.6054C30.2004 51.6681 30.2386 51.7247 30.2873 51.7714C30.4019 51.8717 30.5352 51.9483 30.6795 51.9968C30.8441 52.0573 31.0341 52.1228 31.2496 52.193C31.4642 52.2667 31.672 52.3592 31.8705 52.4693C32.0506 52.5694 32.2038 52.7115 32.3171 52.8837C32.4382 53.0838 32.4975 53.3151 32.4878 53.5489C32.4899 53.7843 32.4271 54.0157 32.3062 54.2177C32.1762 54.4303 31.9886 54.6017 31.7652 54.712C31.4837 54.8428 31.1746 54.9027 30.8647 54.8865Z" fill="#28285B"/>
<path d="M33.4064 54.8174L35.0804 50.2375H36.0209L37.6948 54.8174H36.8052L36.4421 53.756H34.6664L34.3033 54.8174H33.4064ZM34.8843 53.1017H36.2097L35.5415 51.1971L34.8843 53.1017ZM35.2256 49.9758V49.3869L36.7035 48.5872V49.267L35.2256 49.9758Z" fill="#28285B"/>
<path d="M40.5234 54.8865C40.127 54.8954 39.7359 54.7934 39.3942 54.5921C39.0708 54.3952 38.8101 54.1103 38.6425 53.7706C38.4628 53.3834 38.3698 52.9616 38.3698 52.5347C38.3698 52.1078 38.4628 51.686 38.6425 51.2989C38.8202 50.9476 39.095 50.6549 39.4341 50.4556C39.8109 50.2459 40.238 50.1441 40.6687 50.1611C41.1427 50.1429 41.61 50.278 42.0013 50.5464C42.3543 50.8038 42.599 51.1834 42.6876 51.6115H41.758C41.6986 51.4073 41.5703 51.23 41.3949 51.1098C41.183 50.9815 40.938 50.9183 40.6905 50.9281C40.4923 50.9162 40.2941 50.9492 40.1105 51.0248C39.9269 51.1003 39.7627 51.2164 39.6302 51.3643C39.3682 51.7056 39.2392 52.1306 39.2671 52.5602C39.2384 52.9831 39.3678 53.4015 39.6302 53.7342C39.7565 53.8728 39.9118 53.9818 40.0851 54.0534C40.2583 54.125 40.4452 54.1575 40.6324 54.1486C40.8035 54.1609 40.9752 54.1372 41.1366 54.079C41.2979 54.0207 41.4453 53.9293 41.5692 53.8106C41.7897 53.5646 41.9236 53.2531 41.9505 52.9237H40.7922V52.2948H42.7929V54.8138H42.0231L41.9577 54.2104C41.8173 54.4223 41.6263 54.5959 41.4022 54.7156C41.1281 54.8451 40.826 54.9038 40.5234 54.8865Z" fill="#28285B"/>
<path d="M7.40027 62.4506V57.8707H8.23543V59.7208L9.92754 57.8707H10.9588L9.27394 59.6881L11.006 62.4506H9.98201L8.6748 60.3388L8.23543 60.8149V62.4579L7.40027 62.4506Z" fill="#28285B"/>
<path d="M13.8855 62.5197C13.4662 62.529 13.0522 62.4248 12.6872 62.218C12.348 62.0201 12.0702 61.732 11.8847 61.3856C11.693 61.0025 11.5932 60.58 11.5932 60.1516C11.5932 59.7231 11.693 59.3006 11.8847 58.9175C12.0702 58.5712 12.348 58.2831 12.6872 58.0852C13.0559 57.8879 13.4674 57.7847 13.8855 57.7847C14.3035 57.7847 14.7151 57.8879 15.0837 58.0852C15.4238 58.282 15.7018 58.5704 15.8862 58.9175C16.0757 59.3012 16.1743 59.7235 16.1743 60.1516C16.1743 60.5796 16.0757 61.0019 15.8862 61.3856C15.7018 61.7328 15.4238 62.0212 15.0837 62.218C14.7186 62.4244 14.3047 62.5287 13.8855 62.5197ZM13.8855 61.7673C14.0802 61.7759 14.2745 61.7416 14.4545 61.6668C14.6346 61.5921 14.7961 61.4787 14.9276 61.3347C15.1806 60.9916 15.3171 60.5763 15.3171 60.1498C15.3171 59.7232 15.1806 59.308 14.9276 58.9648C14.6501 58.6889 14.2748 58.534 13.8837 58.534C13.4925 58.534 13.1172 58.6889 12.8397 58.9648C12.5845 59.307 12.4466 59.7227 12.4466 60.1498C12.4466 60.5768 12.5845 60.9925 12.8397 61.3347C12.9697 61.4832 13.1308 61.6013 13.3116 61.6804C13.4923 61.7596 13.6883 61.7979 13.8855 61.7927V61.7673ZM13.2972 57.4054C13.204 57.4046 13.114 57.3714 13.0425 57.3116C12.971 57.2518 12.9224 57.169 12.905 57.0773C12.8876 56.9857 12.9024 56.8908 12.947 56.8089C12.9916 56.727 13.0632 56.6631 13.1496 56.628C13.236 56.593 13.3318 56.589 13.4208 56.6168C13.5098 56.6445 13.5864 56.7023 13.6377 56.7802C13.6889 56.8582 13.7115 56.9515 13.7018 57.0443C13.692 57.137 13.6504 57.2236 13.5841 57.2891C13.5489 57.3316 13.5052 57.3662 13.4557 57.3906C13.4063 57.415 13.3523 57.4288 13.2972 57.4309V57.4054ZM14.4737 57.4054C14.3805 57.4046 14.2905 57.3714 14.219 57.3116C14.1475 57.2518 14.0989 57.169 14.0815 57.0773C14.064 56.9857 14.0789 56.8908 14.1235 56.8089C14.1681 56.727 14.2397 56.6631 14.3261 56.628C14.4125 56.593 14.5083 56.589 14.5973 56.6168C14.6863 56.6445 14.7629 56.7023 14.8141 56.7802C14.8654 56.8582 14.888 56.9515 14.8783 57.0443C14.8685 57.137 14.8269 57.2236 14.7606 57.2891C14.7254 57.3316 14.6817 57.3662 14.6322 57.3906C14.5828 57.415 14.5288 57.4288 14.4737 57.4309V57.4054Z" fill="#28285B"/>
<path d="M17.2624 62.4506V61.7927L19.3684 58.5541H17.2842V57.8525H20.3343V58.5214L18.2174 61.76H20.3343V62.4615L17.2624 62.4506Z" fill="#28285B"/>
<path d="M21.5908 62.4506V57.8707H23.2829C23.5955 57.8594 23.9064 57.9217 24.1907 58.0525C24.4172 58.162 24.6047 58.3383 24.7281 58.5577C24.8497 58.7803 24.9111 59.031 24.906 59.2847C24.9083 59.5279 24.8496 59.7679 24.7353 59.9826C24.6136 60.2015 24.4288 60.3788 24.2052 60.4914C23.9182 60.6306 23.6015 60.6968 23.2829 60.6841H22.4259V62.4579L21.5908 62.4506ZM22.4259 59.9971H23.2393C23.467 60.0188 23.6941 59.9495 23.8711 59.8045C23.9365 59.7338 23.9872 59.6508 24.0202 59.5603C24.0532 59.4698 24.068 59.3736 24.0636 59.2774C24.069 59.18 24.0547 59.0824 24.0216 58.9906C23.9886 58.8989 23.9374 58.8147 23.8711 58.7431C23.6941 58.598 23.467 58.5288 23.2393 58.5504H22.4259V59.9971Z" fill="#28285B"/>
<path d="M28.1922 62.5197C27.7729 62.529 27.3589 62.4248 26.9939 62.218C26.6547 62.0201 26.3769 61.732 26.1914 61.3856C25.9997 61.0026 25.8999 60.58 25.8999 60.1516C25.8999 59.7231 25.9997 59.3006 26.1914 58.9175C26.3769 58.5712 26.6547 58.283 26.9939 58.0852C27.3626 57.8879 27.7741 57.7847 28.1922 57.7847C28.6102 57.7847 29.0218 57.8879 29.3904 58.0852C29.7305 58.282 30.0085 58.5704 30.1929 58.9175C30.3824 59.3012 30.481 59.7235 30.481 60.1516C30.481 60.5796 30.3824 61.0019 30.1929 61.3856C30.0085 61.7328 29.7305 62.0212 29.3904 62.218C29.0253 62.4245 28.6114 62.5287 28.1922 62.5197ZM28.1922 61.7673C28.3869 61.7759 28.5812 61.7416 28.7612 61.6668C28.9413 61.5921 29.1028 61.4787 29.2343 61.3347C29.4873 60.9916 29.6238 60.5763 29.6238 60.1498C29.6238 59.7232 29.4873 59.308 29.2343 58.9648C28.9568 58.6889 28.5815 58.534 28.1904 58.534C27.7992 58.534 27.4239 58.6889 27.1464 58.9648C26.8912 59.307 26.7533 59.7227 26.7533 60.1498C26.7533 60.5768 26.8912 60.9925 27.1464 61.3347C27.2764 61.4832 27.4375 61.6013 27.6183 61.6804C27.799 61.7596 27.995 61.7979 28.1922 61.7927V61.7673Z" fill="#28285B"/>
<path d="M31.7071 62.4506V57.8707H32.5423L34.6919 61.0948V57.8707H35.527V62.4506H34.6919L32.5459 59.2483V62.4688L31.7071 62.4506Z" fill="#28285B"/>
<path d="M37.9744 62.4506V58.5431H36.6418V57.8707H40.1531V58.5431H38.8132V62.4506H37.9744Z" fill="#28285B"/>
<path d="M28.2793 66.6889H19.285V67.4631H28.2793V66.6889Z" fill="#27295B"/>
<path d="M26.7647 18.3201L15.0204 30.0764L15.5673 30.6238L27.3116 18.8676L26.7647 18.3201Z" fill="#27295B"/>
<path d="M28.6373 20.1957L16.8931 31.952L17.44 32.4995L29.1842 20.7432L28.6373 20.1957Z" fill="#27295B"/>
<path d="M26.1591 19.7088L25.6122 20.2562L27.4173 22.0631L27.9642 21.5156L26.1591 19.7088Z" fill="#27295B"/>
<path d="M24.8483 21.0156L24.3014 21.5631L26.1064 23.37L26.6533 22.8225L24.8483 21.0156Z" fill="#27295B"/>
<path d="M23.5338 22.3349L22.9869 22.8823L24.792 24.6892L25.3389 24.1417L23.5338 22.3349Z" fill="#27295B"/>
<path d="M22.2367 23.6645L21.662 24.1827L23.3728 26.084L23.9475 25.5659L22.2367 23.6645Z" fill="#27295B"/>
<path d="M20.7464 24.7974L20.1995 25.3448L22.0045 27.1517L22.5514 26.6043L20.7464 24.7974Z" fill="#27295B"/>
<path d="M19.4356 26.1115L18.8887 26.659L20.6937 28.4658L21.2406 27.9184L19.4356 26.1115Z" fill="#27295B"/>
<path d="M18.1211 27.4271L17.5742 27.9746L19.3792 29.7815L19.9261 29.234L18.1211 27.4271Z" fill="#27295B"/>
<path d="M16.8103 28.7376L16.2634 29.2851L18.0684 31.0919L18.6153 30.5445L16.8103 28.7376Z" fill="#27295B"/>
</svg>