<svg id="Layer_1" data-name="Layer 1" xmlns="http://www.w3.org/2000/svg" viewBox="0 0 654 39">
  <title>logotype</title>
  <g>
    <path d="M10.86,39.27a12.47,12.47,0,0,1-5.56-1.16,8.66,8.66,0,0,1-3.65-3.23A8.94,8.94,0,0,1,.37,30.07H4a6.38,6.38,0,0,0,.79,3.13,5.8,5.8,0,0,0,2.3,2.28,7.57,7.57,0,0,0,3.75.85,6.72,6.72,0,0,0,4.56-1.41A4.48,4.48,0,0,0,17,31.39a4.76,4.76,0,0,0-.75-2.8,5.59,5.59,0,0,0-2-1.72,16.76,16.76,0,0,0-2.9-1.16Q9.74,25.21,8,24.59a12.22,12.22,0,0,1-5-2.88,6.3,6.3,0,0,1-1.62-4.5,7.4,7.4,0,0,1,1.08-4.13,7.61,7.61,0,0,1,3.17-2.82,10.87,10.87,0,0,1,4.87-1,10.6,10.6,0,0,1,4.83,1,7.83,7.83,0,0,1,3.19,2.86,8,8,0,0,1,1.18,4.15H16a5.07,5.07,0,0,0-.62-2.38A4.86,4.86,0,0,0,13.54,13a6.15,6.15,0,0,0-3.17-.75,5.74,5.74,0,0,0-3.88,1.2A4.21,4.21,0,0,0,5,16.88,3.74,3.74,0,0,0,6,19.74a8,8,0,0,0,3,1.64l4.4,1.47a21.23,21.23,0,0,1,3.73,1.74,7.35,7.35,0,0,1,2.59,2.57,7.81,7.81,0,0,1,.93,4,7.64,7.64,0,0,1-1.08,3.92,8,8,0,0,1-3.26,3A11.5,11.5,0,0,1,10.86,39.27Z" style="fill: #27295b"/>
    <path d="M24.76,38.78V36L39.06,12.77H25v-3H43.13v2.74L28.78,35.75H43.29v3Z" style="fill: #27295b"/>
    <path d="M61,39.27a14.5,14.5,0,0,1-7.49-1.89,13.12,13.12,0,0,1-5-5.29,16.47,16.47,0,0,1-1.8-7.84,16.35,16.35,0,0,1,1.8-7.82,13.31,13.31,0,0,1,5-5.29A14.39,14.39,0,0,1,61,9.25a14.48,14.48,0,0,1,7.53,1.91,13.16,13.16,0,0,1,5,5.29,16.51,16.51,0,0,1,1.78,7.82,16.63,16.63,0,0,1-1.78,7.84,13,13,0,0,1-5,5.29A14.59,14.59,0,0,1,61,39.27Zm0-3.07a10.86,10.86,0,0,0,5.62-1.43,9.71,9.71,0,0,0,3.77-4.11,14.1,14.1,0,0,0,1.35-6.41,14,14,0,0,0-1.35-6.39,9.74,9.74,0,0,0-3.77-4.08,11.75,11.75,0,0,0-11.24,0,9.73,9.73,0,0,0-3.77,4.08,14,14,0,0,0-1.35,6.39,14.09,14.09,0,0,0,1.35,6.41,9.71,9.71,0,0,0,3.77,4.11A10.85,10.85,0,0,0,61,36.2Z" style="fill: #27295b"/>
    <path d="M80.7,38.78v-29h3.48V36H97.7v2.78Z" style="fill: #27295b"/>
    <path d="M102.89,38.78v-29h3.48v29Z" style="fill: #27295b"/>
    <path d="M112.92,38.78v-29h8.92q7.67,0,11.3,3.9t3.63,10.7q0,6.68-3.63,10.55t-11.3,3.88Zm3.48-2.9h5.35a13.93,13.93,0,0,0,6.74-1.39,7.92,7.92,0,0,0,3.59-4,16,16,0,0,0,1.08-6.16,16.39,16.39,0,0,0-1.08-6.26,8,8,0,0,0-3.59-4,13.77,13.77,0,0,0-6.74-1.41h-5.35Z" style="fill: #27295b"/>
    <path d="M138.3,38.78l10.7-29h3.69l10.66,29h-3.69L157,31.31H144.65L142,38.78Zm7.38-10.28H156l-5.14-14.35ZM149,8V5.43L157.71.16v3Z" style="fill: #27295b"/>
    <path d="M168.08,38.78v-29h9.37A12,12,0,0,1,183,10.87a7.31,7.31,0,0,1,3.19,3.07,9,9,0,0,1,1,4.31,8.67,8.67,0,0,1-1.47,4.93,8,8,0,0,1-4.58,3.11l6.34,12.48h-4.11l-5.89-12h-6v12Zm3.48-14.72h5.64q3.36,0,4.89-1.62a5.78,5.78,0,0,0,1.53-4.15,5.52,5.52,0,0,0-1.51-4.08q-1.51-1.51-5-1.51h-5.6Z" style="fill: #27295b"/>
    <path d="M193.09,38.78v-29h3.48v29Z" style="fill: #27295b"/>
    <path d="M212.37,39.27a12.47,12.47,0,0,1-5.56-1.16,8.66,8.66,0,0,1-3.65-3.23,8.94,8.94,0,0,1-1.29-4.81h3.65a6.38,6.38,0,0,0,.79,3.13,5.8,5.8,0,0,0,2.3,2.28,7.57,7.57,0,0,0,3.75.85,6.72,6.72,0,0,0,4.56-1.41,4.48,4.48,0,0,0,1.62-3.53,4.76,4.76,0,0,0-.75-2.8,5.59,5.59,0,0,0-2-1.72,16.76,16.76,0,0,0-2.9-1.16q-1.64-.5-3.42-1.12a12.22,12.22,0,0,1-5-2.88,6.3,6.3,0,0,1-1.62-4.5A7.4,7.4,0,0,1,204,13.08a7.61,7.61,0,0,1,3.17-2.82,10.87,10.87,0,0,1,4.87-1,10.6,10.6,0,0,1,4.83,1A7.83,7.83,0,0,1,220,13.15a8,8,0,0,1,1.18,4.15h-3.65a5.07,5.07,0,0,0-.62-2.38A4.86,4.86,0,0,0,215,13a6.15,6.15,0,0,0-3.17-.75,5.74,5.74,0,0,0-3.88,1.2,4.21,4.21,0,0,0-1.51,3.44,3.74,3.74,0,0,0,1.06,2.86,8,8,0,0,0,3,1.64l4.4,1.47a21.23,21.23,0,0,1,3.73,1.74,7.35,7.35,0,0,1,2.59,2.57,7.81,7.81,0,0,1,.93,4,7.64,7.64,0,0,1-1.08,3.92,8,8,0,0,1-3.26,3A11.5,11.5,0,0,1,212.37,39.27Z" style="fill: #27295b"/>
    <path d="M251.4,39.27a13.33,13.33,0,0,1-7.13-1.89,12.76,12.76,0,0,1-4.77-5.27,17.17,17.17,0,0,1-1.7-7.82,17.13,17.13,0,0,1,1.72-7.84,12.8,12.8,0,0,1,4.89-5.31,14.25,14.25,0,0,1,7.49-1.91A13.51,13.51,0,0,1,260,11.61a10.73,10.73,0,0,1,4.21,6.51h-4A6.68,6.68,0,0,0,257.47,14a9.46,9.46,0,0,0-5.58-1.53,10.53,10.53,0,0,0-5.56,1.43A9.6,9.6,0,0,0,242.67,18a14.24,14.24,0,0,0-1.31,6.34,14.43,14.43,0,0,0,1.29,6.34,9.64,9.64,0,0,0,3.57,4.08,9.78,9.78,0,0,0,5.31,1.43q4.64,0,7-2.72a12.33,12.33,0,0,0,2.7-7.44h-8.38V23.26h11.94V38.78H261.6L261.31,34a11.57,11.57,0,0,1-3.86,3.9A11.69,11.69,0,0,1,251.4,39.27Z" style="fill: #27295b"/>
    <path d="M268.9,38.78l10.7-29h3.69l10.66,29h-3.69l-2.65-7.46H275.24l-2.7,7.46Zm7.38-10.28h10.28l-5.14-14.35Z" style="fill: #27295b"/>
    <path d="M297.43,38.78V36l14.31-23.26h-14.1v-3H315.8v2.74L301.45,35.75H316v3Z" style="fill: #27295b"/>
    <path d="M321.28,38.78v-29h8.92q7.67,0,11.3,3.9t3.63,10.7q0,6.68-3.63,10.55t-11.3,3.88Zm3.48-2.9h5.35a13.92,13.92,0,0,0,6.74-1.39,7.92,7.92,0,0,0,3.59-4,16,16,0,0,0,1.08-6.16,16.39,16.39,0,0,0-1.08-6.26,8,8,0,0,0-3.59-4,13.77,13.77,0,0,0-6.74-1.41h-5.35Z" style="fill: #27295b"/>
    <path d="M346.66,38.78l10.7-29H361l10.66,29H368l-2.65-7.46H353l-2.7,7.46ZM354,28.49h10.28l-5.14-14.35Z" style="fill: #27295b"/>
    <path d="M385.68,39.27a12.47,12.47,0,0,1-5.56-1.16,8.66,8.66,0,0,1-3.65-3.23,8.94,8.94,0,0,1-1.29-4.81h3.65a6.38,6.38,0,0,0,.79,3.13,5.8,5.8,0,0,0,2.3,2.28,7.58,7.58,0,0,0,3.75.85,6.72,6.72,0,0,0,4.56-1.41,4.48,4.48,0,0,0,1.62-3.53,4.76,4.76,0,0,0-.75-2.8,5.6,5.6,0,0,0-2-1.72,16.75,16.75,0,0,0-2.9-1.16q-1.64-.5-3.42-1.12a12.22,12.22,0,0,1-5-2.88,6.31,6.31,0,0,1-1.62-4.5,7.4,7.4,0,0,1,1.08-4.13,7.61,7.61,0,0,1,3.17-2.82,10.88,10.88,0,0,1,4.87-1,10.59,10.59,0,0,1,4.83,1,7.83,7.83,0,0,1,3.19,2.86,8,8,0,0,1,1.18,4.15h-3.65a5.08,5.08,0,0,0-.62-2.38A4.86,4.86,0,0,0,388.36,13a6.15,6.15,0,0,0-3.17-.75,5.74,5.74,0,0,0-3.88,1.2,4.21,4.21,0,0,0-1.51,3.44,3.74,3.74,0,0,0,1.06,2.86,8,8,0,0,0,3,1.64l4.4,1.47a21.22,21.22,0,0,1,3.73,1.74,7.34,7.34,0,0,1,2.59,2.57,7.81,7.81,0,0,1,.93,4,7.65,7.65,0,0,1-1.08,3.92,8,8,0,0,1-3.26,3A11.5,11.5,0,0,1,385.68,39.27Z" style="fill: #27295b"/>
    <path d="M399,38.78l10.7-29h3.69l10.66,29h-3.69l-2.65-7.46H405.34l-2.7,7.46Zm7.38-10.28h10.28l-5.14-14.35ZM409.69,8V5.43L418.4.16v3Z" style="fill: #27295b"/>
    <path d="M439.59,39.27a13.34,13.34,0,0,1-7.13-1.89,12.76,12.76,0,0,1-4.77-5.27A17.17,17.17,0,0,1,426,24.3a17.13,17.13,0,0,1,1.72-7.84,12.81,12.81,0,0,1,4.89-5.31,14.25,14.25,0,0,1,7.49-1.91,13.51,13.51,0,0,1,8.15,2.36,10.73,10.73,0,0,1,4.21,6.51h-4A6.68,6.68,0,0,0,445.67,14a9.47,9.47,0,0,0-5.58-1.53,10.53,10.53,0,0,0-5.56,1.43A9.6,9.6,0,0,0,430.86,18a14.24,14.24,0,0,0-1.31,6.34,14.43,14.43,0,0,0,1.29,6.34,9.64,9.64,0,0,0,3.57,4.08,9.77,9.77,0,0,0,5.31,1.43q4.64,0,7-2.72a12.34,12.34,0,0,0,2.7-7.44H441V23.26H453V38.78H449.8L449.5,34a11.57,11.57,0,0,1-3.86,3.9A11.69,11.69,0,0,1,439.59,39.27Z" style="fill: #27295b"/>
    <path d="M470.32,38.78v-29h3.48V22.89L485.92,9.74h4.4L479.53,21.32l10.95,17.46h-4.23L477,24l-3.23,3.44V38.78Z" style="fill: #27295b"/>
    <path d="M506.36,39.27a14.5,14.5,0,0,1-7.49-1.89,13.12,13.12,0,0,1-5-5.29,16.47,16.47,0,0,1-1.8-7.84,16.35,16.35,0,0,1,1.8-7.82,13.3,13.3,0,0,1,5-5.29,15.72,15.72,0,0,1,15,0,13.17,13.17,0,0,1,5,5.29,16.52,16.52,0,0,1,1.78,7.82,16.64,16.64,0,0,1-1.78,7.84,13,13,0,0,1-5,5.29A14.59,14.59,0,0,1,506.36,39.27Zm0-3.07A10.85,10.85,0,0,0,512,34.77a9.72,9.72,0,0,0,3.77-4.11,14.09,14.09,0,0,0,1.35-6.41,14,14,0,0,0-1.35-6.39A9.74,9.74,0,0,0,512,13.79a11.75,11.75,0,0,0-11.24,0A9.73,9.73,0,0,0,497,17.87a14,14,0,0,0-1.35,6.39A14.09,14.09,0,0,0,497,30.67a9.7,9.7,0,0,0,3.77,4.11A10.85,10.85,0,0,0,506.36,36.2ZM503.09,6.64A2.06,2.06,0,0,1,501,4.56a2,2,0,0,1,.6-1.45,2,2,0,0,1,1.47-.62,2,2,0,0,1,1.45.62,2,2,0,0,1,.62,1.45A2,2,0,0,1,504.54,6,2,2,0,0,1,503.09,6.64Zm6.64,0a2.06,2.06,0,0,1-2.07-2.07,2,2,0,0,1,.6-1.45,2,2,0,0,1,1.47-.62,1.9,1.9,0,0,1,1.45.62,2.06,2.06,0,0,1,.58,1.45A2,2,0,0,1,511.17,6,1.93,1.93,0,0,1,509.72,6.64Z" style="fill: #27295b"/>
    <path d="M524.86,38.78V36l14.31-23.26h-14.1v-3h18.17v2.74L528.88,35.75H543.4v3Z" style="fill: #27295b"/>
    <path d="M548.7,38.78v-29h9.54a12.29,12.29,0,0,1,5.6,1.12,7.46,7.46,0,0,1,3.26,3,8.74,8.74,0,0,1,1.06,4.31,8.8,8.8,0,0,1-1,4.27,7.46,7.46,0,0,1-3.24,3,12.22,12.22,0,0,1-5.64,1.14h-6.05V38.78Zm3.48-15.05h6q3.48,0,5-1.47a5.46,5.46,0,0,0,1.47-4,5.52,5.52,0,0,0-1.47-4.08q-1.47-1.47-5-1.47h-6Z" style="fill: #27295b"/>
    <path d="M586.32,39.27a14.5,14.5,0,0,1-7.49-1.89,13.12,13.12,0,0,1-5-5.29,16.47,16.47,0,0,1-1.8-7.84,16.35,16.35,0,0,1,1.8-7.82,13.3,13.3,0,0,1,5-5.29,15.72,15.72,0,0,1,15,0,13.17,13.17,0,0,1,5,5.29,16.52,16.52,0,0,1,1.78,7.82,16.64,16.64,0,0,1-1.78,7.84,13,13,0,0,1-5,5.29A14.59,14.59,0,0,1,586.32,39.27Zm0-3.07a10.85,10.85,0,0,0,5.62-1.43,9.72,9.72,0,0,0,3.77-4.11,14.09,14.09,0,0,0,1.35-6.41,14,14,0,0,0-1.35-6.39,9.74,9.74,0,0,0-3.77-4.08,11.75,11.75,0,0,0-11.24,0,9.73,9.73,0,0,0-3.77,4.08,14,14,0,0,0-1.35,6.39,14.09,14.09,0,0,0,1.35,6.41,9.7,9.7,0,0,0,3.77,4.11A10.85,10.85,0,0,0,586.32,36.2Z" style="fill: #27295b"/>
    <path d="M606.06,38.78v-29h3.48L625,33V9.74h3.48v29H625L609.54,15.51V38.78Z" style="fill: #27295b"/>
    <path d="M641.85,38.78V12.61h-8.67V9.74H654v2.86h-8.67V38.78Z" style="fill: #27295b"/>
  </g>
</svg>
