<svg width="64" height="90" viewBox="0 0 64 90" fill="none" xmlns="http://www.w3.org/2000/svg">
<path d="M47.8969 18.8151C46.0717 16.5396 39.8939 10.1027 37.3569 7.51932L38.0928 6.80732C40.746 9.511 46.8366 15.8517 48.7006 18.1801L47.8969 18.8151Z" fill="white"/>
<path d="M44.6096 19.4646C43.1572 17.5018 39.3663 12.5803 36.1079 9.28969L36.839 8.57288C40.1457 11.9068 43.9512 16.8715 45.4327 18.8536L44.6096 19.4646Z" fill="white"/>
<path d="M42.5569 20.9511C39.2162 16.0345 36.718 12.7246 34.9702 10.834L35.7255 10.1412C37.512 12.0655 40.0248 15.4331 43.409 20.3786L42.5569 20.9511Z" fill="white"/>
<path d="M55.527 36.6681C53.7212 36.6681 50.2014 34.3156 49.1605 33.0937C48.1808 31.8332 47.5484 30.341 47.3255 28.7639C47.2036 27.3217 47.2312 25.8708 47.4078 24.4342C47.2577 24.2754 47.1077 24.1359 46.9479 23.9916C46.6326 23.718 46.3426 23.4169 46.0813 23.092C45.9312 22.8947 45.7811 22.7215 45.6407 22.5531C45.0733 22.0026 44.6897 21.2923 44.5417 20.5182C44.3335 19.2048 44.6869 18.2234 45.5438 17.7567C46.6719 17.141 48.013 17.6557 48.8893 18.3437L49.2912 18.6564C49.8963 19.0937 50.4544 19.5918 50.9567 20.1429C52.0605 21.3889 53.6873 22.9043 54.9412 23.4383L54.5394 24.4005C52.7625 23.65 50.7582 21.4851 50.182 20.8405C49.7234 20.3391 49.214 19.8861 48.6618 19.4886L48.2551 19.1711C47.6644 18.69 46.73 18.3004 46.0425 18.69C45.4664 19.0028 45.4615 19.7917 45.5584 20.3979C45.6773 20.9814 45.975 21.5141 46.4105 21.9229C46.5654 22.1009 46.7252 22.2885 46.8946 22.505C47.1207 22.7881 47.3719 23.0506 47.6451 23.2892C47.8843 23.5034 48.1121 23.7298 48.3277 23.9675L48.4778 24.1407L48.4488 24.3668C48.2534 25.7921 48.216 27.2343 48.3374 28.6677C48.5341 30.0509 49.0842 31.361 49.9351 32.4731C50.9034 33.6084 54.1811 35.6915 55.5125 35.6915H55.5416L55.5658 36.7162L55.527 36.6681Z" fill="white"/>
<path d="M64 49.1329H48.5894V48.6133C48.6546 46.0518 48.5332 43.489 48.2263 40.9449C48.1634 40.281 46.9239 38.3759 45.9266 36.8413C45.2536 35.8069 44.5564 34.7341 44.1013 33.8922C43.3122 32.449 42.6489 29.803 41.9614 27.2629C41.3901 25.0163 40.7801 22.6926 40.1845 21.5669C39.8021 20.8453 34.733 13.5136 33.8276 12.4264L34.6168 11.7721C35.4641 12.792 40.6154 20.2055 41.0899 21.0858C41.7435 22.3222 42.339 24.5929 42.9684 27.0031C43.622 29.4855 44.2902 32.0497 45.0261 33.4063C45.4618 34.2146 46.1445 35.2681 46.8077 36.2928C48.2602 38.5635 49.1849 40.002 49.2672 40.8535C49.5546 43.264 49.6808 45.6907 49.6449 48.1178H62.9736C62.9736 43.3599 62.6298 35.3451 60.8869 31.28C59.4005 27.8306 54.8011 19.2529 52.4287 16.5925C51.1845 15.1974 40.5186 5.09947 37.9042 3.7332L37.7928 3.67547C37.6768 3.59628 37.5356 3.56205 37.3958 3.57925V2.56417C37.7088 2.54365 38.0203 2.62104 38.2867 2.78547L38.3883 2.83839C41.2933 4.3538 52.2012 14.8125 53.1937 15.9238C55.7791 18.8103 60.5189 27.8498 61.831 30.8855C63.7095 35.2441 64 43.8747 64 48.6181V49.1329Z" fill="white"/>
<path d="M14.4179 49.1329H0.0240591V48.6518C-0.135711 42.6431 0.91974 34.051 3.17589 29.9185C5.70316 25.2857 9.88623 19.8158 14.3646 15.2455L14.8488 14.7644C17.98 11.4782 21.297 8.37179 24.7836 5.46028C24.8078 5.46028 27.4948 3.30503 28.9086 3.85828L28.5309 4.82044C28.0468 4.63763 26.3668 5.48434 25.4469 6.26369C21.9863 9.14627 18.6936 12.2221 15.5847 15.4764L15.1005 15.9575C10.6851 20.446 6.56979 25.8485 4.08125 30.39C2.04781 34.1328 0.968155 42.2053 1.03109 48.1082H13.4205C13.4205 47.9286 13.4205 47.7474 13.4205 47.5646C13.5513 43.0809 13.6965 37.9959 18.2621 35.7203C20.1317 34.7292 21.8688 33.5089 23.4328 32.0882C23.733 31.8332 24.0138 31.6071 24.2704 31.381C26.2893 29.7261 28.008 27.1715 29.262 25.3049C29.747 24.5368 30.2772 23.7979 30.85 23.0919C31.0291 22.8947 31.2518 22.6734 31.4939 22.4377C32.254 21.692 33.203 20.7683 33.1642 19.9457C33.1395 19.74 33.0705 19.542 32.9619 19.3652C32.8533 19.1884 32.7076 19.0369 32.5348 18.921C31.2567 17.8914 26.207 22.1683 24.5463 23.573C23.8879 24.1311 23.4522 24.5015 23.2004 24.6603L22.5855 23.8424C27.2285 19.8398 34.0648 11.5171 37.4345 6.88428C37.9077 6.34204 38.2401 5.69293 38.4028 4.99363C38.4754 4.45001 38.2188 3.77168 37.7153 3.62255C37.4666 3.55998 37.2057 3.56396 36.9591 3.6341C36.7125 3.70424 36.4889 3.83802 36.3112 4.02185C35.1009 5.2919 33.9921 6.49461 32.9222 7.66364C29.9191 11.0743 26.6489 14.2433 23.1423 17.141L22.4887 16.3568C25.9604 13.4903 29.1982 10.3551 32.1717 6.9805C33.2514 5.80666 34.3698 4.57509 35.5947 3.31947C35.9018 3.0042 36.2883 2.77637 36.714 2.65963C37.1397 2.54289 37.589 2.54149 38.0154 2.65557C39.0709 2.96347 39.5647 4.16136 39.434 5.14277C39.2427 6.01025 38.8348 6.81595 38.2478 7.48564C36.0643 10.4924 32.438 15.0386 28.8601 18.9787C30.6515 17.877 32.2153 17.3671 33.1642 18.1464C33.4514 18.35 33.6904 18.6135 33.8643 18.9185C34.0383 19.2235 34.143 19.5626 34.1713 19.912C34.2294 21.1869 33.1013 22.2885 32.1959 23.1785C31.9732 23.395 31.765 23.5971 31.6004 23.7847C31.0608 24.4536 30.5597 25.1523 30.0996 25.8774C28.8117 27.8017 27.0446 30.4236 24.9095 32.1748C24.6529 32.3816 24.3817 32.6174 24.0864 32.8675C22.4743 34.3379 20.6855 35.6047 18.7607 36.6392C14.7277 38.6453 14.5922 43.4032 14.4711 47.5983C14.4711 47.9495 14.4711 48.2958 14.4373 48.6374L14.4179 49.1329Z" fill="white"/>
<path d="M33.6628 1.76075C33.5117 1.61275 33.3298 1.49944 33.1298 1.42879C32.9299 1.35814 32.7169 1.33188 32.5056 1.35183C31.3921 1.40475 30.3318 2.42946 29.5475 3.21843C25.742 7.03341 24.2218 9.15017 19.0269 13.6098" fill="white"/>
<path d="M19.3658 13.9947L18.688 13.2201C21.2826 11.0178 23.7341 8.65412 26.0277 6.14342C26.996 5.13314 27.9643 4.08438 29.1795 2.86244C30.1478 1.87622 31.2323 0.909243 32.4766 0.846703C32.7672 0.822003 33.0596 0.862824 33.332 0.966117C33.6045 1.06941 33.85 1.23251 34.0501 1.44324L33.2755 2.11676C33.1759 2.02598 33.0576 1.95786 32.9288 1.91715C32.8001 1.87644 32.6639 1.86411 32.5299 1.88103C31.5616 1.92433 30.5352 2.96827 29.9106 3.59368C28.7002 4.80601 27.7222 5.84996 26.7782 6.85542C24.4616 9.38833 21.9858 11.7729 19.3658 13.9947Z" fill="white"/>
<path d="M21.4913 14.9135L20.8184 14.1149C24.343 11.1563 27.185 8.12548 30.1915 4.91666C31.1598 3.90158 32.1281 2.87687 33.0964 1.85217C33.934 0.986218 35.0282 0 36.1466 0H36.1756C36.433 0.00489753 36.6863 0.0645414 36.9184 0.174913C37.1506 0.285285 37.3563 0.443821 37.5216 0.639839C38.4899 1.70784 37.7298 2.95384 37.478 3.36276L36.6017 2.82876C36.9697 2.22741 37.1391 1.74152 36.7566 1.32298C36.6851 1.23332 36.5947 1.16021 36.4919 1.10871C36.3891 1.0572 36.2762 1.02854 36.1611 1.0247C35.614 1.0247 34.8345 1.53465 33.8469 2.55936C32.8592 3.58406 31.9103 4.60396 30.942 5.61423C27.9257 8.8471 25.0644 11.8972 21.4913 14.9135Z" fill="white"/>
<path d="M6.85525 62.5407C6.44782 62.5485 6.04341 62.4698 5.66908 62.3097C5.33763 62.1764 5.0507 61.953 4.84118 61.6651C4.64232 61.3519 4.5428 60.9865 4.55553 60.6163H5.73202C5.73843 60.8846 5.84954 61.1399 6.04187 61.3283C6.14991 61.4284 6.2773 61.5056 6.41629 61.5552C6.55529 61.6048 6.70298 61.6259 6.85041 61.617C7.10369 61.6307 7.35381 61.5558 7.55727 61.4053C7.64251 61.3376 7.71058 61.251 7.75599 61.1524C7.8014 61.0538 7.82288 60.946 7.81871 60.8376C7.82477 60.7297 7.80712 60.6217 7.76699 60.5212C7.72686 60.4206 7.66521 60.33 7.58632 60.2555C7.40662 60.1028 7.19737 59.9882 6.97144 59.9188L6.14839 59.6542C5.74591 59.5319 5.37782 59.3177 5.07357 59.0288C4.94662 58.8927 4.84827 58.7328 4.78426 58.5585C4.72024 58.3842 4.69186 58.199 4.70077 58.0137C4.68558 57.6865 4.77544 57.3631 4.95737 57.09C5.14011 56.829 5.39126 56.6227 5.6836 56.4935C6.01882 56.3464 6.38239 56.2742 6.74873 56.2818C7.11866 56.2746 7.48564 56.3485 7.82355 56.4983C8.1186 56.6298 8.37152 56.8396 8.55462 57.1044C8.73627 57.3806 8.83378 57.703 8.83543 58.0329H7.64926C7.64388 57.8191 7.55539 57.6157 7.40234 57.4652C7.31429 57.3804 7.20939 57.3148 7.09434 57.2725C6.97929 57.2303 6.85663 57.2123 6.73421 57.2199C6.51487 57.2082 6.29804 57.271 6.11934 57.3979C6.03653 57.4615 5.97071 57.5443 5.92765 57.6391C5.8846 57.7339 5.86563 57.8377 5.87242 57.9415C5.86823 58.0308 5.88335 58.1199 5.91675 58.2029C5.95016 58.2859 6.00108 58.3608 6.06608 58.4226C6.21881 58.5554 6.39654 58.6568 6.58896 58.7209C6.80845 58.8011 7.06182 58.8876 7.34908 58.9807C7.63531 59.0782 7.91234 59.2005 8.17698 59.3463C8.41893 59.478 8.62498 59.6662 8.77733 59.8947C8.93871 60.1595 9.01786 60.4658 9.00488 60.7751C9.00743 61.0866 8.92368 61.3929 8.7628 61.6603C8.58939 61.9417 8.33926 62.1686 8.04142 62.3146C7.67011 62.4837 7.26319 62.5613 6.85525 62.5407Z" fill="white"/>
<path d="M10.4478 62.4493V61.5785L13.2558 57.2921H10.472V56.3636H14.5243V57.2488L11.7017 61.5352H14.5437V62.4637L10.4478 62.4493Z" fill="white"/>
<path d="M18.8816 62.5407C18.3225 62.553 17.7705 62.4151 17.2839 62.1414C16.8316 61.8795 16.4612 61.4981 16.2139 61.0397C15.9583 60.5327 15.8252 59.9735 15.8252 59.4064C15.8252 58.8394 15.9583 58.2801 16.2139 57.7732C16.4612 57.3147 16.8316 56.9334 17.2839 56.6715C17.7754 56.4104 18.3242 56.2738 18.8816 56.2738C19.4389 56.2738 19.9877 56.4104 20.4793 56.6715C20.9326 56.932 21.3033 57.3137 21.5492 57.7732C21.8019 58.281 21.9334 58.8399 21.9334 59.4064C21.9334 59.973 21.8019 60.5319 21.5492 61.0397C21.3033 61.4992 20.9326 61.8809 20.4793 62.1414C19.9924 62.4146 19.4405 62.5526 18.8816 62.5407ZM18.8816 61.5785C19.1412 61.5899 19.4002 61.5445 19.6403 61.4456C19.8804 61.3467 20.0957 61.1966 20.2711 61.006C20.6084 60.5518 20.7904 60.0022 20.7904 59.4377C20.7904 58.8732 20.6084 58.3236 20.2711 57.8694C19.901 57.5042 19.4007 57.2993 18.8791 57.2993C18.3576 57.2993 17.8572 57.5042 17.4872 57.8694C17.1469 58.3223 16.9631 58.8725 16.9631 59.4377C16.9631 60.0029 17.1469 60.553 17.4872 61.006C17.6637 61.1965 17.8799 61.3464 18.1208 61.4452C18.3616 61.5441 18.6212 61.5896 18.8816 61.5785Z" fill="white"/>
<path d="M23.5876 62.4492V56.3876H24.6915V61.5785H27.3931V62.4444L23.5876 62.4492Z" fill="white"/>
<path d="M29.0488 62.4492V56.3876H30.1624V62.4492H29.0488Z" fill="white"/>
<path d="M31.9971 62.4492V56.3876H34.0789C34.6842 56.3685 35.2848 56.4991 35.8267 56.7677C36.2728 57.0038 36.6321 57.3744 36.8531 57.8261C37.0744 58.3298 37.1886 58.8736 37.1886 59.4232C37.1886 59.9729 37.0744 60.5167 36.8531 61.0204C36.6288 61.465 36.2698 61.8284 35.8267 62.0596C35.28 62.3289 34.6742 62.4579 34.0644 62.4348L31.9971 62.4492ZM33.1106 61.4871H34.0257C34.4435 61.5075 34.8597 61.4231 35.2361 61.2417C35.5243 61.0849 35.7486 60.8331 35.8703 60.5297C36.1268 59.8058 36.1268 59.0166 35.8703 58.2927C35.7468 57.9892 35.5232 57.7364 35.2361 57.5759C34.8606 57.3915 34.444 57.3054 34.0257 57.3257H33.1155L33.1106 61.4871Z" fill="white"/>
<path d="M38.0635 62.4493L40.2954 56.3876H41.5494L43.7813 62.4493H42.6048L42.1207 61.0445H39.729L39.2448 62.4493H38.0635ZM40.034 60.1786H41.8011L40.9103 57.6577L40.034 60.1786ZM40.4891 56.0413V55.2619L42.4596 54.2035V55.1031L40.4891 56.0413Z" fill="white"/>
<path d="M45.2195 62.4493V56.3876H47.4466C47.8624 56.372 48.2759 56.4562 48.6521 56.633C48.9513 56.7802 49.1992 57.0131 49.3638 57.3017C49.5222 57.5857 49.6039 57.9055 49.601 58.2302C49.6048 58.5893 49.5039 58.9418 49.3106 59.2453C49.0956 59.5675 48.7734 59.8042 48.4004 59.914L49.664 62.4493H48.4149L47.282 60.0439H46.333V62.4493H45.2195ZM46.333 59.2453H47.3885C47.5361 59.2575 47.6847 59.2399 47.8253 59.1936C47.9659 59.1473 48.0956 59.0732 48.2067 58.9759C48.2965 58.8809 48.366 58.7689 48.4109 58.6465C48.4559 58.5241 48.4753 58.3939 48.4681 58.2639C48.4734 58.1373 48.4534 58.0109 48.4094 57.8921C48.3653 57.7732 48.2981 57.6641 48.2115 57.5711C48.0971 57.475 47.9645 57.4025 47.8215 57.3579C47.6785 57.3133 47.528 57.2975 47.3788 57.3113H46.333V59.2453Z" fill="white"/>
<path d="M51.3198 62.4492V56.3876H52.4334V62.4492H51.3198Z" fill="white"/>
<path d="M56.3405 62.5406C55.9331 62.5485 55.5286 62.4698 55.1543 62.3097C54.8281 62.1694 54.548 61.9411 54.3458 61.6506C54.141 61.3409 54.0348 60.9772 54.0408 60.6067H55.193C55.199 60.8751 55.3101 61.1306 55.5029 61.3187C55.7126 61.4917 55.9731 61.5927 56.2453 61.6066C56.5175 61.6204 56.787 61.5465 57.0135 61.3957C57.0987 61.328 57.1668 61.2414 57.2122 61.1428C57.2576 61.0442 57.2791 60.9364 57.2749 60.828C57.281 60.72 57.2633 60.612 57.2232 60.5115C57.183 60.411 57.1214 60.3204 57.0425 60.2459C56.8627 60.0933 56.6535 59.9787 56.4276 59.9091L55.6094 59.6301C55.2069 59.508 54.8387 59.2938 54.5346 59.0047C54.4085 58.8683 54.311 58.7082 54.2479 58.5339C54.1847 58.3597 54.1571 58.1746 54.1666 57.9896C54.1514 57.6625 54.2413 57.339 54.4232 57.066C54.6056 56.8046 54.8569 56.5982 55.1495 56.4694C55.4882 56.3278 55.852 56.2549 56.2194 56.2549C56.5869 56.2549 56.9507 56.3278 57.2894 56.4694C57.5845 56.601 57.8374 56.8107 58.0205 57.0756C58.2019 57.3518 58.2994 57.6742 58.3013 58.0041H57.1296C57.1243 57.7902 57.0358 57.5868 56.8827 57.4364C56.7945 57.3518 56.6896 57.2863 56.5746 57.2441C56.4596 57.2018 56.337 57.1838 56.2146 57.191C55.9953 57.1793 55.7784 57.2421 55.5997 57.369C55.5169 57.4326 55.4511 57.5155 55.408 57.6102C55.365 57.705 55.346 57.8089 55.3528 57.9127C55.3486 58.0019 55.3637 58.0911 55.3971 58.1741C55.4306 58.257 55.4815 58.332 55.5465 58.3937C55.6992 58.5265 55.8769 58.6279 56.0694 58.692C56.2888 58.7722 56.5422 58.8588 56.8295 58.9518C57.1157 59.0493 57.3927 59.1716 57.6574 59.3174C57.8992 59.4492 58.1052 59.6374 58.2577 59.8658C58.4191 60.1307 58.4983 60.4369 58.4853 60.7462C58.4881 61.0578 58.4043 61.3641 58.2432 61.6314C58.0698 61.9128 57.8197 62.1397 57.5218 62.2857C57.1545 62.464 56.7492 62.5515 56.3405 62.5406Z" fill="white"/>
<path d="M8.80152 72.6434C8.27291 72.6552 7.75146 72.5202 7.29581 72.2537C6.86955 72.0021 6.52246 71.6372 6.29362 71.2001C6.05436 70.6876 5.93042 70.1294 5.93042 69.5645C5.93042 68.9995 6.05436 68.4413 6.29362 67.9288C6.5305 67.4639 6.89686 67.0765 7.34907 66.8127C7.84428 66.5336 8.40669 66.3939 8.97582 66.4085C9.60785 66.3844 10.2309 66.5633 10.7527 66.9185C11.224 67.2539 11.5534 67.7509 11.6774 68.3136H10.4283C10.3486 68.0435 10.1776 67.809 9.94412 67.6497C9.66142 67.4801 9.33488 67.3964 9.00487 67.4092C8.74068 67.3934 8.47633 67.4372 8.23154 67.5371C7.98675 67.6371 7.76784 67.7907 7.59114 67.9865C7.24184 68.4382 7.06977 69.0008 7.10699 69.5693C7.06879 70.129 7.24135 70.6828 7.59114 71.1232C7.75604 71.3051 7.95879 71.4493 8.18535 71.5457C8.41191 71.642 8.65685 71.6883 8.90319 71.6812C9.13617 71.6952 9.36945 71.6595 9.5874 71.5765C9.80535 71.4936 10.0029 71.3652 10.1668 71.2001C10.4473 70.8778 10.6169 70.475 10.651 70.0503H9.12106V69.2181H11.7887V72.552H10.7623L10.651 71.7534C10.4637 72.0339 10.2091 72.2636 9.91023 72.4221C9.56343 72.5818 9.18349 72.6576 8.80152 72.6434Z" fill="white"/>
<path d="M13.1299 72.552L15.3618 66.4903H16.6158L18.8477 72.552H17.6615L17.1774 71.1472H14.7954L14.3112 72.552H13.1299ZM15.1004 70.2813H16.8675L15.9767 67.7604L15.1004 70.2813Z" fill="white"/>
<path d="M20.1016 72.552V71.6813L22.9096 67.3948H20.1306V66.4663H24.2072V67.3515L21.3846 71.638H24.2072V72.5665L20.1016 72.552Z" fill="white"/>
<path d="M25.8728 72.552V66.4903H27.9547C28.5644 66.4673 29.1703 66.5963 29.717 66.8656C30.163 67.1018 30.5224 67.4723 30.7434 67.924C30.9646 68.4277 31.0788 68.9715 31.0788 69.5212C31.0788 70.0708 30.9646 70.6146 30.7434 71.1183C30.5224 71.57 30.163 71.9406 29.717 72.1767C29.1703 72.446 28.5644 72.575 27.9547 72.552H25.8728ZM26.9864 71.5898H27.9014C28.3192 71.6102 28.7354 71.5258 29.1118 71.3445C29.4001 71.1876 29.6243 70.9358 29.746 70.6325C30.0025 69.9086 30.0025 69.1193 29.746 68.3954C29.6225 68.0919 29.3989 67.8392 29.1118 67.6786C28.7363 67.4942 28.3197 67.4081 27.9014 67.4285H26.9864V71.5898Z" fill="white"/>
<path d="M31.9536 72.552L34.1855 66.4903H35.4395L37.6714 72.552H36.4707L35.9866 71.1472H33.5997L33.1156 72.552H31.9536ZM33.8902 70.2813H35.6574L34.7665 67.7604L33.8902 70.2813Z" fill="white"/>
<path d="M41.1525 72.6434C40.7451 72.6512 40.3407 72.5725 39.9663 72.4124C39.6402 72.2721 39.3601 72.0438 39.1578 71.7534C38.9531 71.4437 38.8468 71.0799 38.8528 70.7094H40.0293C40.0352 70.9778 40.1464 71.2333 40.3391 71.4214C40.5489 71.5944 40.8093 71.6954 41.0815 71.7093C41.3538 71.7232 41.6232 71.6492 41.8497 71.4984C41.9349 71.4307 42.003 71.3441 42.0484 71.2455C42.0938 71.1469 42.1153 71.0391 42.1111 70.9307C42.1172 70.8228 42.0995 70.7148 42.0594 70.6142C42.0193 70.5137 41.9576 70.4231 41.8787 70.3486C41.699 70.196 41.4897 70.0814 41.2639 70.0119L40.4698 69.7569C40.0673 69.6348 39.6992 69.4206 39.395 69.1315C39.269 68.995 39.1715 68.835 39.1083 68.6607C39.0451 68.4864 39.0175 68.3014 39.0271 68.1164C39.0119 67.7893 39.1017 67.4658 39.2837 67.1927C39.466 66.9314 39.7173 66.725 40.0099 66.5962C40.3486 66.4546 40.7124 66.3817 41.0799 66.3817C41.4474 66.3817 41.8111 66.4546 42.1499 66.5962C42.4449 66.7278 42.6978 66.9375 42.8809 67.2024C43.0623 67.4786 43.1598 67.801 43.1617 68.1308H41.9659C41.9605 67.917 41.872 67.7136 41.719 67.5632C41.6307 67.4786 41.5258 67.4131 41.4108 67.3708C41.2958 67.3286 41.1732 67.3105 41.0508 67.3178C40.8315 67.3061 40.6147 67.3689 40.436 67.4958C40.3531 67.5594 40.2873 67.6422 40.2443 67.737C40.2012 67.8318 40.1823 67.9357 40.189 68.0394C40.1848 68.1287 40.2 68.2178 40.2334 68.3008C40.2668 68.3838 40.3177 68.4587 40.3827 68.5205C40.5354 68.6533 40.7132 68.7547 40.9056 68.8188C41.1251 68.899 41.3784 68.9856 41.6657 69.0786C41.9519 69.1761 42.229 69.2984 42.4936 69.4442C42.7337 69.5767 42.938 69.7648 43.0891 69.9926C43.2505 70.2574 43.3296 70.5637 43.3167 70.873C43.3195 71.1846 43.2357 71.4909 43.0746 71.7582C42.9012 72.0396 42.651 72.2665 42.3532 72.4124C41.9779 72.5856 41.5657 72.6648 41.1525 72.6434Z" fill="white"/>
<path d="M44.5417 72.552L46.7737 66.4904H48.0276L50.2596 72.552H49.0734L48.5893 71.1472H46.2218L45.7376 72.552H44.5417ZM46.5122 70.2813H48.2794L47.3886 67.7604L46.5122 70.2813ZM46.9673 66.144V65.3646L48.9378 64.3062V65.2059L46.9673 66.144Z" fill="white"/>
<path d="M54.0308 72.6434C53.5022 72.6552 52.9807 72.5203 52.5251 72.2537C52.0939 71.9932 51.7463 71.6161 51.5229 71.1665C51.2833 70.654 51.1592 70.0958 51.1592 69.5308C51.1592 68.9658 51.2833 68.4075 51.5229 67.8951C51.7598 67.4302 52.1261 67.0428 52.5783 66.779C53.0807 66.5015 53.6501 66.3667 54.2244 66.3893C54.8565 66.3652 55.4795 66.544 56.0013 66.8993C56.4719 67.2398 56.7981 67.7423 56.9163 68.3088H55.6769C55.5976 68.0386 55.4265 67.8039 55.1927 67.6449C54.9102 67.475 54.5835 67.3914 54.2535 67.4044C53.9893 67.3886 53.725 67.4324 53.4802 67.5323C53.2354 67.6323 53.0165 67.7859 52.8398 67.9817C52.4905 68.4334 52.3184 68.996 52.3556 69.5645C52.3174 70.1242 52.49 70.678 52.8398 71.1184C53.0082 71.3018 53.2153 71.446 53.4463 71.5408C53.6772 71.6356 53.9264 71.6786 54.176 71.6668C54.4041 71.6831 54.6331 71.6517 54.8483 71.5746C55.0634 71.4976 55.26 71.3765 55.4251 71.2194C55.7191 70.8938 55.8977 70.4815 55.9335 70.0455H54.389V69.2133H57.0567V72.5472H56.0303L55.9432 71.7486C55.7559 72.029 55.5013 72.2588 55.2024 72.4173C54.837 72.5886 54.4342 72.6664 54.0308 72.6434Z" fill="white"/>
<path d="M9.8667 82.6547V76.5931H10.9802V79.0418L13.2364 76.5931H14.6114L12.3649 78.9985L14.6743 82.6547H13.309L11.5661 79.8596L10.9802 80.4898V82.6643L9.8667 82.6547Z" fill="white"/>
<path d="M18.5136 82.7461C17.9546 82.7585 17.4026 82.6205 16.9159 82.3468C16.4637 82.0849 16.0933 81.7036 15.846 81.2451C15.5904 80.7382 15.4573 80.1789 15.4573 79.6119C15.4573 79.0448 15.5904 78.4856 15.846 77.9786C16.0933 77.5202 16.4637 77.1388 16.9159 76.8769C17.4075 76.6158 17.9563 76.4792 18.5136 76.4792C19.071 76.4792 19.6198 76.6158 20.1113 76.8769C20.5647 77.1374 20.9354 77.5191 21.1813 77.9786C21.434 78.4864 21.5655 79.0453 21.5655 79.6119C21.5655 80.1784 21.434 80.7373 21.1813 81.2451C20.9354 81.7046 20.5647 82.0863 20.1113 82.3468C19.6245 82.6201 19.0726 82.758 18.5136 82.7461ZM18.5136 81.7503C18.7733 81.7616 19.0323 81.7163 19.2724 81.6174C19.5124 81.5184 19.7278 81.3684 19.9031 81.1778C20.2405 80.7236 20.4225 80.174 20.4225 79.6095C20.4225 79.045 20.2405 78.4953 19.9031 78.0411C19.5331 77.676 19.0327 77.471 18.5112 77.471C17.9897 77.471 17.4893 77.676 17.1193 78.0411C16.779 78.4941 16.5952 79.0442 16.5952 79.6095C16.5952 80.1747 16.779 80.7248 17.1193 81.1778C17.2926 81.3744 17.5075 81.5306 17.7484 81.6353C17.9894 81.7401 18.2507 81.7908 18.5136 81.784V81.7503ZM17.7293 75.9773C17.605 75.9761 17.485 75.9322 17.3897 75.8531C17.2943 75.7739 17.2295 75.6643 17.2063 75.543C17.1831 75.4217 17.2029 75.2961 17.2624 75.1877C17.3219 75.0793 17.4173 74.9947 17.5325 74.9484C17.6477 74.902 17.7755 74.8967 17.8941 74.9335C18.0127 74.9702 18.1149 75.0466 18.1832 75.1498C18.2515 75.253 18.2817 75.3765 18.2687 75.4993C18.2557 75.6221 18.2002 75.7366 18.1118 75.8233C18.0649 75.8796 18.0066 75.9253 17.9407 75.9577C17.8748 75.99 17.8027 76.0081 17.7293 76.011V75.9773ZM19.298 75.9773C19.1737 75.9761 19.0537 75.9322 18.9583 75.8531C18.8629 75.7739 18.7981 75.6643 18.7749 75.543C18.7517 75.4217 18.7716 75.2961 18.831 75.1877C18.8905 75.0793 18.986 74.9947 19.1011 74.9484C19.2163 74.902 19.3441 74.8967 19.4628 74.9335C19.5814 74.9702 19.6836 75.0466 19.7519 75.1498C19.8202 75.253 19.8504 75.3765 19.8374 75.4993C19.8243 75.6221 19.7689 75.7366 19.6804 75.8233C19.6335 75.8796 19.5752 75.9253 19.5093 75.9577C19.4434 75.99 19.3714 76.0081 19.298 76.011V75.9773Z" fill="white"/>
<path d="M23.0164 82.6547V81.784L25.8244 77.4975H23.0454V76.5691H27.1123V77.4542L24.2897 81.7407H27.1123V82.6691L23.0164 82.6547Z" fill="white"/>
<path d="M28.7874 82.6547V76.5931H31.0435C31.4603 76.5781 31.8749 76.6605 32.2539 76.8336C32.5559 76.9786 32.8059 77.2119 32.9704 77.5023C33.1327 77.797 33.2144 78.1287 33.2077 78.4645C33.2108 78.7865 33.1325 79.104 32.9801 79.3882C32.8177 79.678 32.5715 79.9126 32.2733 80.0617C31.8907 80.2458 31.4683 80.3334 31.0435 80.3167H29.9009V82.6643L28.7874 82.6547ZM29.9009 79.4074H30.9854C31.2891 79.4361 31.5918 79.3444 31.8278 79.1524C31.915 79.0589 31.9825 78.949 32.0266 78.8292C32.0707 78.7095 32.0903 78.5822 32.0844 78.4549C32.0916 78.3259 32.0726 78.1968 32.0285 78.0753C31.9844 77.9538 31.9162 77.8424 31.8278 77.7477C31.5918 77.5557 31.2891 77.464 30.9854 77.4927H29.9009V79.4074Z" fill="white"/>
<path d="M37.5893 82.7461C37.0303 82.7585 36.4782 82.6205 35.9916 82.3468C35.5393 82.0849 35.169 81.7036 34.9216 81.2451C34.666 80.7382 34.533 80.1789 34.533 79.6119C34.533 79.0448 34.666 78.4856 34.9216 77.9786C35.169 77.5202 35.5393 77.1388 35.9916 76.8769C36.4832 76.6158 37.0319 76.4792 37.5893 76.4792C38.1467 76.4792 38.6955 76.6158 39.187 76.8769C39.6404 77.1374 40.0111 77.5191 40.257 77.9786C40.5097 78.4864 40.6411 79.0453 40.6411 79.6119C40.6411 80.1784 40.5097 80.7373 40.257 81.2451C40.0111 81.7046 39.6404 82.0863 39.187 82.3468C38.7002 82.6201 38.1483 82.758 37.5893 82.7461ZM37.5893 81.7503C37.849 81.7616 38.108 81.7163 38.348 81.6174C38.5881 81.5184 38.8035 81.3684 38.9788 81.1778C39.3162 80.7236 39.4982 80.174 39.4982 79.6095C39.4982 79.045 39.3162 78.4953 38.9788 78.0411C38.6088 77.676 38.1084 77.471 37.5869 77.471C37.0654 77.471 36.565 77.676 36.195 78.0411C35.8547 78.4941 35.6709 79.0442 35.6709 79.6095C35.6709 80.1747 35.8547 80.7248 36.195 81.1778C36.3683 81.3744 36.5831 81.5306 36.8241 81.6353C37.0651 81.7401 37.3264 81.7908 37.5893 81.784V81.7503Z" fill="white"/>
<path d="M42.2756 82.6547V76.5931H43.3892L46.2554 80.8603V76.5931H47.3689V82.6547H46.2554L43.394 78.4164V82.6788L42.2756 82.6547Z" fill="white"/>
<path d="M50.6323 82.6547V77.4831H48.8555V76.5931H53.5372V77.4831H51.7507V82.6547H50.6323Z" fill="white"/>
<path d="M37.7056 88.2641H25.7131V89.2888H37.7056V88.2641Z" fill="white"/>
<path d="M35.6861 24.2471L20.0271 39.8068L20.7563 40.5314L36.4153 24.9717L35.6861 24.2471Z" fill="white"/>
<path d="M38.1831 26.7295L22.5242 42.2891L23.2534 43.0137L38.9123 27.4541L38.1831 26.7295Z" fill="white"/>
<path d="M34.8786 26.085L34.1494 26.8095L36.5561 29.201L37.2853 28.4764L34.8786 26.085Z" fill="white"/>
<path d="M33.1311 27.8146L32.4019 28.5392L34.8085 30.9306L35.5377 30.2061L33.1311 27.8146Z" fill="white"/>
<path d="M31.3784 29.5607L30.6492 30.2853L33.0559 32.6767L33.7851 31.9521L31.3784 29.5607Z" fill="white"/>
<path d="M29.6488 31.3205L28.8826 32.0063L31.1637 34.5228L31.9299 33.837L29.6488 31.3205Z" fill="white"/>
<path d="M27.6618 32.8199L26.9326 33.5445L29.3393 35.9359L30.0685 35.2113L27.6618 32.8199Z" fill="white"/>
<path d="M25.9138 34.5591L25.1846 35.2837L27.5913 37.6752L28.3205 36.9506L25.9138 34.5591Z" fill="white"/>
<path d="M24.1613 36.3004L23.4321 37.025L25.8388 39.4164L26.568 38.6919L24.1613 36.3004Z" fill="white"/>
<path d="M22.4135 38.0348L21.6843 38.7594L24.091 41.1508L24.8202 40.4263L22.4135 38.0348Z" fill="white"/>
</svg>