<?xml version="1.0" encoding="utf-8"?>
<!-- Generator: Adobe Illustrator 21.0.0, SVG Export Plug-In . SVG Version: 6.00 Build 0)  -->
<svg version="1.1" id="Layer_2" xmlns="http://www.w3.org/2000/svg" xmlns:xlink="http://www.w3.org/1999/xlink" x="0px" y="0px"
	 viewBox="0 0 300 300" style="enable-background:new 0 0 300 300;" xml:space="preserve">
<style type="text/css">
	.st0{fill:#22B573;}
	.st1{fill:#FFFFFF;}
	.st2{fill:#1B1464;}
	.st3{fill:#FFD407;}
	.st4{fill:#ED1C24;}
</style>
<g>
	<polygon class="st0" points="8,278.1 292.1,278.2 292.1,82.3 150,22.3 8,22.2 	"/>
	<g>
		<g>
			<path class="st1" d="M196.9,237.8c-11.4-20.9-28.9-38.3-42.8-51.1c-5.3-4.9-10.8-9.7-16.2-14.4c-11.3-9.9-23-20.2-33.5-31.3
				c-5.7-6.1-11.2-12.5-16.5-18.7L58.3,87.8l2.2-1.8l29.5,34.5c5.3,6.2,10.8,12.6,16.4,18.6c10.4,11,22.1,21.3,33.3,31.1
				c5.3,4.7,10.9,9.5,16.2,14.4c9.7,8.9,17.3,16.6,23.9,24.1c8.1,9.3,14.5,18.4,19.6,27.7L196.9,237.8z"/>
			<path class="st1" d="M98,218.2l-2.6-1.1c17.6-40.3,28.4-83,32.1-126.8l2.8,0.2C126.6,134.6,115.8,177.6,98,218.2z"/>
			<path class="st1" d="M235.3,174.9c-36.9-13-79.8-18-109.3-19.9c-38.5-2.5-69.8-0.9-84.9,1.3l-0.4-2.8
				c35.4-5,129.1-4.7,195.6,18.8L235.3,174.9z"/>
			<path class="st1" d="M234.9,160.6c-6.1-22.9-17.5-44.4-33-62.2l2.1-1.9c15.8,18.2,27.4,40.1,33.6,63.4L234.9,160.6z"/>
			<path class="st1" d="M190.6,82.2c-0.3-8.8-5.9-17.2-13.9-20.8c-8.1-3.6-18-2.3-24.8,3.4l-1.8-2.2c7.6-6.3,18.8-7.9,27.8-3.8
				c9,4.1,15.3,13.4,15.6,23.4L190.6,82.2z"/>
			<path class="st1" d="M208.8,219.2l-2.7-0.8c3.3-11,13.6-20.1,26.9-23.9c1.7-0.5,3.5-0.8,5.3-0.1l-1.1,2.6c-0.9-0.4-2-0.2-3.4,0.2
				C221.3,200.7,211.7,209.1,208.8,219.2z"/>
			<path class="st1" d="M125.6,209.1l-2.1-1.9c22.5-24.5,56.9-37.2,89.9-33.2l-0.3,2.8C181,172.9,147.4,185.3,125.6,209.1z"/>
			<path class="st1" d="M84.2,203.2c-0.9-12.6-6.1-24.7-14.7-33.9l2.1-1.9C80.5,177,86,189.7,87,203L84.2,203.2z"/>
			<path class="st1" d="M72.6,142l-0.2-2.8l19.1-1.3c27.6-1.8,59-3.9,84.9-18.3l1.4,2.5c-26.5,14.7-58.2,16.8-86.1,18.7L72.6,142z"
				/>
			<path class="st1" d="M31.7,125.6c-4.5-7.1-6-16.2-4.1-25c1.7-8,6.1-15.6,12.6-22l2,2c-6.1,6-10.2,13.1-11.8,20.6
				c-1.7,8.1-0.4,16.5,3.7,22.9L31.7,125.6z"/>
			<path class="st1" d="M108.2,47.1c-0.8-1.4-1.6-2.8-2.6-4c-3-3.7-7.9-5.8-12.6-5.3c-4.7,0.4-9.2,3.4-11.4,7.5l-2.5-1.4
				c2.7-5,8-8.5,13.7-9c5.7-0.5,11.5,1.9,15.1,6.4c1.1,1.4,2,2.9,2.8,4.4L108.2,47.1z"/>
			<path class="st1" d="M66,136.4l-1.3-2.5c17.5-8.6,32.3-22.8,41.7-39.8c1.4-2.5,2.7-5.2,3.3-8l2.8,0.6c-0.7,3.2-2.1,6.2-3.6,8.8
				C99.2,113,83.9,127.6,66,136.4z"/>
			<path class="st1" d="M198.9,217.3l-2.8-0.1c0.4-12.3-5.6-23.8-11.4-34.9c-0.4-0.7-0.7-1.4-1.1-2c-14.6-28.1-26.2-57.8-34.6-88.3
				l2.7-0.8c8.3,30.3,19.9,59.9,34.4,87.8c0.4,0.7,0.7,1.4,1.1,2C193.1,192.4,199.3,204.2,198.9,217.3z"/>
			<path class="st1" d="M159.9,231.7c-8.6-15.9-21.1-30.2-37.4-42.6c-14.4-11-31.6-20.2-50.8-27.5l1-2.7
				c19.5,7.4,36.9,16.8,51.6,27.9c16.6,12.6,29.4,27.2,38.2,43.5L159.9,231.7z"/>
			<path class="st1" d="M117,205.5l-2.5-1.3c8.2-16,18.7-30.8,31.3-43.9c12.6-13.2,26.9-24.3,42.5-33.2l1.4,2.5
				c-15.4,8.7-29.4,19.7-41.8,32.7C135.4,175.2,125.1,189.7,117,205.5z"/>
		</g>
		<path class="st1" d="M127.9,36.1c-7.7,0.2-20.7,0.5-24.1,20.7c-2.5,14.7-15.4,52.8,23.9,49.3c3.1-0.3,5.9-1.7,9-2.4
			c5.7-1.3,12.3-4.9,16.5-8.7c9.1-8.3,17.4-39.1-3.7-52C142.9,39,135.6,35.9,127.9,36.1z"/>
		<path class="st1" d="M186.6,75.9c-5.9,1.6-11.6,5.3-14.2,10.9c-2.4,5.2-1.9,11.2-2.7,16.9c-0.9,5.5-3.1,11-2.1,16.4
			c1.2,6.4,6.7,11.2,12.7,13.9c8.9,4,20.1,3.9,27.8-2.2c3.2-2.5,5.6-5.9,9-8.3c6.6-4.6,15.7-4.4,21.9-9.5c4-3.2,6.2-8.5,5.8-13.6
			c-0.4-5.1-3.5-9.9-7.9-12.5c-3.8-2.2-8.2-2.7-12.2-4.5c-5.7-2.6-10.6-8.4-17-9.3C201.2,73.3,192.7,74.2,186.6,75.9z"/>
		<path class="st1" d="M211.2,214.1c-11.2-3-23.2-1.5-34.2,2c-14.1,4.4-28.1,13-33.4,26.8c-1.7,4.3-2.4,9.2-0.5,13.4
			c1.8,4.2,5.9,7,10.2,8.6c13.9,5.2,29.4-0.5,44.2,0.2c6.1,0.3,12.1,1.7,18.2,0.9c11.9-1.6,23.5-14,22.2-26.5
			C236.6,227,222.2,217,211.2,214.1z"/>
		<path class="st1" d="M135.7,224.4c0.3-6.8-1.8-14.2-7.1-18.4c-5.1-4.1-12.2-4.8-18.7-4.4c-6.6,0.4-13.1,1.7-19.6,0.8
			c-8.2-1.1-16-5.8-24.3-5.3c-11.7,0.7-20.7,11.8-22.4,23.4c-0.5,3.4-0.5,6.9,0.7,10.1c2.7,7.3,10.9,11.1,15.5,17.4
			c1.5,2.1,2.7,4.4,4.2,6.5c4.7,6.5,12.9,10,20.9,10.4c8,0.4,16-2.1,23.2-5.7c7.4-3.7,13.9-8.6,20-14.2
			C133.5,240,135.4,231.7,135.7,224.4z"/>
		<path class="st1" d="M59.2,118.9c-3.2-1.3-6.5-2.2-9.9-2.4c-8.2-0.6-16.5,2.7-22.1,8.7c-5.5,6.1-8,14.7-6.6,22.8
			c1,5.9,3.9,11.2,6.8,16.4c2.8,5.1,5.6,10.2,8.4,15.3c2,3.6,4.2,7.4,7.8,9.3c4.2,2.2,9.4,1.3,13.8-0.5c14.9-6,23.1-20.6,24.7-36
			C83.8,137.9,72.1,124,59.2,118.9z"/>
		<path class="st1" d="M44.2,39.2c-3.5,0.8-7.1,1.9-9.6,4.5c-3.6,3.7-4.2,9.5-3.4,14.6c0.8,5.1,2.7,10.1,3.2,15.3
			c0.3,2.9,0,5.9,0.6,8.8c1.8,9.7,11.8,16.2,21.7,17.2c5.9,0.6,12.3-0.6,16.3-4.9c2.7-2.8,4-6.7,6.1-10c1.8-2.8,4.2-5.2,6-8
			c5.6-8.4,6.5-24.7-1.6-32.1C74.4,36.3,55.3,36.9,44.2,39.2z"/>
		<g>
			<path class="st2" d="M61.3,75.9c-1.4-1-3.1-1.8-4.9-1.6c-1.6,0.3-2.8,1.3-3.8,2.6c-1,1.2-1.7,2.6-2.7,3.9
				c-0.6,0.8-1.4,1.5-1.9,2.3c-0.5,0.8-0.8,1.9-0.5,2.8c0.4,1.1,1.5,1.7,2.6,1.9s2.3,0.2,3.4,0.4c1.3,0.2,2.6,0.8,3.9,1.1
				c4.3,1,8.7-1,12.7-2.9c0.4-0.2,0.8-0.4,1.1-0.7c0.8-1.1-0.2-2.6-1.3-3.5C67.2,80,64.2,78,61.3,75.9z"/>
			<path class="st0" d="M57.6,79.6C57.5,79.6,57.5,79.6,57.6,79.6c-0.6,0-1-0.4-1.1-1c-0.5-6.2-3.4-12.1-8.1-16.1
				c-0.4-0.4-0.5-1.1-0.1-1.5c0.4-0.4,1.1-0.5,1.5-0.1c3.8,3.3,6.6,7.8,8,12.6c0.5-1.4,1.2-2.8,1.9-3.9c1.9-2.9,4.5-5,7.4-6
				c0.6-0.2,1.2,0.1,1.4,0.7c0.2,0.6-0.1,1.2-0.7,1.4c-2.5,0.8-4.7,2.7-6.3,5.1c-1.4,2.2-2.4,4.8-2.9,8
				C58.5,79.2,58.1,79.6,57.6,79.6z"/>
			<path class="st0" d="M50.1,62.4c0.7,0.5,1.8,0.4,2.5,0s1.3-1.2,1.8-1.9c0.3-0.5,0.6-1,0.7-1.6c0.1-0.8-0.4-1.6-1-2.2
				c-1.5-1.7-3.7-2.9-6-3.2c-1.4-0.2-3.9,0-10.3-3.4c3.2,7.9,1.4,9.8,3.9,13.7c0.6,0.9,1.2,1.8,2,2.5c1.5,1.3,3.8,2,5.4,0.8
				C50.6,66,50.3,64.1,50.1,62.4z"/>
			<path class="st0" d="M67.1,64.3c-0.9,0.9-1,2.5-0.4,3.6c0.6,1.2,1.7,1.8,2.8,1.9c1.1,0.1,2.3-0.2,3.3-0.8c1-0.5,1.9-1.2,2.7-2.1
				c1.4-1.5,5-6.1,8.3-8.8c-4.4,0-12.4-1.6-12.9-1.8c-0.9-0.2-1.9-0.1-2.8,0c-1,0.1-2,0.4-2.6,1.2c-0.7,0.8-0.9,2-0.9,3.1
				c0,0.8,0.2,1.6,0.6,2.3C65.6,63.6,66.5,64.2,67.1,64.3z"/>
		</g>
		<g>
			<path class="st3" d="M183.6,229.3c-0.1-0.7-0.6-1.2-1.3-1.2l-4.5,0.2c-3.3,0.1-6.9,0.4-9.4,3c-1.8,1.9-2.8,4.7-4.6,6.6
				c-0.2,0.2-0.4,0.3-0.6,0.3c-2,0.4-4.5,1.6-6.3,2.3c-0.4,0.1-0.7,0.3-1,0.6c-0.4,0.4-0.6,1-0.8,1.5c-0.9,2.8-1.8,5.8-1.6,8.7
				c0,0.7,0.6,1.2,1.2,1.2c9.5,0.3,18.7,0.4,28.2,0.1c0.7,0,1.2-0.6,1.2-1.2c0,0,0,0,0,0C185.1,244.5,184.2,236.4,183.6,229.3z"/>
			<path class="st4" d="M223.9,248.1c0.3-6.6,0.4-13.2,0.3-19.7c-0.1-2.8-2.4-4.9-5.1-4.7c-11.8,0.7-23.8,0.8-35.6,0.8
				c-2.7,0-4.9,2.2-4.8,4.9c0.1,6.2,0.4,12.5,0.3,18.7c0,2.7,2.1,4.9,4.7,4.9c8.1,0.1,24.3,0,35.5-0.2
				C221.8,252.6,223.8,250.6,223.9,248.1z"/>
			<path class="st2" d="M208.9,248.5c-1.4,0.9-2.5,2.2-2.9,3.8c-0.4,1.6-0.2,3.4,0.7,4.7c0.6,0.9,1.4,1.5,2.4,2
				c3.8,2.1,9.8,0.8,9.8-4.2C218.9,249.5,214,245.3,208.9,248.5z"/>
			<path class="st2" d="M166.5,248.5c-1.4,0.9-2.5,2.2-2.9,3.8s-0.2,3.4,0.7,4.7c0.6,0.9,1.4,1.5,2.4,2c3.8,2.1,9.8,0.8,9.8-4.2
				C176.4,249.5,171.5,245.3,166.5,248.5z"/>
			<g>
				<path class="st2" d="M175.8,241c-3,0.3-5.9,0.5-8.9,0.6c-0.5-2.5,0.6-5.1,2.3-6.9c1.6-1.6,4-3.1,6.3-3.3
					C175.8,232,176.2,241,175.8,241z"/>
			</g>
			<path class="st1" d="M214.8,253.5c-0.1-1.9-2.6-3.2-4.3-2.3c-1.7,0.9-1.9,3.7-0.4,4.8c1,0.8,2.5,0.8,3.5,0c1-0.8,1.3-2.3,0.6-3.4
				"/>
			<path class="st1" d="M172.6,253.5c-0.1-1.9-2.6-3.2-4.3-2.3c-1.7,0.9-1.9,3.7-0.4,4.8c1,0.8,2.5,0.8,3.5,0c1-0.8,1.3-2.3,0.6-3.4
				"/>
		</g>
		<g>
			<path class="st0" d="M179,97.6c2.3-0.7,4.9-0.4,7.1,0.6c1.1,0.5,2,1.3,2.8,2.2c2.3,2.6,2.7,6.5,5.2,9c2.4,2.4,6.1,2.8,9.5,3
				c1.1-3.3,2-6.4,3.1-9.7c-3,0-5.6-2.9-7.3-5.4c-1.7-2.5-3.1-5.3-5.5-7.1c-3.5-2.6-8.4-2.5-12.8-2.1
				C180.8,91.2,178.6,94.3,179,97.6z"/>
			<path class="st0" d="M205.4,121.7c-1.2-3.7-4.8-6.4-8.7-6.8c-2-0.2-4.2,0.3-6.1-0.4c-2-0.6-3.5-2.3-4.4-4.2s-1.2-4-1.6-6
				c-3.4,0.6-6.7,1.6-10,2.7c0.5,3.2,0.9,6.5,2.5,9.3c1.6,2.8,4,5.3,7.2,6.3c2.1,0.7,4.4,0.7,6.6,1.3c3.2,0.9,5.9,3.2,7.4,6.1
				C200.2,127.3,205.5,122,205.4,121.7z"/>
			<path class="st0" d="M213.4,85.6c-2,3.1-4.4,6.6-7,9.4c2.7-0.8,4.3-0.2,5.8,1.2s2.1,3.3,2.7,5.1s1.2,3.7,2.7,5.1
				c2.6,2.6,6.9,3.2,10.8,3.3c2.8-2.6,5.5-6.1,7.2-9.4c-4.8,0.9-10.8-1.8-12.5-5.9C222.8,93.4,221.4,86.7,213.4,85.6z"/>
			<path class="st2" d="M188.6,114.9c-0.6,0-1.2,0-1.8,0.2c-0.8,0.3-1.4,0.8-1.9,1.4c-0.4,0.4-0.8,0.8-1,1.4
				c-0.2,0.5-0.3,1.1-0.1,1.6c0.1,0.3,0.3,0.5,0.5,0.7c1.9,2,5.1,1.8,7-0.1C193.9,117.5,191.9,115,188.6,114.9z"/>
			<path class="st2" d="M197.8,127.3l-0.2-0.4c-1.3-2.2-3.6-3.8-6.1-4.3l0.1-0.7c2.6,0.4,4.9,2,6.3,4.2c1.3-1.5,2.8-2.9,4.3-4.1
				c0,0,0.1-0.1,0.2-0.2c0,0,0,0,0-0.1c-0.6-1.4-1.8-2.6-3.4-3.3c-1.3-0.6-2.8-1-4.8-1.2l0.1-0.7c2.1,0.2,3.7,0.6,5.1,1.2
				c1.8,0.8,3.1,2.2,3.7,3.7c0,0.1,0.1,0.3,0.1,0.5c0,0.3-0.3,0.5-0.4,0.6c-1.6,1.3-3.1,2.8-4.5,4.4L197.8,127.3z"/>
			<path class="st2" d="M181,117.8c-3.1-2.1-4.8-5.9-4.2-9.6l0-0.2l7.1-1.5l0,0.4c0.2,2.4,1.1,4.8,2.3,6.8l-0.6,0.4
				c-1.3-2-2.1-4.4-2.4-6.8l-5.8,1.2c-0.4,3.3,1.2,6.8,4,8.7L181,117.8z"/>
			<path class="st2" d="M202.4,110.7l-0.4,0c-2.9-0.3-5.6-2.2-6.8-4.8l0.6-0.3c1.1,2.3,3.3,4,5.8,4.4c0.1-2.1,0.4-4.1,1-6.1
				c-0.8-0.2-1.4-0.7-1.9-1.2c-1-1-1.8-2-2.6-3.2l0.6-0.4c0.7,1.1,1.5,2.1,2.5,3.1c0.5,0.5,1.2,1.1,1.9,1.1l0.4,0l-0.1,0.4
				c-0.6,2.2-1,4.5-1.1,6.7L202.4,110.7z"/>
			<path class="st2" d="M187.3,97.8c-0.5-0.2-0.9-0.5-1.3-0.8c-0.1-0.1-0.3-0.2-0.4-0.3c-1.2-0.9-2.8-1.3-4.3-1.2l-0.4,0l0-0.4
				c0.1-1,0.5-1.9,0.9-2.8c0.5-1,0.9-1.9,0.8-2.9l0-0.4l0.4,0c1.5,0,3.1,0.1,4.7,0.4c1.8,0.4,3.2,1,4.3,2l-0.5,0.5
				c-1-0.9-2.4-1.5-4-1.8c-1.4-0.3-2.8-0.3-4.2-0.4c0,1-0.4,2-0.9,2.9c-0.3,0.7-0.6,1.4-0.8,2.1c1.5-0.1,3.1,0.4,4.3,1.3
				c0.2,0.1,0.3,0.2,0.5,0.4c0.4,0.3,0.7,0.6,1.1,0.7L187.3,97.8z"/>
			<path class="st2" d="M227.2,107.6l-2.9-0.6c-1.9-0.4-3.6-0.9-4.8-2.2l0.5-0.5c1,1.2,2.6,1.6,4.4,2l2.5,0.5c1.5-1.4,2.8-3,4-4.7
				c-2.4,0.2-4.9-0.9-6.3-2.8l0.6-0.4c1.4,1.9,4.1,2.9,6.5,2.4l0.9-0.2l-0.5,0.7c-1.4,2-3,3.9-4.7,5.6L227.2,107.6z"/>
			<path class="st2" d="M215,97.8c-0.4-0.4-0.7-0.8-1-1.3c-0.1-0.2-0.2-0.3-0.3-0.5c-0.9-1.2-2.2-2.1-3.5-2.9l-0.3-0.2l0.2-0.3
				c1.2-1.9,2.5-3.7,4-5.3l0.2-0.2l0.2,0.1c1.9,0.8,3.4,2.1,4.4,3.9l-0.6,0.4c-0.9-1.5-2.2-2.7-3.8-3.5c-1.3,1.5-2.5,3.1-3.6,4.7
				c1.2,0.7,2.5,1.6,3.4,2.9c0.1,0.2,0.2,0.3,0.3,0.5c0.3,0.4,0.5,0.8,0.8,1.1L215,97.8z"/>
			<path class="st2" d="M195.1,94.9c-0.8-1-2.4-1.4-3.4-0.5c-0.8,0.6-1.1,1.7-1.3,2.7c-0.2,1-0.4,2-0.1,2.9c0.3,0.6,0.8,1.1,1.3,1.5
				c0.4,0.3,0.9,0.6,1.5,0.6C195.8,102.2,196.6,96.7,195.1,94.9z"/>
			<path class="st2" d="M216.4,99.7c0,0.9,0.3,1.9,1.1,2.4c1,0.6,2.3,0.3,3.3-0.3c0.4-0.2,0.8-0.5,1.1-0.8c1.7-1.6,1.5-5.5-0.9-6.5
				C218.3,93.2,216.3,97.7,216.4,99.7z"/>
		</g>
		<g>
			<path class="st1" d="M217.3,142.8c-8.8,4.2-16.2,12.6-16.2,22.3c0,7.7,4.6,14.7,10.2,20.1s12.2,9.5,17.8,14.7
				c4.4,4.1,8.3,8.9,13.1,12.5c4.8,3.6,11.1,6.1,16.9,4.6c5.4-1.3,9.5-5.8,12-10.7c2.5-4.9,3.5-10.4,4.8-15.8
				c1.7-7.3,3.7-14.7,3.9-22.2c0.1-7.5-1.9-15.5-7.4-20.7c-7-6.7-17-6.7-25.8-8.9C237.4,136.4,225.9,138.8,217.3,142.8z"/>
			<g>
				<path class="st3" d="M249.7,181.2c-0.8-0.4-1.8-0.7-2.7-0.2c-0.9,0.5-1.3,1.6-1.1,2.5c0.2,1,0.8,1.8,1.5,2.5
					c0.7,0.7,1.6,1.3,2.5,1.7c0.6,0.3,1.2,0.4,1.9,0.3c0.6-0.1,1.2-0.6,1.3-1.2C253.4,184.7,251.5,182.1,249.7,181.2z"/>
				<path class="st3" d="M250.5,175.5c-0.8-0.4-1.8-0.7-2.7-0.2c-0.9,0.5-1.3,1.6-1.1,2.5s0.8,1.8,1.5,2.5c0.7,0.7,1.6,1.3,2.5,1.7
					c0.6,0.3,1.2,0.4,1.9,0.3c0.6-0.1,1.2-0.6,1.3-1.2C254.2,179,252.3,176.4,250.5,175.5z"/>
				<path class="st3" d="M251.3,169.6c-0.8-0.4-1.8-0.7-2.7-0.2c-0.9,0.5-1.3,1.6-1.1,2.5s0.8,1.8,1.5,2.5c0.7,0.7,1.6,1.3,2.5,1.7
					c0.6,0.3,1.2,0.4,1.9,0.3c0.6-0.1,1.2-0.6,1.3-1.2C255,173.1,253.1,170.5,251.3,169.6z"/>
				<path class="st3" d="M252.1,163.9c-0.8-0.4-1.8-0.7-2.7-0.2c-0.9,0.5-1.3,1.6-1.1,2.5c0.2,1,0.8,1.8,1.5,2.5
					c0.7,0.7,1.6,1.3,2.5,1.7c0.6,0.3,1.2,0.4,1.9,0.3c0.6-0.1,1.2-0.6,1.3-1.2C255.7,167.4,253.8,164.8,252.1,163.9z"/>
				<path class="st3" d="M252.9,158.2c-0.8-0.4-1.8-0.7-2.7-0.2c-0.9,0.5-1.3,1.6-1.1,2.5s0.8,1.8,1.5,2.5c0.7,0.7,1.6,1.3,2.5,1.7
					c0.6,0.3,1.2,0.4,1.9,0.3c0.6-0.1,1.2-0.6,1.3-1.2C256.5,161.7,254.6,159.1,252.9,158.2z"/>
				<path class="st3" d="M258.1,182.3c0.9-0.2,2-0.1,2.6,0.5c0.7,0.7,0.8,1.9,0.4,2.7s-1.3,1.5-2.1,2c-0.9,0.5-1.9,0.8-2.9,0.9
					c-0.6,0.1-1.3,0.1-1.9-0.2c-0.6-0.3-1-0.9-0.9-1.5C253.7,184.7,256.2,182.7,258.1,182.3z"/>
				<path class="st3" d="M258.9,176.6c0.9-0.2,2-0.1,2.6,0.5c0.7,0.7,0.8,1.9,0.4,2.7c-0.4,0.9-1.3,1.5-2.1,2
					c-0.9,0.5-1.9,0.8-2.9,0.9c-0.6,0.1-1.3,0.1-1.9-0.2c-0.6-0.3-1-0.9-0.9-1.5C254.4,179,257,177,258.9,176.6z"/>
				<path class="st3" d="M259.7,170.7c0.9-0.2,2-0.1,2.6,0.5c0.7,0.7,0.8,1.9,0.4,2.7c-0.4,0.9-1.3,1.5-2.1,2
					c-0.9,0.5-1.9,0.8-2.9,0.9c-0.6,0.1-1.3,0.1-1.9-0.2c-0.6-0.3-1-0.9-0.9-1.5C255.3,173.1,257.8,171.1,259.7,170.7z"/>
				<path class="st3" d="M260.5,165c0.9-0.2,2-0.1,2.6,0.5c0.7,0.7,0.8,1.9,0.4,2.7s-1.3,1.5-2.1,2c-0.9,0.5-1.9,0.8-2.9,0.9
					c-0.6,0.1-1.3,0.1-1.9-0.2c-0.6-0.3-1-0.9-0.9-1.5C256,167.4,258.6,165.4,260.5,165z"/>
				<path class="st3" d="M261.2,159.3c0.9-0.2,2-0.1,2.6,0.5c0.7,0.7,0.8,1.9,0.4,2.7c-0.4,0.9-1.3,1.5-2.1,2
					c-0.9,0.5-1.9,0.8-2.9,0.9c-0.6,0.1-1.3,0.1-1.9-0.2c-0.6-0.3-1-0.9-0.9-1.5C256.8,161.7,259.3,159.7,261.2,159.3z"/>
				<path class="st3" d="M251.7,205.2l-1.4-0.1c1.2-13.2,3.5-29.9,6.2-44.7l1.4,0.3C255.2,175.3,252.9,192,251.7,205.2z"/>
				<path class="st3" d="M256.2,162.6l-0.2-0.5c-1-2.7-1.4-8.8-1.1-11.6l0.7,0.1c-0.3,2.5,0.1,7.8,0.9,10.7c1.5-1.8,2.9-4.9,4-7.3
					c0.2-0.4,0.3-0.7,0.5-1.1l0.6,0.3c-0.2,0.3-0.3,0.7-0.5,1.1c-1.2,2.6-2.8,6.1-4.5,7.9L256.2,162.6z"/>
				<path class="st3" d="M255.5,160.6c-1.7-1.4-3.1-5.9-4-9.3c-0.2-0.8-0.4-1.5-0.6-2l0.7-0.2c0.2,0.5,0.4,1.2,0.6,2
					c0.9,3,2.3,7.7,3.8,8.9L255.5,160.6z"/>
				<path class="st3" d="M257.2,162.2l-0.3-0.6c1.9-1,3.9-4.4,5.6-7.2c0.7-1.1,1.3-2.2,1.8-2.9l0.6,0.4c-0.5,0.7-1.1,1.8-1.8,2.9
					C261.3,157.7,259.3,161.1,257.2,162.2z"/>
				<path class="st3" d="M250.7,161.1c-1.9-2.4-3.5-5-4.8-7.7l0.6-0.3c1.3,2.7,2.9,5.2,4.7,7.6L250.7,161.1z"/>
				<path class="st3" d="M251.4,159c-1.1-1.9-2.3-3.8-3.6-5.7l0.6-0.4c1.3,1.8,2.5,3.8,3.7,5.7L251.4,159z"/>
				<path class="st3" d="M250.5,165.9c-2.4-2-4.5-4.4-6.1-7.1l0.6-0.4c1.6,2.6,3.6,5,5.9,6.9L250.5,165.9z"/>
				<path class="st3" d="M249.8,167l-4.5-2c-0.4-0.2-0.8-0.4-1.2-0.7l0.4-0.6c0.3,0.2,0.7,0.4,1.1,0.6l4.5,2L249.8,167z"/>
				<path class="st3" d="M249.3,172.2c-1.7-1.8-3.6-3.4-5.7-4.7l0.4-0.6c2.2,1.3,4.1,3,5.8,4.8L249.3,172.2z"/>
				<path class="st3" d="M247.9,177c-2-2-3.6-4.2-4.9-6.7l0.6-0.3c1.2,2.4,2.8,4.6,4.8,6.5L247.9,177z"/>
				<path class="st3" d="M247.3,183.5c-0.3-1-1-1.8-1.7-2.7c-0.2-0.3-0.4-0.5-0.6-0.8c-1.2-1.5-2-3.2-2.6-5l0.7-0.2
					c0.5,1.7,1.4,3.4,2.5,4.8c0.2,0.2,0.4,0.5,0.6,0.7c0.7,0.9,1.5,1.8,1.8,2.9L247.3,183.5z"/>
				<path class="st3" d="M261.6,162.1l-0.4-0.6c3.5-2.2,6.3-5.5,8-9.2c0.2-0.4,0.4-0.4,0.6-0.4c0.2,0,0.3,0.2,0.3,0.4
					c0,0.2-0.1,0.4-0.4,0.4C268,156.5,265.1,159.8,261.6,162.1z M269.7,152C269.7,152,269.7,152,269.7,152c-0.2,0-0.3,0.1-0.3,0.2
					c0,0.1,0,0.1,0,0.2l0.6-0.2C270,152.1,269.8,152,269.7,152z"/>
				<path class="st3" d="M261.3,167.5l-0.4-0.6c1.9-1.4,4-3,5.2-5.1c0.3-0.4,0.5-0.9,0.7-1.4c0.1-0.3,0.3-0.6,0.4-0.9l0.6,0.3
					c-0.1,0.3-0.3,0.6-0.4,0.8c-0.2,0.5-0.5,1-0.7,1.4C265.4,164.4,263.2,166,261.3,167.5z"/>
				<path class="st3" d="M260.9,173.5l-0.5-0.5c2.3-2.5,4.8-4.7,7.6-6.6l0.4,0.6C265.6,168.9,263.1,171.1,260.9,173.5z"/>
				<path class="st3" d="M261.2,175.2l-0.3-0.7c3.1-1.2,5.9-3,8.4-5.3l0.5,0.5C267.3,172.1,264.4,173.9,261.2,175.2z"/>
				<path class="st3" d="M260.2,179.9l-0.4-0.6l3.2-1.8c0.6-0.3,1.2-0.7,1.8-1.1c0.8-0.5,1.4-1.2,2-1.9l0.6,0.4
					c-0.6,0.8-1.3,1.5-2.1,2.1c-0.6,0.4-1.2,0.8-1.9,1.2L260.2,179.9z"/>
				<path class="st3" d="M257.6,186l0.4-0.8c0.5-1.2,1.7-1.9,2.8-2.5c1.6-0.8,3.3-1.6,5-2.4l0.3,0.7c-1.7,0.7-3.3,1.5-4.9,2.3
					c-0.7,0.4-1.5,0.8-2,1.4c1.1-0.2,2.3-0.2,3.4-0.2c0.6,0,1.2,0,1.8,0l0,0.7c-0.6,0-1.2,0-1.9,0c-1.4,0-2.9,0-4.1,0.5L257.6,186z"
					/>
				
					<rect x="251.1" y="154.9" transform="matrix(0.1615 -0.9869 0.9869 0.1615 62.6292 384.2963)" class="st3" width="12.7" height="0.7"/>
				<path class="st3" d="M258.3,203.4c-0.7-0.6-1.4-1.2-2.1-1.8c-0.6-0.5-1.3-1.1-1.9-1.6c-12.8-11-22.6-19.9-31.2-35.2l1.2-0.7
					c8.4,15.1,18.1,24,30.8,34.9c0.6,0.5,1.3,1.1,1.9,1.6c0.7,0.6,1.4,1.2,2.1,1.8L258.3,203.4z"/>
				<path class="st3" d="M231.7,182.7c-0.9,0.3-1.7,0.9-2,1.8c-0.3,1,0.3,2,1.1,2.5s1.9,0.7,2.9,0.6c1-0.1,2-0.3,2.9-0.7
					c0.6-0.3,1.2-0.6,1.5-1.1c0.4-0.5,0.4-1.3,0-1.8C236.7,182.5,233.5,182.1,231.7,182.7z"/>
				<path class="st3" d="M228.2,178.1c-0.9,0.3-1.8,0.8-2.1,1.7c-0.3,0.9,0.2,2,1,2.6s1.8,0.7,2.8,0.7c1,0,2-0.2,3-0.6
					c0.6-0.2,1.2-0.5,1.6-1c0.4-0.5,0.5-1.3,0.1-1.8C233.2,178.1,230,177.6,228.2,178.1z"/>
				<path class="st3" d="M224.5,173.4c-0.9,0.2-1.8,0.7-2.2,1.6c-0.4,0.9,0.1,2,0.8,2.6c0.8,0.6,1.8,0.8,2.8,0.9c1,0,2-0.1,3-0.4
					c0.6-0.2,1.2-0.5,1.6-1c0.4-0.5,0.5-1.2,0.2-1.8C229.5,173.7,226.4,173,224.5,173.4z"/>
				<path class="st3" d="M221.3,168.6c-0.9,0.2-1.8,0.7-2.2,1.6c-0.4,0.9,0.1,2,0.8,2.6s1.8,0.8,2.8,0.9c1,0,2-0.1,3-0.4
					c0.6-0.2,1.2-0.5,1.6-1c0.4-0.5,0.5-1.2,0.2-1.8C226.4,168.9,223.2,168.2,221.3,168.6z"/>
				<path class="st3" d="M218.2,163.8c-0.9,0.2-1.8,0.7-2.2,1.6c-0.4,0.9,0.1,2,0.8,2.6c0.8,0.6,1.8,0.8,2.8,0.9c1,0,2-0.1,3-0.4
					c0.6-0.2,1.2-0.5,1.6-1c0.4-0.5,0.5-1.2,0.2-1.8C223.2,164.1,220.1,163.3,218.2,163.8z"/>
				<path class="st3" d="M238,177.7c0.5-0.8,1.2-1.5,2.2-1.6c1-0.1,1.9,0.7,2.2,1.6c0.4,0.9,0.2,2,0,2.9c-0.3,1-0.7,1.9-1.3,2.7
					c-0.4,0.5-0.8,1-1.4,1.3c-0.6,0.2-1.4,0.1-1.7-0.4C236.7,182.5,237,179.3,238,177.7z"/>
				<path class="st3" d="M234.7,172.7c0.5-0.8,1.3-1.5,2.2-1.5c1,0,1.9,0.8,2.2,1.7s0.2,2-0.1,2.9c-0.3,1-0.8,1.9-1.4,2.7
					c-0.4,0.5-0.9,1-1.5,1.2c-0.6,0.2-1.4,0.1-1.7-0.5C233.2,177.5,233.6,174.3,234.7,172.7z"/>
				<path class="st3" d="M231.6,168.8c0.6-0.7,1.4-1.4,2.3-1.3c1,0,1.8,0.9,2.1,1.8c0.3,1,0,2-0.3,2.9c-0.4,0.9-0.9,1.8-1.6,2.6
					c-0.4,0.5-0.9,0.9-1.5,1.1c-0.6,0.2-1.4,0-1.7-0.6C229.8,173.5,230.4,170.4,231.6,168.8z"/>
				<path class="st3" d="M228.4,164c0.6-0.7,1.4-1.4,2.3-1.3c1,0,1.8,0.9,2.1,1.8c0.3,1,0,2-0.3,2.9c-0.4,0.9-0.9,1.8-1.6,2.6
					c-0.4,0.5-0.9,0.9-1.5,1.1c-0.6,0.2-1.4,0-1.7-0.6C226.6,168.7,227.2,165.6,228.4,164z"/>
				<path class="st3" d="M225.3,159.2c0.6-0.7,1.4-1.4,2.3-1.3c1,0,1.8,0.9,2.1,1.8c0.3,1,0,2-0.3,2.9c-0.4,0.9-0.9,1.8-1.6,2.6
					c-0.4,0.5-0.9,0.9-1.5,1.1c-0.6,0.2-1.4,0-1.7-0.6C223.5,163.9,224.1,160.7,225.3,159.2z"/>
				<path class="st3" d="M241.1,180.7l-0.7-0.2c0.9-4.2,0.7-8.5-0.6-12.5l0.7-0.2C241.8,171.9,242.1,176.4,241.1,180.7z"/>
				<path class="st3" d="M223.7,165.4l-3-2.2c-2.3-1.6-4.6-3.4-6.3-5.7c-0.1-0.1-0.2-0.3-0.1-0.6c0.1-0.2,0.3-0.4,0.5-0.3
					c0.2,0,0.4,0.2,0.4,0.4l-0.7,0c0,0.1,0.1,0.2,0.2,0.3c0.1,0,0.2-0.1,0.2-0.2c0,0,0-0.1,0-0.1c0,0,0,0,0,0.1
					c1.6,2.3,3.9,3.9,6.1,5.5l1.7,1.2c-0.5-3.5-1.6-7.1-3.4-10.2l0.6-0.3c1.9,3.4,3.1,7.3,3.5,11.3L223.7,165.4z"/>
				<path class="st3" d="M218.1,166.3c-3.4-1-6.3-3.5-7.7-6.7l0.7-0.3c1.3,3,4,5.4,7.2,6.3L218.1,166.3z"/>
				<path class="st3" d="M217.5,167.9c-3.4,0-6.7-1.6-8.9-4.2l0.5-0.5c2.1,2.4,5.2,3.9,8.3,3.9L217.5,167.9z"/>
				<path class="st3" d="M221.1,171.2c-2.9-0.1-5.8-0.9-8.2-2.5l0.4-0.6c2.4,1.5,5.1,2.3,7.9,2.3L221.1,171.2z"/>
				<path class="st3" d="M224.7,176.3c-3.6-0.3-7.1-1.8-9.7-4.3l0.5-0.5c2.5,2.4,5.8,3.9,9.3,4.2L224.7,176.3z"/>
				<path class="st3" d="M224.2,178.1c-2.6,0-5.2-0.7-7.5-2l0.3-0.6c2.3,1.3,4.8,1.9,7.4,1.9l0,0.7
					C224.4,178.1,224.3,178.1,224.2,178.1z"/>
				<path class="st3" d="M227.3,181.4c-2.8-1-5.8-1.3-8.8-0.8l-0.1-0.7c3-0.4,6.2-0.1,9.1,0.9L227.3,181.4z"/>
				<path class="st3" d="M221.6,184l-0.1-0.7c2.5-0.4,5-1,7.5-1.7l0.2,0.7C226.7,183,224.1,183.6,221.6,184z"/>
				<path class="st3" d="M224.1,188.8l-0.5-0.5c2.4-2.3,5.6-3.5,8.9-3.4l0,0.7C229.4,185.5,226.3,186.7,224.1,188.8z"/>
				<path class="st3" d="M230.5,188.7l-0.6-0.4c0.8-1.1,2.1-1.9,3.5-2.2l0.1,0.7C232.3,187,231.2,187.7,230.5,188.7z"/>
				<path class="st3" d="M227.6,161.6l-0.7-0.2c0.8-3.1,0.3-6.6-1.4-9.4l0.6-0.4C228,154.6,228.5,158.3,227.6,161.6z"/>
				<path class="st3" d="M229,160.7l-0.7-0.2c0.5-1.7,0.7-3.4,0.7-5.2l0-0.2c0-0.6,0-1.2,0.2-1.8l0.7,0.2c-0.2,0.5-0.1,1-0.1,1.6
					l0,0.2C229.7,157.1,229.5,158.9,229,160.7z"/>
				<path class="st3" d="M231.1,165.5l-0.7-0.2c0.5-1.7,0.9-6.7,1-9.1c0-0.3,0-0.6,0.1-0.9l0.7,0c0,0.2,0,0.5-0.1,0.9
					C232,158.9,231.7,163.8,231.1,165.5z"/>
				<path class="st3" d="M232.1,166.5l-0.5-0.5c1.9-2,2.9-4.8,2.5-7.6l0.7-0.1C235.2,161.3,234.2,164.4,232.1,166.5z"/>
				<path class="st3" d="M234.6,171.3l-0.7,0c0.1-3.4,0.9-6.8,2.3-9.9l0.6,0.3C235.5,164.7,234.8,168,234.6,171.3z"/>
				<path class="st3" d="M237.4,174.3l-0.7-0.1c0.6-3.6,0.7-7.2,0.2-10.8l0.7-0.1C238.1,167,238,170.7,237.4,174.3z"/>
			</g>
		</g>
		<g>
			<path class="st3" d="M56.9,160.2c1.4-3.2,2.8-5,4.3-8.2c1.8-3.7,2-8,1.4-12.1c-0.3-2.6-1-5.2-2.5-7.3c-2-2.8-5.4-4.3-8.8-4.6
				s-6.8,0.5-10,1.7c-2.1,0.8-4.1,1.9-5.8,3.4c-2.9,2.7-4.5,6.7-4.1,10.7c0.6,5.6,4.8,10.2,9.3,13.7c1,0.7,2,1.5,2.9,2.3
				c1.7,1.7,2.9,3.8,3.8,6c0.7,1.5,0.7,3.5,2.7,3c0.8-0.2,5.2-2.1,5.6-2.7c0.4-0.6,0.1-2.2,0.2-2.9C56.2,162,56.5,161.1,56.9,160.2z
				"/>
			<path class="st2" d="M57.6,173.3c0.2-0.7,0.2-1.4,0.1-2.1c-0.1-2.4-0.3-4.7-1.2-6.8c-3,1.1-6,2.2-8.9,3.5
				c-0.8,0.4,2.4,8.3,3.5,8.7C53.2,177.7,57,175.3,57.6,173.3z"/>
			<path class="st2" d="M53.5,168.7C53.5,168.7,53.5,168.7,53.5,168.7c-0.4,0.3-0.9,0.1-1.4-0.3c-0.7-0.5-0.8-1.4-0.9-2.1
				c-1.1-6.5-2.9-12.9-5.3-19c0-0.1-0.1-0.2-0.1-0.2c-1,0.1-1.9,0.1-2.9,0.1c-0.6,0-1.3-0.1-1.8-0.5c-0.4-0.3-0.6-0.9-0.5-1.5
				c0.1-0.7,0.5-1.3,1.1-1.6c1.1-0.5,2.4,0,3.1,0.7c0.6,0.6,1,1.3,1.3,2.1c1.9-0.2,3.7-0.5,5.5-1c0.1-0.6,0.2-1.2,0.4-1.8
				c0.2-0.7,0.6-1.7,1.3-2.3c0.7-0.6,2-0.8,2.7,0c0.7,0.7,0.6,2,0,2.7c-0.6,0.7-1.5,1.1-2.2,1.4c-0.5,0.2-1.1,0.4-1.6,0.5
				c-0.3,2.2-0.2,4.5-0.1,6.4l0,0c0.2,3.4,0.6,6.6,1.2,9.9c0,0.1,0,0.2,0.1,0.4C54.1,166.3,54.2,168.2,53.5,168.7z M46.3,147
				C46.4,147,46.4,147,46.3,147c2.4,6.2,4.2,12.7,5.4,19.2c0.1,0.7,0.3,1.4,0.7,1.7c0.4,0.3,0.6,0.3,0.6,0.3
				c0.2-0.1,0.6-0.9-0.4-5.5c0-0.2-0.1-0.4-0.1-0.4c-0.6-3.3-0.9-6.6-1.2-10l0,0c-0.1-2-0.2-4.1,0-6.3
				C49.8,146.5,48.1,146.8,46.3,147z M52.2,145.1c0.4-0.1,0.8-0.3,1.3-0.4c0.7-0.3,1.5-0.6,2-1.2c0.4-0.5,0.5-1.4,0.1-1.9
				c-0.5-0.5-1.3-0.4-1.9,0.1c-0.6,0.5-0.9,1.3-1.1,2C52.4,144.1,52.3,144.6,52.2,145.1z M41.7,144.2c-0.3,0.2-0.5,0.6-0.6,1
				c-0.1,0.4,0.1,0.7,0.3,0.9c0.3,0.3,0.9,0.3,1.4,0.3c0.9,0,1.7,0,2.6-0.1c-0.3-0.7-0.6-1.2-1.1-1.7c-0.6-0.6-1.6-1-2.5-0.6
				C41.8,144.1,41.8,144.2,41.7,144.2z"/>
		</g>
		<g>
			<path class="st2" d="M82.9,233.9c1.7-6.3,2.4-14.2,3.7-20.7c0.2-0.9,1-1.5,1.9-1.5c11.9,0.6,23.6,0.9,35.5,1.1
				c1.2,0,2,1.1,1.8,2.2c-1.5,6.6-3.2,18.5-3.8,21.8c-0.1,0.5-0.4,0.9-0.8,1.2c-6.1,3.9-14.4,11.7-16.8,13.9
				c-0.4,0.4-0.9,0.5-1.4,0.5c-4.2-0.4-23.8-1.5-33.5-1.9c-1.7-0.1-2.4-2.1-1.2-3.2c4-3.6,10.6-9.5,14-12.5
				C82.6,234.5,82.8,234.2,82.9,233.9z"/>
			<path class="st1" d="M117.8,233.6c0.1,0.2,3.1-17.1,3.1-17.2l-30.5-0.9l-2.8,17.1L117.8,233.6z"/>
			<polygon class="st3" points="114.7,237.7 102.6,248.2 72.5,247.1 85.4,236.6 			"/>
			<path class="st2" d="M97,249.4l-0.5-0.5c4.8-4.5,9.9-8.9,15-13.1l0.4,0.6C106.8,240.5,101.8,244.9,97,249.4z"/>
			<path class="st2" d="M90.3,249.1l-0.5-0.5c4.8-4,9.6-8.2,14.3-12.3l0.5,0.5C100,240.9,95.2,245.1,90.3,249.1z"/>
			<path class="st2" d="M86.8,246.2l-0.5-0.5c2.4-2.1,4.1-3.6,5.8-5.1c1.7-1.5,3.4-3,5.8-5l0.5,0.5c-2.4,2.1-4.1,3.5-5.8,5
				C90.9,242.6,89.2,244.1,86.8,246.2z"/>
			
				<rect x="74.8" y="242" transform="matrix(0.7374 -0.6754 0.6754 0.7374 -141.494 120.6484)" class="st2" width="19.3" height="0.7"/>
			
				<rect x="96.4" y="222.9" transform="matrix(5.052375e-02 -0.9987 0.9987 5.052375e-02 -147.9984 324.7026)" class="st2" width="0.7" height="34.6"/>
			
				<rect x="91.2" y="227.6" transform="matrix(5.728478e-02 -0.9984 0.9984 5.728478e-02 -157.2791 321.4864)" class="st2" width="0.7" height="32.9"/>
			<path class="st2" d="M106.3,243C106.3,243,106.2,243,106.3,243L78,241.7c-0.2,0-0.3-0.2-0.3-0.4c0,0,0,0,0,0
				c0-0.2,0.2-0.3,0.4-0.3l28.3,1.3c0.2,0,0.3,0.2,0.3,0.4c0,0,0,0,0,0C106.6,242.9,106.4,243,106.3,243z"/>
			
				<rect x="98" y="221.9" transform="matrix(4.128640e-02 -0.9991 0.9991 4.128640e-02 -143.7728 326.6379)" class="st2" width="0.7" height="32.6"/>
			
				<rect x="88.7" y="230.4" transform="matrix(6.023734e-02 -0.9982 0.9982 6.023734e-02 -161.9251 320.0947)" class="st2" width="0.7" height="31.3"/>
			<path class="st2" d="M106.3,243c-0.1,0-0.2,0-0.3-0.1c-0.1-0.1-0.1-0.1-0.1-0.2c0-0.1,0-0.2,0.1-0.3l6.7-5.7
				c0.2-0.1,0.4-0.1,0.5,0c0.1,0.1,0.1,0.1,0.1,0.2c0,0.1,0,0.2-0.1,0.3l-6.7,5.7C106.4,243,106.3,243,106.3,243z"/>
			
				<rect x="91.8" y="242.5" transform="matrix(0.7296 -0.6838 0.6838 0.7296 -138.8419 134.4445)" class="st2" width="17.7" height="0.7"/>
			
				<rect x="88.5" y="240.8" transform="matrix(0.7358 -0.6772 0.6772 0.7358 -138.1127 128.4001)" class="st2" width="13.9" height="0.7"/>
			<path class="st2" d="M81.7,248l-0.5-0.5L94,235.1v0.8c0,0.1,0,0.1-0.1,0.3l0,0l0,0c-0.3,0.4-1.5,1.7-6,6
				C84.8,245.1,81.8,248,81.7,248z"/>
			<path class="st2" d="M75,248.3l-0.5-0.5l13.2-12.1l0.5,0.5C87.9,236.5,75.5,247.8,75,248.3z"/>
			
				<rect x="99.8" y="247.4" transform="matrix(0.6001 -0.7999 0.7999 0.6001 -157.766 179.9988)" class="st2" width="2.7" height="0.7"/>
		</g>
		<g>
			<path class="st3" d="M123,85.7c0.2-1.2,0.3-2.3,0.5-3.5c0.1-0.5,0.2-1,0.6-1.3c0.3-0.2,0.7-0.2,1.1-0.2c0.5,0,1.1,0,1.4,0.4
				c0.3,0.3,0.3,0.7,0.3,1.1c-0.1,2.1-0.3,4.2-0.6,6.2c-0.2,1.3,0,4.5-1.4,5.1C121,95,122.8,86.8,123,85.7z"/>
			<path class="st3" d="M131.8,80.3c-0.2,0.7-0.3,3.6-0.3,4.3c0,2.9,0.4,5.7,1.1,8.5c0.9,0.1,1.9,0.1,2.8,0.2
				c0.2,0,0.2-11.3,0.1-12.1C135.3,78.7,132.8,77.2,131.8,80.3z"/>
			<path class="st3" d="M137.8,70.1c0.8,1.5,1.4,3.2,1.2,4.9c0,0.4-0.1,0.7-0.2,1.1c-0.1,0.5-0.1,1.1,0,1.6c0,0.3,0.1,0.6,0.3,0.8
				c0.3,0.2,0.7,0.1,0.9-0.2s0.3-0.7,0.3-1c0-0.3,0-0.6,0-0.9c0.7,1.1,1.1,2.3,1.1,3.6c0,0.3,0,0.7,0.1,0.9c0.1,0.3,0.4,0.6,0.7,0.5
				c0.2,0,0.4-0.2,0.5-0.4c0.1-0.2,0.1-0.4,0.1-0.7c0-1.2-0.2-2.4-0.7-3.7c0.7,1,0.9,2.3,1.1,3.5c0,0.2,0.1,0.5,0.2,0.7
				c0.1,0.2,0.4,0.4,0.6,0.3c0.3-0.1,0.4-0.5,0.4-0.9c0-1.5-0.6-3.3-1.4-4.1c1,0.8,1.7,2.2,1.9,3c0.1,0.2,0.1,0.4,0.3,0.6
				c0.1,0.2,0.4,0.3,0.6,0.2c0.2-0.1,0.3-0.4,0.2-0.7c-0.1-1.5-1.3-3.2-2.2-3.8c0.8,0.3,1.3,0.9,1.8,1.6c0.1,0.1,0.2,0.3,0.3,0.3
				c0.1,0.1,0.3,0.1,0.4,0c0.1-0.1,0.1-0.2,0.1-0.3c0-1-0.7-1.9-1.5-2.4s-1.8-0.8-2.6-1.3c-1.3-0.7-2.3-1.9-3-3.2
				c-0.2-0.4-0.4-0.8-0.8-0.8c-0.3,0-0.5,0.2-0.7,0.4C137.9,69.7,138.1,69.9,137.8,70.1z"/>
			<path class="st3" d="M130.1,45.8c-1.1,0-2.1,0.7-2.6,1.6c-0.3,0.5-0.4,1-0.5,1.5c-0.3,1.3-0.2,2.7,0.3,3.9s1.7,2.2,3,2.3
				c0.3,0.1,0.7,0,1-0.1c0.5-0.2,0.9-0.6,1.3-1c0.8-1,1.4-2.3,1.6-3.5C134.5,48,132.8,45.7,130.1,45.8z"/>
			<path class="st3" d="M119.2,54.7c0-0.8-0.1-1.6,0-2.4c0-0.4,0.4-1,0.7-1.4c0.1-0.2,0.2-0.3,0.3-0.5c0.2-0.4,0.3-0.8,0.2-1.2
				c-0.1-0.4-0.4-0.8-0.8-0.8c-0.1-2.7,0-2.4-0.1-3.7c0-0.2,0-0.5-0.1-0.7c-0.1-0.2-0.3-0.4-0.6-0.4c-0.3,0-0.5,0.4-0.6,0.6
				c-0.5,1.1-0.1,1.9-0.3,3.5c-0.1-0.4-0.5-0.7-0.9-0.6s-0.6,0.3-0.9,0.6c-0.1-0.3-0.5-0.5-0.8-0.4s-0.5,0.5-0.4,0.8
				c-0.1-0.3-0.3-0.4-0.6-0.1c-0.2,0.2-0.5,0.9-0.5,1.2c0,0.4,0,0.8,0.2,1.2c0.4,1,1.6,1.4,2,2.4c0.2,0.5,0.5,1,0.6,1.5
				s0.3,1.1,0.8,1.3C118.1,56.1,118.7,55.3,119.2,54.7z"/>
			<g>
				<path class="st0" d="M130.1,55.2c2.8,0.1,5.7,0.9,7.6,2.9c1,1.1,1.7,2.3,2.3,3.6c2.2,4.7,4,11.8,3.9,11.8
					c-1.7,0.6-3.4,1.1-5.2,1.3c-1.8-5.2-2.4-4.7-3.2-10.2c1,4.1,0.9,6,0.9,10.3c0,2.9,0,4.6,0.1,7.5c-5.1-0.7-10.3-0.8-15.4-0.3
					c0.1-7.1,3-18.5,3.1-19.3c-2.9,0.1-3.4,0.2-6.2,0.4c-0.5,0-1.1,0-1.6-0.2c-0.7-0.4-1-1.1-1.2-1.9c-0.9-2.9-1.2-5.9-0.9-8.9
					c2.1,1.8,4.8,1.3,6.4-0.8c0,0,0,3.2,0.5,4.7C123.7,56,128.9,55.2,130.1,55.2z"/>
				<path class="st0" d="M133,53.9c0.2,1.1-0.4,2.4-0.1,3.5c-1,0-1.9,0.3-2.9,0.3c-0.8,0-2.3,0-2.3-0.8c0-0.3,0.4-0.7,0.4-1
					c0.2-0.5,0.1-1.1,0.1-1.6C128.4,54.3,131.1,54.2,133,53.9z"/>
			</g>
			<path class="st1" d="M117.9,51.5c-0.3,0-0.6-0.1-0.7-0.4c-0.1-0.2-0.1-0.4-0.1-0.6c0.1-0.4,0.3-0.8,0.9-1.2
				c0.6-0.5,1.7-1,2.5-1.2l0.1,0.3c-0.7,0.2-1.8,0.7-2.4,1.2c-0.4,0.3-0.7,0.7-0.7,1c0,0.1,0,0.3,0.1,0.4c0.1,0.2,0.4,0.2,0.6,0.2
				c0.3-0.1,0.5-0.3,0.7-0.4l0.2,0.3c-0.2,0.2-0.5,0.4-0.9,0.5C118,51.5,118,51.5,117.9,51.5z"/>
			<path class="st1" d="M118.1,49.2c-0.1-0.7-0.6-2.1-0.8-2.8l0.3-0.1c0.3,0.7,0.7,2.1,0.8,2.9L118.1,49.2z"/>
			<path class="st1" d="M117.2,50.7c-0.6-0.2-0.9-0.8-1.1-1.7c-0.1-0.5-0.1-1.1-0.1-1.7c0-0.1,0-0.3,0-0.4l0.4,0c0,0.1,0,0.3,0,0.4
				c0,0.6,0,1.2,0.1,1.7c0.1,0.8,0.4,1.3,0.9,1.5L117.2,50.7z"/>
			<path class="st1" d="M116,51.1c-0.1,0-0.3,0-0.5-0.1c-0.4-0.2-0.5-0.8-0.6-1.2c-0.2-0.9-0.3-1.8-0.3-2.7l0.4,0
				c-0.1,0.9,0.1,1.8,0.3,2.6c0.1,0.5,0.3,0.9,0.4,0.9c0.2,0.1,0.5,0.1,0.6,0c0.3-0.2,0.4-0.5,0.4-0.6l0.4,0c0,0.2-0.2,0.7-0.6,0.9
				C116.4,51.1,116.2,51.1,116,51.1z"/>
			<path class="st4" d="M127.1,86.9c-1-0.1-4,0.1-5.1,0.1c0.2,1.6,0.3,3.3,0.5,4.9c0.7,0,1.5,0,2.2-0.1c0.3,0,0.7-0.1,1-0.2
				c0.4-0.1,0.5-0.1,0.6-0.5c0.2-0.7,0.1-1.5,0.2-2.2C126.7,88.7,126.9,87.9,127.1,86.9z"/>
			<path class="st4" d="M132.2,91.7c1.2-0.1,2.4-0.2,3.6-0.3c0-1.5,0.2-3.6,0.3-5.1c-1.9,0.3-3.2,0.5-5,1
				C131.5,88.7,131.8,90.2,132.2,91.7z"/>
			<path class="st2" d="M121.6,89.5c2.1,1,4.5,0.4,5.6,0c0.2,2.5,0.3,4.9,0.5,7.5l-11.1,0c-0.1,0,0-1.1,0.5-1.7
				c0.8-1.1,1.9-1.8,3.2-2.2C120.4,92.9,121.3,90.2,121.6,89.5z"/>
			<path class="st2" d="M131.2,89.5c1.8,0.8,4.2,0,5.6-0.4c0-0.1,0.1,1.9,0.3,2.9c0.4-0.2,1,0,1.4,0.2c1.9,0.7,3.5,2.5,4.1,4.5
				h-11.7L131.2,89.5z"/>
			<path class="st3" d="M134.7,48.2c0.2-0.1,0.4-0.2,0.6-0.2c0.2,0,0.4,0.1,0.5,0.4c0.1,0.3-0.1,0.7-0.3,1.1
				c-0.1,0.2-0.2,0.5-0.3,0.8c-0.1,0.3-0.2,0.6-0.3,0.8c-0.1,0.3-0.3,0.5-0.6,0.7c-0.3,0.1-0.6,0.1-0.8-0.1
				c-0.2-0.2-0.2-0.6-0.1-0.9C133.7,49.7,133.8,48.7,134.7,48.2z"/>
			<path class="st3" d="M125.1,49.5c0.1,0.4,0.5,0.6,0.6,1c0.1,0.3,0.2,0.5,0.3,0.8c0.1,0.3,0.3,0.5,0.6,0.6c1.1,0.2,1-1.9,0.7-2.5
				c-0.2-0.5-0.7-1.1-1.4-1C125.4,48.4,124.9,49,125.1,49.5z"/>
			<path class="st2" d="M131.9,46.6c-0.3,0-0.6,0.3-0.8,0.6c-0.3,0.5-0.6,0.9-0.9,1.4c0-0.6-0.1-1.1,0.1-1.7c-0.6,1-1.4,1.8-2.3,2.3
				c0.3-0.6,0.6-1.3,0.8-2c-1,0.8-1.8,2.1-1.9,3.5c-0.3-0.9-0.6-1.8-0.7-2.7c-0.1-0.9,0-1.9,0.5-2.7c0.5-0.8,1.4-1.4,2-1.4
				c0-0.6-0.6-1.2-1.1-0.9c0.8-0.6,1.8,0.2,2.1,0.9c0.2-0.8,0.8-1.4,1.5-1.5c-0.9,0.6-0.6,1.5-0.5,1.6c1-0.4,3-0.1,3.8,2.1
				c0.2,0.7,0.4,1.3,0.4,2.1c0,1.1-0.6,2.7-1.2,3.6c0-2.5-0.2-3.7-0.4-4.1C133.1,47.1,132.4,46.6,131.9,46.6z"/>
			<path class="st4" d="M131.6,60.1c-1-0.3-2-0.1-3,0.1c-0.7,0.2-1.5,0.5-2,1c-0.8,0.8-0.9,2.1-1,3.3c0,0.9-0.1,1.8,0.2,2.7
				c0.5,1.1,1.6,1.9,2.7,2.4c1.1,0.5,2.4,0.9,3.5,0.4c0.5-0.2,0.9-0.6,1.3-1c1.2-1.4,1.6-3.3,1.2-5
				C134.1,62.4,133.4,60.6,131.6,60.1z"/>
			<path class="st1" d="M129.7,62c-0.6,0.1-1.1,0.6-1.1,1.2c0,0.4,0.1,0.9-0.1,1.3c-0.1,0.2-0.3,0.3-0.4,0.4
				c-0.3,0.3-0.5,0.7-0.6,1.1c0,0.5,0.2,1,0.7,1.2c0.6,0.2,1.1-0.3,1.6-0.4c0.5-0.1,1,0.2,1.5,0.3s1.1,0.1,1.4-0.3
				c0.1-0.2,0.1-0.4,0.2-0.6c0-0.4,0-0.8-0.3-1.1c-0.1-0.1-0.3-0.2-0.5-0.3C131.1,64.2,131.2,61.8,129.7,62z"/>
		</g>
		<g>
			<path class="st4" d="M50.3,219.3l14.1,15.6c1,1.1,2.7,1.2,3.9,0.3l7.4-6.1c1.2-1,1.4-2.9,0.3-4.1l-13.7-15.2
				c-1-1.1-2.6-1.2-3.8-0.4l-7.8,5.8C49.4,216.1,49.2,218,50.3,219.3z"/>
			<path class="st4" d="M60.3,211.1"/>
			<polygon class="st1" points="60.3,211.1 63.1,214.5 55.4,220.7 52.6,217.3 			"/>
			<polygon class="st3" points="64.7,216.3 57.2,222.2 66.7,233 73.9,226.6 			"/>
			
				<rect x="67.9" y="215.2" transform="matrix(0.7483 -0.6633 0.6633 0.7483 -130.5816 101.2513)" class="st4" width="0.5" height="15.1"/>
			
				<rect x="66.2" y="216.3" transform="matrix(0.7629 -0.6466 0.6466 0.7629 -128.9924 96.101)" class="st4" width="0.5" height="15.2"/>
			
				<rect x="64.8" y="217.8" transform="matrix(0.7557 -0.6549 0.6549 0.7557 -131.7398 97.6837)" class="st4" width="0.5" height="15.3"/>
			
				<rect x="63.1" y="218.7" transform="matrix(0.7546 -0.6562 0.6562 0.7546 -133.1192 97.1939)" class="st4" width="0.5" height="15.7"/>
			
				<rect x="56.9" y="220.9" transform="matrix(0.7385 -0.6742 0.6742 0.7385 -132.8896 99.7443)" class="st4" width="10.6" height="0.5"/>
			
				<rect x="58.6" y="222.7" transform="matrix(0.7358 -0.6772 0.6772 0.7358 -134.0886 102.2336)" class="st4" width="10.7" height="0.5"/>
			
				<rect x="60.3" y="224.6" transform="matrix(0.7558 -0.6548 0.6548 0.7558 -131.1907 97.9007)" class="st4" width="10.8" height="0.5"/>
			
				<rect x="62.3" y="226.2" transform="matrix(0.7433 -0.6689 0.6689 0.7433 -134.1482 103.2738)" class="st4" width="10.4" height="0.5"/>
			
				<rect x="63.5" y="228" transform="matrix(0.7304 -0.6831 0.6831 0.7304 -137.3231 108.6179)" class="st4" width="10.9" height="0.5"/>
			<polygon class="st4" points="58.6,217.4 57.3,216.2 58.5,214.8 58.1,214.3 57.3,214.9 57.6,215.4 57.2,215.7 56.6,214.8 
				58.2,213.6 59.2,214.9 58,216.2 58.6,216.7 59.6,215.8 60,216.1 			"/>
			<polygon class="st4" points="60,214.6 58.8,213.1 59.2,212.8 60.1,213.8 61.1,212.8 62.1,214.3 61.6,214.6 61,213.6 			"/>
			<polygon class="st4" points="57.4,218.4 55.6,216.3 55.1,217 54.6,216.7 55.6,215.4 57.8,218 			"/>
		</g>
		<path class="st1" d="M156.8,224.6c-0.3,0-0.7-0.1-0.9-0.4c-0.8-0.6-5.7-2.2-7.2-1.3c-0.7,0.4-1.6,0.1-1.9-0.6
			c-0.4-0.7-0.1-1.6,0.6-1.9c2-1.1,5.6-0.4,8.1,0.5c0.3-2.5,1.6-5.4,3.3-6.9c0.6-0.5,1.5-0.4,2,0.1c0.5,0.6,0.4,1.5-0.1,2
			c-1.6,1.4-2.6,5.2-2.3,6.7c0.1,0.6-0.1,1.2-0.7,1.5C157.3,224.5,157.1,224.6,156.8,224.6z M181,213.9c-0.3,0-0.7-0.1-0.9-0.3
			c-2.1-1.8-5.6-1.7-7.9-0.9c-0.7,0.3-1.6-0.1-1.8-0.9c-0.3-0.7,0.1-1.6,0.9-1.8c2.4-0.9,5.5-1.1,8.2-0.1c0-0.6,0.1-1.2,0.1-1.6
			c0.2-1.9,0.8-4.5,2.3-5.8c0.6-0.5,1.5-0.5,2,0.1c0.5,0.6,0.5,1.5-0.1,2c-1.3,1.1-1.6,6.1-1.4,7.2c0.3,0.5,0.2,1.2-0.3,1.7
			C181.7,213.8,181.3,213.9,181,213.9z M182.2,211.9L182.2,211.9L182.2,211.9z M182.1,211.6C182.1,211.6,182.1,211.6,182.1,211.6
			C182.1,211.6,182.1,211.6,182.1,211.6z M218.5,213.3c-0.3,0-0.6-0.1-0.9-0.3c-1.1-0.8-5.4-0.3-6.6,0c-0.2,0.1-0.5,0.2-0.8,0.2
			c-0.8,0-1.4-0.6-1.4-1.4c0-0.1,0-0.1,0-0.2c0.1-2.3-0.4-4.7-1.6-6.7c-0.4-0.7-0.2-1.5,0.5-2c0.7-0.4,1.5-0.2,2,0.5
			c1.2,1.9,1.8,4.2,2,6.4c2.3-0.4,5.9-0.6,7.6,0.7c0.6,0.5,0.8,1.4,0.3,2C219.4,213.1,219,213.3,218.5,213.3z M197,211
			c-0.5,0-0.9-0.2-1.2-0.6c-0.7-1-4.4-3.6-6.8-3.6c-0.8,0-1.4-0.6-1.4-1.4c0-0.8,0.6-1.4,1.4-1.4c2.5,0,5.5,1.6,7.5,3.2
			c1.4-2.4,3.9-4.1,6.3-4.8c0.8-0.2,1.5,0.2,1.8,0.9c0.2,0.8-0.2,1.5-0.9,1.8c-2.2,0.7-4.6,2.6-5.2,4.9c-0.1,0.6-0.6,1-1.1,1.1
			C197.1,211,197,211,197,211z M224.3,208c-0.5,0-1-0.3-1.2-0.7c-0.9-1.6-1-3.7-0.2-6.5c-2.8-0.3-6.4-1.7-7.3-2.4
			c-0.6-0.5-0.7-1.4-0.2-2c0.5-0.6,1.4-0.7,2-0.2c0.9,0.6,5.9,2.1,6.9,1.8c0.5-0.2,1.1,0,1.5,0.3c0.4,0.4,0.5,1,0.3,1.5
			c-1.3,3.6-1.1,5.3-0.6,6.1c0.4,0.7,0.2,1.5-0.5,1.9C224.8,207.9,224.5,208,224.3,208z M217.4,196.2
			C217.4,196.2,217.4,196.2,217.4,196.2C217.4,196.2,217.4,196.2,217.4,196.2z M103.7,201.8c-0.1,0-0.3,0-0.4-0.1
			c-0.5-0.2-0.9-0.6-1-1.1c-0.5-2.7-2.2-5.1-4.6-6.5c-0.7-0.4-0.9-1.3-0.5-1.9c0.4-0.7,1.3-0.9,1.9-0.5c2.4,1.4,4.3,3.6,5.3,6.2
			c2.2-1.6,4.8-2.7,7.5-3c0.8-0.1,1.5,0.5,1.6,1.2c0.1,0.8-0.5,1.5-1.2,1.6c-2.9,0.4-5.6,1.7-7.6,3.7
			C104.4,201.7,104.1,201.8,103.7,201.8z M119.1,200.1c-0.3,0-0.5-0.1-0.8-0.2c-0.5-0.3-0.7-0.9-0.6-1.5c0.6-3-0.4-6.4-2.6-8.6
			c-0.6-0.5-0.6-1.4,0-2c0.5-0.6,1.4-0.6,2,0c2.2,2.2,3.6,5.3,3.7,8.5c2.5-0.9,5.3-1,7.9-0.2c0.7,0.2,1.2,1,0.9,1.8
			c-0.2,0.7-1,1.2-1.8,0.9c-2.6-0.8-5.6-0.4-7.8,1.1C119.7,200.1,119.4,200.1,119.1,200.1z M147.4,199.9c-0.3,0-0.7-0.1-1-0.4
			c-1.7-1.6-7.5-2.1-8.6-1.7c-0.5,0.2-1.1,0.1-1.5-0.2s-0.6-0.9-0.5-1.4c1-4.3,0.9-7.4-0.4-9.7c-0.4-0.7-0.2-1.5,0.5-1.9
			c0.7-0.4,1.5-0.2,1.9,0.5c1.5,2.5,1.9,5.7,1.2,9.7c3-0.1,7.4,0.8,9.3,2.6c0.6,0.5,0.6,1.4,0.1,2
			C148.1,199.8,147.8,199.9,147.4,199.9z M84.6,198.4c-0.4,0-0.8-0.2-1.1-0.5c-0.8-1-3.8-3.4-5.9-2.5c-0.7,0.3-1.6,0-1.9-0.8
			c-0.3-0.7,0-1.6,0.8-1.9c2.9-1.2,5.9,0.5,7.8,2c1.1-1.7,2.8-3.8,5-4.8c0.7-0.3,1.6,0,1.9,0.8c0.3,0.7,0,1.6-0.8,1.9
			c-1.8,0.7-3.5,3.1-4.5,5.1c-0.2,0.4-0.6,0.7-1.1,0.8C84.7,198.4,84.6,198.4,84.6,198.4z M74,184.8c-0.5,0-0.9-0.2-1.2-0.6
			c-0.4-0.7-0.3-1.5,0.4-2c1.6-1,2.5-3.6,2.4-4.3c-0.2-0.6-0.1-1.2,0.4-1.6c0.5-0.4,1.2-0.4,1.7,0c0.5,0.4,3.1,0.9,5.2-0.6
			c0.6-0.5,1.5-0.3,2,0.3c0.5,0.6,0.3,1.5-0.3,2c-2.1,1.5-4.5,1.7-6.4,1.4c-0.5,1.9-1.9,4.1-3.5,5.2C74.5,184.7,74.2,184.8,74,184.8
			z M75.6,177.9C75.6,177.9,75.6,177.9,75.6,177.9C75.6,177.9,75.6,177.9,75.6,177.9z M197.7,181.7c-0.8,0-1.4-0.6-1.4-1.4
			c0-2.2,1.2-4.2,2.7-5.7c-1.4-1.3-2.9-3.4-2.9-5.1c0-0.8,0.6-1.4,1.4-1.4c0.8,0,1.4,0.6,1.4,1.4c0,1,2.1,3.5,2.9,3.8
			c0.5,0.2,0.8,0.7,0.9,1.2s-0.2,1.1-0.7,1.3c-1.5,0.9-2.9,2.7-2.9,4.5C199.1,181,198.5,181.7,197.7,181.7
			C197.7,181.7,197.7,181.7,197.7,181.7z M85.6,174.1c-0.2,0-0.3,0-0.5-0.1c-0.7-0.3-1.1-1.1-0.8-1.8c0.4-1-0.7-5.3-1.2-6.1
			c-0.3-0.4-0.4-0.9-0.2-1.4c0.2-0.5,0.6-0.8,1.1-0.9c2.2-0.4,3.7-1,4.9-3.3c0.4-0.7,1.2-0.9,1.9-0.6c0.7,0.4,0.9,1.2,0.6,1.9
			c-1.4,2.7-3.3,3.8-5.2,4.4c0.8,2.2,1.3,5.4,0.7,7C86.7,173.8,86.1,174.1,85.6,174.1z M192.9,169.4c-0.2,0-0.4,0-0.6-0.2
			c-0.7-0.4-1-1.2-0.6-1.9c0.8-1.6,3.4-3.3,5.4-4.4c-1.9-1.7-3.9-4.2-3.5-6.7c0.1-0.8,0.8-1.3,1.6-1.2c0.8,0.1,1.3,0.8,1.2,1.6
			c-0.2,1.3,1.5,3.5,4.2,5.5c0.5,0.3,0.7,1,0.5,1.5c-0.1,0.5-0.5,0.9-1.1,1c-0.9,0.3-5.2,2.7-5.8,4
			C194,169.1,193.5,169.4,192.9,169.4z M87.8,159.3c-0.7,0-1.3-0.5-1.4-1.2c-0.3-2.2-1.4-3.8-3.4-4.5c-0.6-0.2-0.9-0.7-0.9-1.3
			c0-0.6,0.4-1.1,0.9-1.3c2.2-0.8,2.8-2.4,3-4.9c0.1-0.8,0.8-1.4,1.5-1.3c0.8,0.1,1.4,0.8,1.3,1.5c-0.1,1.3-0.4,4.1-2.5,6
			c1.6,1.3,2.6,3.2,2.9,5.5c0.1,0.8-0.5,1.5-1.2,1.6C88,159.3,87.9,159.3,87.8,159.3z M91.4,147.3c-0.6,0-1.2-0.4-1.4-1
			c-0.8-2.3-3.1-4.5-5.5-5.1c-0.5-0.1-0.9-0.6-1-1.1c-0.1-0.5,0.1-1.1,0.6-1.4c2.4-1.7,3.9-4.3,3.9-6.7c0-0.8,0.6-1.4,1.4-1.4
			c0,0,0,0,0,0c0.8,0,1.4,0.6,1.4,1.4c0,2.7-1.2,5.4-3.3,7.5c2.4,1.3,4.4,3.6,5.2,6c0.2,0.7-0.2,1.5-0.9,1.8
			C91.7,147.3,91.5,147.3,91.4,147.3z M175.9,146.5c-0.7,0-1.3-0.5-1.4-1.2c-0.4-2-0.7-5.3,0.5-8.4c-2.2,0-4.2-0.8-6.1-2.3
			c-0.6-0.5-0.7-1.4-0.2-2c0.5-0.6,1.4-0.7,2-0.2c1.9,1.6,4.1,2,6.5,1.3c0.6-0.2,1.2,0,1.6,0.5c0.4,0.5,0.3,1.2,0,1.7
			c-1.6,2.1-2.2,5.3-1.5,8.9c0.1,0.8-0.4,1.5-1.1,1.7C176,146.5,176,146.5,175.9,146.5z M228.5,138.5c-0.4,0-0.7-0.1-1-0.4
			c-1.7-1.7-4.1-2.2-6.1-1.1c-0.7,0.4-1.6,0.1-1.9-0.6c-0.4-0.7-0.1-1.6,0.6-1.9c2.4-1.2,5.3-1.1,7.6,0.3c0.5-1.1,1.1-2,1.7-2.7
			c1.1-1.3,2.4-2.2,3.5-3c0.6-0.5,1.5-0.3,2,0.3c0.5,0.6,0.3,1.5-0.3,2c-1.2,0.8-2.2,1.6-3,2.5c-0.6,0.7-1.4,1.9-1.6,3.4
			c-0.1,0.5-0.4,1-1,1.2C228.8,138.5,228.7,138.5,228.5,138.5z M157.4,137.2C157.4,137.2,157.4,137.2,157.4,137.2
			c-0.8,0-1.4-0.6-1.4-1.4c0-2.6,1-5.2,2.7-7.1c-0.7-0.3-1.4-0.8-2-1.3c-1.3-1.2-2.1-2.6-2.9-3.9c-0.4-0.7-0.2-1.5,0.5-1.9
			c0.7-0.4,1.5-0.2,1.9,0.5c0.7,1.2,1.4,2.4,2.4,3.3c0.9,0.9,2,1.3,3,1.2c0.7-0.1,1.3,0.3,1.5,0.9c0.2,0.6,0,1.3-0.6,1.7
			c-2.2,1.4-3.7,4.1-3.7,6.7C158.8,136.6,158.2,137.2,157.4,137.2z M218,132.7c-0.4,0-0.8-0.2-1.1-0.5c-0.5-0.6-0.4-1.5,0.2-2
			c2.2-1.8,3-3.6,3-6.9c0-0.5,0.3-1,0.8-1.3c0.5-0.2,1-0.2,1.5,0.1c2,1.5,4.9,2,7,1.4c0.8-0.2,1.5,0.2,1.8,0.9
			c0.2,0.8-0.2,1.5-0.9,1.8c-2.2,0.7-5,0.4-7.4-0.6c-0.4,2.9-1.6,5-3.9,6.8C218.6,132.6,218.3,132.7,218,132.7z M85.1,132.6
			c-0.3,0-0.7-0.1-0.9-0.4c-1.2-1.1-2.4-1.8-3.5-2.2c-1.3-0.4-2.6-0.5-3.6,0c-0.6,0.2-1.2,0.1-1.6-0.4c-0.4-0.5-0.5-1.1-0.2-1.6
			c1.3-2.2,1.5-4.9,0.6-7.3c-0.3-0.7,0.1-1.6,0.9-1.8c0.7-0.3,1.6,0.1,1.8,0.9c0.8,2.3,0.9,4.8,0.2,7.2c0.9,0,1.8,0.2,2.7,0.5
			c1.5,0.5,2.9,1.4,4.4,2.7c0.6,0.5,0.7,1.4,0.1,2C85.9,132.4,85.5,132.6,85.1,132.6z M29.8,120.1c-0.4,0-0.8-0.2-1.1-0.5
			c-1.8-2.1-4.2-3.6-6.8-4.3c-0.8-0.2-1.2-1-1-1.8c0.2-0.8,1-1.2,1.8-1c2.4,0.7,4.6,1.9,6.4,3.5c1.1-2.6,3-4.9,5.5-6.3
			c0.7-0.4,1.6-0.2,1.9,0.5c0.4,0.7,0.2,1.6-0.5,1.9c-2.5,1.4-4.3,4-4.8,6.8c-0.1,0.5-0.5,1-1,1.1C30,120.1,29.9,120.1,29.8,120.1z
			 M132.9,118c-0.2,0-0.3,0-0.5-0.1c-2.3-0.9-4.2-2.6-5.5-4.7c-1.8,1.9-4.2,3.2-6.8,3.6c-0.8,0.1-1.5-0.4-1.6-1.2
			c-0.1-0.8,0.4-1.5,1.2-1.6c2.6-0.5,5-2.1,6.4-4.3c0.3-0.5,0.8-0.7,1.4-0.7c0.6,0.1,1,0.5,1.2,1c0.7,2.3,2.5,4.3,4.8,5.2
			c0.7,0.3,1.1,1.1,0.8,1.8C134,117.6,133.4,118,132.9,118z M105.3,112.6c-0.4,0-0.7-0.1-1-0.4c-1.7-1.7-2.3-3.8-2.5-5.4
			c-0.1-0.8-0.1-1.7-0.1-2.5c-2.3,1.1-4.9,1.6-7.4,1.3c-0.8-0.1-1.3-0.8-1.2-1.6c0.1-0.8,0.8-1.3,1.6-1.2c2.8,0.3,5.8-0.5,7.9-2.3
			c0.5-0.4,1.1-0.4,1.6-0.1c0.5,0.3,0.8,0.9,0.7,1.5c-0.2,1.3-0.5,3-0.2,4.6c0.2,1.5,0.8,2.8,1.7,3.7c0.6,0.6,0.6,1.5,0,2
			C106.1,112.5,105.7,112.6,105.3,112.6z M68.5,109.7c-0.3,0-0.6-0.1-0.9-0.3c-0.6-0.5-0.7-1.4-0.2-2c1.3-1.6,2.1-5.5,1.5-7.4
			c-0.2-0.6,0-1.2,0.5-1.5c0.5-0.4,1.1-0.4,1.6-0.1c2.4,1.5,5.6,1.1,7.9,0.4c0.8-0.2,1.5,0.2,1.8,1s-0.2,1.5-1,1.8
			c-2.2,0.6-5.1,1.1-7.8,0.3c-0.1,2.6-1,5.6-2.3,7.3C69.4,109.5,68.9,109.7,68.5,109.7z M148.9,108.6c-0.3,0-0.6-0.1-0.8-0.3
			c-0.6-0.5-0.8-1.4-0.3-2c1.4-1.9,3-4.7,2.6-7.6c-0.1-0.6,0.2-1.2,0.8-1.5c0.5-0.3,1.2-0.2,1.6,0.2c1.9,1.8,4.5,3.1,7.1,3.6
			c0.8,0.1,1.3,0.9,1.1,1.7c-0.1,0.8-0.9,1.3-1.7,1.1c-2.2-0.4-4.3-1.3-6.2-2.5c-0.4,2.1-1.4,4.3-3.1,6.6
			C149.8,108.4,149.4,108.6,148.9,108.6z M37,98.7c-0.4,0-0.8-0.2-1-0.4c-1.8-2-3.1-4.4-3.6-7.1c-2.2,1.1-4.8,1.7-7.3,1.4
			c-0.8-0.1-1.4-0.8-1.3-1.6c0.1-0.8,0.8-1.4,1.6-1.3c2.5,0.2,5.3-0.6,7.3-2.1c0.4-0.3,1-0.4,1.5-0.2c0.5,0.2,0.8,0.7,0.8,1.3
			c0,2.8,1.1,5.5,3,7.6c0.5,0.6,0.5,1.5-0.1,2C37.7,98.6,37.3,98.7,37,98.7z M189.3,73.6c-0.3,0-0.6-0.1-0.9-0.3
			c-1.7-1.4-4.1-2-6.2-1.7c-0.8,0.1-1.5-0.4-1.6-1.2c-0.1-0.8,0.4-1.5,1.2-1.6c2.3-0.3,4.6,0.1,6.7,1.2c0.9-2.1,2.5-3.8,4.6-4.7
			c0.7-0.3,1.6,0,1.9,0.7c0.3,0.7,0,1.6-0.7,1.9c-1.8,0.8-3.2,2.6-3.5,4.6c-0.1,0.5-0.4,0.9-0.9,1.1
			C189.7,73.6,189.5,73.6,189.3,73.6z M169.5,65.6c-0.6,0-1.1-0.3-1.3-0.9c-1-2.4-3.1-4.3-5.5-5.2c-0.5-0.2-0.8-0.6-0.9-1.1
			c-0.1-0.5,0.1-1,0.5-1.3c2-1.6,3.7-3.6,5.2-5.7c0.4-0.7,1.3-0.8,2-0.4c0.7,0.4,0.8,1.3,0.4,2c-1.2,1.8-2.5,3.5-4.1,4.9
			c2.2,1.3,4.1,3.4,5.1,5.8c0.3,0.7,0,1.6-0.8,1.9C169.9,65.5,169.7,65.6,169.5,65.6z M89.8,45.4c-0.4,0-0.9-0.2-1.2-0.6
			c-0.7-1-1.6-1.8-2.5-2.2c-1-0.4-2-0.4-2.8-0.1c-0.5,0.2-1.2,0.1-1.6-0.3c-0.4-0.4-0.6-1-0.3-1.6c0.6-1.4,0.9-2.9,0.9-4.5
			c0-1-0.1-1.7-0.5-2.2c-0.5-0.6-0.3-1.5,0.3-2c0.6-0.5,1.5-0.3,2,0.3c0.9,1.3,1,2.9,1,3.9c0,1.1-0.1,2.1-0.4,3.1
			c0.8,0,1.7,0.2,2.5,0.6c1.4,0.6,2.6,1.6,3.7,3.1c0.5,0.6,0.3,1.5-0.3,2C90.4,45.3,90.1,45.4,89.8,45.4z M98,43.7
			c-0.4,0-0.9-0.2-1.1-0.6c-0.5-0.6-0.3-1.5,0.3-2c0.9-0.7,1.8-1.1,2.8-1.4c1.6-0.4,3.1-0.1,4.4,0.2c0-0.2,0-0.5,0-0.7
			c0.1-1,0.2-2.2,0.6-3.3c0.5-1.4,1.5-2.4,2.6-3c0.7-0.3,1.6,0,1.9,0.7c0.3,0.7,0,1.6-0.7,1.9c-0.5,0.2-0.9,0.8-1.2,1.5
			c-0.3,0.8-0.4,1.7-0.5,2.5c0,0.5,0.3,1.3,0.7,2c0.3,0.6,0.1,1.4-0.4,1.8c-0.6,0.4-1.3,0.3-1.8-0.1c-0.2-0.1-0.8-0.2-1-0.2
			c-0.2,0-0.4-0.1-0.5-0.1c-1.2-0.3-2.4-0.5-3.5-0.3c-0.6,0.1-1.1,0.4-1.7,0.9C98.6,43.6,98.3,43.7,98,43.7z M105.6,43
			C105.6,43,105.6,43,105.6,43C105.6,43,105.6,43,105.6,43z"/>
	</g>
</g>
</svg>
