<?xml version="1.0" encoding="utf-8"?>
<!-- Generator: Adobe Illustrator 21.0.0, SVG Export Plug-In . SVG Version: 6.00 Build 0)  -->
<svg version="1.1" id="Layer_2" xmlns="http://www.w3.org/2000/svg" xmlns:xlink="http://www.w3.org/1999/xlink" x="0px" y="0px"
	 viewBox="0 0 300 300" style="enable-background:new 0 0 300 300;" xml:space="preserve">
<style type="text/css">
	.st0{fill:#ED1C24;}
	.st1{fill:#22B573;}
	.st2{fill:#FFFFFF;}
	.st3{fill:#1B1464;}
	.st4{fill:#FFD407;}
	.st5{clip-path:url(#SVGID_2_);fill:#FFD407;}
	.st6{clip-path:url(#SVGID_4_);fill:#FFD407;}
	.st7{clip-path:url(#SVGID_6_);fill:#FFFFFF;}
	.st8{clip-path:url(#SVGID_6_);fill:#22B573;}
	.st9{clip-path:url(#SVGID_8_);fill:#FFFFFF;}
	.st10{clip-path:url(#SVGID_8_);fill:#22B573;}
	.st11{clip-path:url(#SVGID_10_);fill:#FFFFFF;}
	.st12{clip-path:url(#SVGID_10_);fill:#22B573;}
</style>
<g>
	<rect x="38.6" y="22.9" class="st0" width="44.4" height="72.7"/>
	<polygon class="st0" points="8,278.1 292.1,278.2 292.1,106.5 149.9,22.3 7.9,106.9 	"/>
	<polygon class="st1" points="22.6,263.6 276.6,263.7 276.6,116 149.3,40 22.5,117.2 	"/>
	<path class="st2" d="M136,135c0-3.3-0.8-6.7-2.2-9.7c-0.8,0.5-2.1,0.9-3.1,1.1c-3,0.9-6,2-8.8,3.4c-1.2,0.6-2.5,1.2-3.7,0.8
		c-0.7,3.2,0.3,6.2,2.8,8.3c0.4,0.4,0.9,0.7,1.4,0.9c0.8,0.4,1.7,0.5,2.6,0.5c3,0,5.9-0.8,8.4-2.4C134.5,137.2,136,136.2,136,135z"
		/>
	<path class="st3" d="M70,210c-0.7,0-1.4-0.2-2.1-0.5c-1.6-0.8-2.1-2.3-2.3-3.5c-3.2,0.8-6.9,0.4-10.2-1.3c-1.6-0.8-3.5-2.4-3.9-4.4
		c-0.2-0.9-0.1-1.8,0.4-2.7c-2.4-1.5-4.5-3.5-5.5-5.8c-0.7-1.5-0.9-2.9-0.7-4.1c0.2-1.3,1-2.5,2.2-3.4c-0.1-0.2-0.3-0.4-0.4-0.6
		c-1.7-2.5-2-4.6-0.9-6.3c0.2-0.2,0.4-0.5,0.6-0.7c-0.4-1-0.5-2.1-0.4-3c0.3-1.3,1.1-2.4,2.1-3.1c-1-1.6-1.7-3.4-1.7-5.4
		c0-1.1,0.2-2.1,0.6-2.9c0.6-1.1,1.6-1.9,2.7-2.3c-0.3-1.8-0.2-3.7,0.5-5.5c0.5-1.4,1.2-2.4,2.1-3.2c1.2-1,2.8-1.4,4.4-1.4
		c0.4-2.4,1.6-4.6,3.4-6.1c0.8-0.6,1.6-1,2.4-1.3c1.1-0.3,2.5-0.3,4,0.5c2.4-3.6,6.5-6,10.3-7l0.5,2.1c-3.4,0.9-7.1,3-9.1,6.2
		c0.8,0.7,1.5,1.7,2.3,3c1.5,2.5,1.5,4.8-0.1,6c-1.2,0.9-2.8,0.9-4,0c-1.5-1.2-2.1-3.2-1.7-5.6c0.2-1,0.5-1.9,0.8-2.7
		c-0.8-0.4-1.6-0.5-2.5-0.3c-0.5,0.1-1.1,0.4-1.6,0.9c-1.4,1.2-2.4,2.9-2.7,4.8c0.2,0.1,0.3,0.1,0.5,0.2c2.4,1,4.1,2.9,5.2,4.2
		c0.9,1.1,1.7,2.3,1.6,3.8c0,1.1-0.6,2-1.4,2.5c-1.1,0.6-2.3,0.5-3.6-0.4c-2.6-1.8-4.3-5-4.4-8.5c0,0,0-0.1,0-0.1
		c-1,0-2.1,0.2-2.9,0.9c-0.6,0.5-1.1,1.3-1.5,2.3c-0.5,1.4-0.6,2.9-0.4,4.4c0.5,0,1,0,1.4,0.1c2.1,0.4,3.9,1.8,5.5,3.1
		c0.5,0.4,2,1.9,2,3.5c0,0.8-0.3,1.4-0.9,2c-0.8,0.8-2,1-3.1,0.6c-3.1-1.1-5.5-3.8-6.6-6.8c-0.6,0.2-1,0.6-1.3,1.2
		c-0.2,0.5-0.4,1.1-0.3,1.9c0,1.3,0.5,3,1.6,4.6c0.6-0.2,1.1-0.3,1.7-0.3c2.4-0.1,4.6,0.9,6.5,1.7c0.7,0.3,2.7,1.2,2.7,3.1
		c0,1.1-0.7,2.1-1.8,2.5c-1.4,0.6-2.8,0.2-4-0.3c-2-0.8-4.1-2.2-5.8-4.1c-0.7,0.4-1.2,1.1-1.3,1.8c-0.1,0.5,0,1,0.1,1.5
		c0.2-0.1,0.4-0.1,0.5-0.1c2.3-0.5,4.3,0.4,6.1,1.2c2.1,0.9,4.3,2,5.1,4.3c0.3,0.8,0.3,1.5,0,2.1c-0.2,0.4-0.6,0.9-1.4,1.2
		c-0.5,0.2-1,0.2-1.5,0.1c-0.5-0.1-1.1-0.2-1.6-0.3c2,1,3.6,2.6,5.1,4.1c0.4,0.5,1.4,1.4,1,2.7c-0.2,0.8-0.8,1.4-1.6,1.6
		c-1.2,0.4-2.4-0.1-3-0.4c-3.2-1.4-6.1-3.5-8.4-6.1c-0.6,0.4-1.2,1.1-1.4,2.1c-0.1,0.8,0.1,1.8,0.6,2.9c0.9,1.9,2.9,3.7,5.2,5.1
		c1.7-1,5.1-2.3,7.8-2.7c2.1-0.3,3.5,0,4.3,0.8c0.4,0.4,0.9,1.1,0.7,2.3c-0.3,2.2-1.7,3.6-4,4c-2.4,0.4-5.6-0.4-8.6-1.9
		c-0.2,0.4-0.2,0.8-0.2,1.2c0.2,1,1.4,2.2,2.8,3c3,1.5,6.4,1.8,9.2,1c0.2-3.5,1-7,2.4-10.2c0.4-1,1.3-2.2,2.5-2.5
		c0.7-0.2,1.4-0.1,1.9,0.4c0.4,0.3,0.7,0.7,0.9,1.3c0.2-0.4,0.5-0.9,0.9-1.3c0.7-0.7,1.8-0.9,2.7-0.6c0.7,0.2,1.2,0.6,1.5,1.2
		c0.1-0.7,0.4-1.3,0.7-1.9c0.5-0.8,1.2-1.4,2.1-1.6c0.8-0.2,1.5,0,2.2,0.5c1.4,1,1.7,3,1.8,3.6c0.3,2.2,0.2,4.4-0.2,6.5
		c0.5,0.2,1,0.3,1.5,0.4c0.4,0.1,0.9,0.1,1.3-0.1c0.4-0.2,0.8-0.8,1-1.9c0.2-1.1,0.3-2.3,0.3-3.5c-0.4-0.1-0.7-0.3-1.1-0.5
		c-2.6-1.5-4.4-4.4-4.6-7.5c0-1.1,0.3-2.1,0.9-2.7c0.5-0.5,1-0.7,1.7-0.7c0.9,0,1.7,0.5,2.2,1.3c1.6,2.4,2.6,5.2,2.9,8.1
		c1-0.4,1.7-1.9,2-3.2c0.1-0.5,0.1-0.9,0.1-1.4c-0.7-0.1-1.5-0.5-2.1-1c-1.9-1.7-3.2-4-3.7-6.5c-0.1-0.4-0.3-1.9,0.5-3
		c0.4-0.5,1-0.8,1.6-0.8c0.7,0,1.5,0.3,2,0.8c1.9,2,3.1,4.6,3.6,7.3c0.1-0.2,0.2-0.5,0.2-0.8c0.2-1,0.4-2,0.6-2.9
		c-1.6-1.1-2.9-2.8-3.6-4c-1.2-2.4-1.2-5.3-0.1-6.8c0.7-0.9,1.7-1.3,2.8-1.2c0.9,0.1,1.7,0.6,2.3,1.4c0.9,1.2,1.6,3.8,0.9,9.5
		c0.5,0.2,1,0.3,1.4,0.2c0.9-0.3,1.7-1.1,2.2-2.1c0.4-0.8,0.4-1.7,0.1-2.5l2-0.8c0.5,1.3,0.4,2.7-0.2,4.1c-0.7,1.5-1.9,2.7-3.4,3.2
		c-0.8,0.3-1.7,0.2-2.5,0c-0.1,0.7-0.3,1.5-0.5,2.4c-0.4,1.9-1.3,2.8-2.1,3.2c0,0.7-0.1,1.3-0.2,2c-0.3,2.1-1.6,4.7-3.9,5.1
		c0,1.2-0.1,2.5-0.4,3.7c-0.1,0.6-0.5,2.6-2.1,3.4c-0.9,0.4-1.8,0.3-2.5,0.3c-0.6-0.1-1.1-0.2-1.6-0.4c-0.4,1.2-1,2.6-2.1,3.7
		c-1.6,1.5-4,1.8-5.5,0.7c-0.2-0.2-0.4-0.3-0.6-0.5c-0.1,0.2-0.2,0.4-0.3,0.6c-0.9,1.5-2.4,3.6-4.9,4.3C70.8,209.9,70.4,210,70,210z
		 M67.7,205.2c0.1,1.3,0.4,2,1.2,2.4c0.5,0.3,1.1,0.3,1.7,0.2c1.3-0.3,2.4-1.4,3.6-3.3c0.3-0.5,0.6-1,0.8-1.5
		c-0.7-1.3-1.2-2.7-1.5-4.2c-0.8,2.5-2.6,4.8-5.1,6.1C68.2,205,68,205.1,67.7,205.2z M77.4,202.9c0.2,0.4,0.5,0.7,0.8,0.9
		c0.8,0.6,2.1,0.2,2.9-0.5c0.7-0.6,1.2-1.6,1.6-3c-1-0.6-1.9-1.4-2.6-2.2c-0.4-0.6-0.8-1.2-1.1-1.9
		C78.8,198.5,78.3,200.7,77.4,202.9z M71.2,193.1C71.2,193.1,71.2,193.1,71.2,193.1c-0.3,0.1-0.9,0.6-1.2,1.3
		c-1.2,2.6-1.9,5.5-2.2,8.3c3.2-2,4.8-6.1,3.6-9.3C71.4,193.3,71.3,193.2,71.2,193.1C71.2,193.1,71.2,193.1,71.2,193.1z M76.3,192.8
		c-0.2,0-0.3,0.1-0.5,0.2c-0.5,0.4-0.7,1.1-0.6,2.4c0.1,1.6,0.4,3.3,0.9,4.8c0.6-1.9,0.8-3.8,0.8-5.8c0-0.9-0.2-1.5-0.5-1.6
		C76.4,192.8,76.3,192.8,76.3,192.8z M55.8,197.2c2.2,1,4.5,1.4,6.1,1.2c1.8-0.3,2.2-1.3,2.3-2.1c0-0.4-0.1-0.5-0.1-0.6
		c-0.1-0.1-0.6-0.5-2.6-0.2C59.6,195.7,57.3,196.5,55.8,197.2z M81.9,190.5c0,0-0.1,0-0.1,0c-0.3,0.1-0.5,0.2-0.7,0.5
		c-0.9,1.7-0.7,4,0.6,5.7c0.4,0.5,0.8,0.9,1.3,1.3c0.3-1.7,0.3-3.5,0.1-5.3c-0.1-1-0.5-1.8-0.9-2.2C82.1,190.6,82,190.5,81.9,190.5z
		 M86,184.8c-0.1,0-0.1,0-0.1,0c-0.1,0.1-0.3,0.6-0.3,1.1c0.1,2.3,1.4,4.4,3.3,5.6c-0.4-2.3-1.2-4.5-2.5-6.5
		C86.4,184.9,86.2,184.8,86,184.8C86,184.8,86,184.8,86,184.8z M51.3,185.1c2,2.1,4.4,3.8,7.1,5c0.7,0.3,1.1,0.4,1.5,0.3
		c0.1,0,0.2-0.1,0.2-0.2c0-0.1-0.1-0.3-0.5-0.6c-1.8-1.9-4-3.9-6.5-4.5C52.6,185,51.9,185,51.3,185.1z M89.7,178.3
		C89.7,178.3,89.7,178.3,89.7,178.3C89.7,178.3,89.7,178.3,89.7,178.3c-0.1,0.1-0.3,0.6-0.2,1.2c0.4,2.1,1.5,3.9,3,5.3
		c0.2,0.2,0.4,0.3,0.6,0.4c-0.4-2.5-1.4-4.9-3.1-6.8C89.9,178.4,89.8,178.3,89.7,178.3z M48.2,178.7c-0.3,0.4-0.7,1.5,0.9,3.8
		c0.2,0.3,0.4,0.5,0.6,0.8c1.3-0.4,2.7-0.5,3.9-0.2c0,0,0,0,0,0c-2-0.9-3.7-2.3-5.1-3.9C48.5,179,48.4,178.9,48.2,178.7z M50,177.6
		c0.1,0.1,0.1,0.2,0.2,0.2c2,2.4,4.8,4,7.9,4.5c0.2,0,0.3,0,0.5,0c0.1,0,0.2-0.1,0.2-0.1c0,0,0-0.2-0.1-0.5c-0.5-1.5-2.2-2.3-3.9-3
		C53.2,178,51.6,177.3,50,177.6z M94.7,170.7c-0.3,0-0.4,0.1-0.6,0.3c-0.6,0.8-0.7,2.8,0.3,4.6c0.4,0.8,1.1,1.7,2,2.5
		c0.4-3.4,0.2-5.8-0.6-6.9c-0.2-0.3-0.5-0.5-0.8-0.5l-0.1,0C94.8,170.7,94.7,170.7,94.7,170.7z M52.3,171.5c1.1,1.1,2.6,2.1,4.5,2.9
		c0.9,0.4,1.7,0.6,2.3,0.3c0.2-0.1,0.4-0.3,0.4-0.6c0-0.3-0.5-0.7-1.4-1.1c-1.7-0.8-3.7-1.6-5.6-1.6
		C52.5,171.5,52.4,171.5,52.3,171.5z M53,161.8c0.9,2.3,2.8,4.3,5.1,5.2c0.3,0.1,0.7,0.1,0.9-0.1c0.1-0.1,0.2-0.2,0.2-0.4
		c0-0.5-0.5-1.3-1.3-2c-1.4-1.2-2.8-2.3-4.5-2.6C53.3,161.8,53.2,161.8,53,161.8z M59.4,152.6c0.2,2.6,1.5,5,3.5,6.3
		c0.9,0.6,1.2,0.4,1.3,0.4c0.2-0.1,0.4-0.4,0.4-0.8c0-0.8-0.4-1.5-1.1-2.4C62,154.4,60.7,153.3,59.4,152.6z M67.8,146.4
		c-0.2,0.5-0.4,1.1-0.5,1.7c-0.2,1.2-0.2,2.7,0.9,3.6c0.5,0.3,1,0.4,1.4,0.1c1-0.8-0.3-3-0.4-3.3C68.8,147.6,68.3,147,67.8,146.4z"
		/>
	<path class="st0" d="M177.1,114.3c0,0-40.6,20.2-80.9,26.5c0,0,16.6,5.9,6.5,19.4L85.4,165c0,0-6.3-3.3-9.8-18.4
		c-3.7-16.3,8.7-24.4,8.7-24.4S125.8,102,173.5,94c0,0,16.3-3.2,23.1,13.2c5.5,13.4-0.2,22-0.2,22l-19,5.9
		C177.3,135.1,165.5,125.7,177.1,114.3z"/>
	<path class="st0" d="M164.5,160.2c3.2-0.1,6.4-0.2,9.4,0.7c5,1.5,8.3,5.2,11.1,8.9c3.9,5.2,7.5,10.6,11,16
		c3.7,5.7,7.4,11.4,11.1,17.1c3.2,5,6.5,10,8.8,15.3c4.1,9.5,5.1,19.9,2.8,29.8c-36.7,5.9-74.8,6.5-111.7,1.5
		c-1.5-0.2-3.1-0.5-4.2-1.3c-1.1-0.9-4-52.9-1.3-77.6c0.2-1.4,0.3-2.8,1.1-4.1C106.7,159.4,151.6,160.6,164.5,160.2z"/>
	<path class="st0" d="M117.1,157.5c2.4-0.1,4.9-0.3,7.3-0.4c-0.8,4-0.8,8.1,0.1,12c-0.1-0.3-3.7,0.3-3.9,0.2
		c-1.7-0.6-0.8-0.2-1.7-1.8C117.5,165.2,117.6,160.1,117.1,157.5z"/>
	<path class="st0" d="M155.6,157.5c2.4-0.1,4.9-0.3,7.3-0.4c-0.8,4-0.8,8.1,0.1,12c-0.1-0.3-3.7,0.3-3.9,0.2
		c-1.7-0.6-0.8-0.2-1.7-1.8C156,165.2,156.1,160.1,155.6,157.5z"/>
	<path class="st4" d="M179.9,180.2c8,9.1,7.7,24.2-0.6,33c-4.9,5.2-11.8,8-18.9,8.6c-7.1,0.6-14.2-0.9-20.8-3.5
		c-2.2-0.9-4.5-1.9-6.2-3.6c-1.8-1.7-2.9-4.1-3.9-6.3c-2.5-5.3-5-11-4.2-16.8c0.6-4.4,3.2-8.4,6.4-11.6c7-7.1,17.2-10.8,27.1-9.9
		c3,0.3,6.1,0.6,9,1.5c2.9,0.9,5.9,2.1,8.1,4.3C177.5,177.6,178.2,178.3,179.9,180.2z"/>
	<path class="st3" d="M165.5,177.3c-6.5-2.4-13.9-2.6-20.3,0c-6.4,2.7-11.6,8.4-12.9,15.2s1.5,14.4,7.4,18.1
		c2.8,1.7,6.1,2.6,9.3,3.3c3.1,0.7,6.2,1.4,9.4,1.4c7.1-0.1,14-4.4,17.3-10.7C180.9,194.5,176.2,181.3,165.5,177.3z"/>
	<g>
		<path class="st4" d="M165.5,183c-0.3,0.9,0,1.9,0.6,2.5s1.6,1,2.5,0.9c1.8-0.2,3.1-2.4,1.7-3.8C169,181.2,166.2,180.7,165.5,183z"
			/>
		<path class="st4" d="M162.7,178.6c-0.7-0.3-1.4-0.3-2.1-0.1c-0.7,0.1-1.3,0.4-1.7,0.9c-0.6,0.7-0.6,1.7-0.2,2.5
			c0.4,0.8,1.2,1.3,2,1.5c0.9,0.2,1.8,0.1,2.5-0.5C164.6,181.8,164.4,179.3,162.7,178.6z"/>
		<path class="st4" d="M152.7,177.5c-0.8,0.3-1.3,1-1.6,1.7c-0.1,0.3-0.3,0.6-0.3,1c0,1,0.9,1.7,1.8,2.1c0.3,0.1,0.5,0.2,0.8,0.2
			c0.4,0,0.8-0.2,1.2-0.3C158.2,180.6,156.5,176.1,152.7,177.5z"/>
		<path class="st4" d="M148,179.6c-1.6-0.8-3.7-0.1-4.6,1.5c-0.2,0.3-0.3,0.6-0.3,1c0,0.5,0.4,1,0.7,1.4c0.3,0.4,0.7,0.8,1.2,1.1
			c0.6,0.3,1.3,0.2,1.9,0c0.6-0.2,1.1-0.7,1.5-1.2C149.4,182.2,149.5,180.4,148,179.6z"/>
		<path class="st4" d="M139.7,184c-1.2,0.3-2.1,1.5-2.2,2.7c-0.1,0.6,0,1.2,0.4,1.6c0.3,0.3,0.7,0.5,1.1,0.7
			c1.9,0.6,3.7-0.5,4.1-2.4C143.4,184.8,141.4,183.5,139.7,184z"/>
		<path class="st4" d="M135.3,191.6c-0.8,0.9-1,2.4-0.5,3.5c0.6,1.1,2,1.7,3.1,1.3c1.5-0.5,2.9-2.5,2.1-4.1
			C139.2,190.6,136.4,190.2,135.3,191.6z"/>
		<path class="st4" d="M139.5,198.5c-0.9-0.4-2-0.2-2.9,0.3c-0.3,0.2-0.5,0.3-0.7,0.6c-0.3,0.4-0.4,0.9-0.4,1.3
			c-0.1,0.8-0.2,1.6,0.3,2.2c0.3,0.4,0.8,0.5,1.3,0.7c0.7,0.3,1.5,0.5,2.3,0.3c0.7-0.2,1.3-0.8,1.7-1.5
			C141.8,201.1,141,199,139.5,198.5z"/>
		<path class="st4" d="M142.8,204.2c-1,0.3-1.8,1.1-2,2.2c-0.3,1.1,0.1,2.3,1,2.9c1.5,1,3.7-0.4,4.3-2
			C146.8,205.1,144.3,203.7,142.8,204.2z"/>
		<path class="st4" d="M152.8,206.3c-0.3-0.2-0.6-0.3-0.9-0.3c-1-0.2-2,0-2.8,0.6c-0.8,0.6-1.4,1.6-1.3,2.6c0,1,0.6,2,1.5,2.4
			c0.9,0.4,2,0.3,2.8-0.3C153.4,210.3,154.7,207.4,152.8,206.3z"/>
		<path class="st4" d="M157.7,206.8c-1.3,0.3-2.2,1.6-2.4,3c0,0.3,0,0.6,0.1,0.9c0.2,0.5,0.6,0.9,1,1.2c0.5,0.2,1,0.3,1.5,0.4
			c0.6,0.1,1.2,0.1,1.7-0.2C162.7,210.8,160.8,206.1,157.7,206.8z"/>
	</g>
	<g>
		<defs>
			<path id="SVGID_1_" d="M164.5,159.8c3.2-0.1,6.4-0.2,9.4,0.7c5,1.5,8.3,5.2,11.1,8.9c3.9,5.2,7.5,10.6,11,16
				c3.7,5.7,7.4,11.4,11.1,17.1c3.2,5,6.5,10,8.8,15.3c4.1,9.5,5.1,19.9,2.8,29.8c-36.7,5.9-74.8,6.5-111.7,1.5
				c-1.5-0.2-3.1-0.5-4.2-1.3c-1.1-0.9-4-52.9-1.3-77.6c0.2-1.4,0.3-2.8,1.1-4.1C106.7,159,151.6,160.2,164.5,159.8z"/>
		</defs>
		<clipPath id="SVGID_2_">
			<use xlink:href="#SVGID_1_"  style="overflow:visible;"/>
		</clipPath>
		<path class="st5" d="M139.5,235.1c-5.4,0-10.8-0.1-16.2-0.5c-5.2-0.3-9.4-4.1-11.3-10.1c-5.7-19-7.2-42.2-4-63.7l2.1,0.3
			c-3.2,21.2-1.7,44.1,3.9,62.8c1.5,5.1,5,8.4,9.3,8.6c17.6,1.1,35.6,0,53-1c7.6-0.4,15.5-0.9,23.2-1.2c8.1-0.3,16.7-0.9,23.3-5.4
			l1.2,1.8c-7.1,4.8-15.9,5.4-24.4,5.7c-7.7,0.3-15.6,0.7-23.1,1.2C164.4,234.4,152,235.1,139.5,235.1z"/>
	</g>
	<path class="st3" d="M122.9,113.2c-0.8,1.4-1.8,2.8-2.9,4c0.9-0.4,1.8-0.8,2.8-1s2,0,2.8,0.6c0.9,0.7,1.2,1.8,1.5,2.9
		c-0.8,0.4-1.7,0.3-2.5,0.4c-3.1,0.5-6.3,0.7-9.5,0.8c0.7-1,2.4-6.6,2.6-8.3C119,113.2,121.4,113.6,122.9,113.2z"/>
	<path class="st3" d="M135,107.3c-0.5,2.7-1.6,5.3-3.1,7.5c1.1,0.1,2.1-0.1,3.2-0.2c2.9-0.2,5.7-0.5,8.6-0.7c1-0.9,1.1-2.6,0.3-3.7
		c-0.8-1-2.3-1.4-3.5-1.1c-1.3,0.3-2.4,1.1-3.4,2.1c0.8-1.5,1.7-3,2.4-4.5C138,106.8,136.5,107.2,135,107.3z"/>
	<path class="st2" d="M135.7,90.1c1.8,0.6,6.9,8.1,7,8.2c0.1,0.2-1.2,7.6-0.9,9c-2.2,1.2-7.7,2.4-10.2,2.1c1-2,2.1-5.7,2.3-7.9
		c-1.6-1.8-2.8-2.8-4.4-4.6c-0.6,4.6-1.6,11.9-2.2,16.5c-3,0.8-10.5,1.5-10.5,1.2c0-0.1,4.7-21.5,6.7-26.6c3.6-0.5,6.7,3.4,9.7,1.4
		c0.2-0.1,0.3-0.2,0.5-0.3C134.6,89.1,134.9,89.8,135.7,90.1z"/>
	<rect x="56.4" y="42.5" class="st4" width="0" height="0.3"/>
	<g>
		<defs>
			<path id="SVGID_3_" d="M177.1,114.3c0,0-40.6,20.2-80.9,26.5c0,0,16.6,5.9,6.5,19.4L85.4,165c0,0-6.3-3.3-9.8-18.4
				c-3.7-16.3,8.7-24.4,8.7-24.4S125.8,102,173.5,94c0,0,16.3-3.2,23.1,13.2c5.5,13.4-0.2,22-0.2,22l-19,5.9
				C177.3,135.1,165.5,125.7,177.1,114.3z"/>
		</defs>
		<clipPath id="SVGID_4_">
			<use xlink:href="#SVGID_3_"  style="overflow:visible;"/>
		</clipPath>
		<path class="st6" d="M80.9,162.8l-1.7-1.3c4.9-6.2,12.5-10.2,20.4-10.8l0.1,2.1C92.5,153.3,85.4,157,80.9,162.8z"/>
		<path class="st6" d="M173.1,133.2l-1.7-1.3c4.9-6.5,11.1-9.5,20.8-10.1l0.1,2.1C183.2,124.5,177.6,127.1,173.1,133.2z"/>
	</g>
	<g>
		<g>
			<path class="st3" d="M135.3,64.9c-1.6-2.1-5.1-2.5-7.1-0.9c-1.9,1.4-2.4,4-2.7,6.3c-0.1,1.1-0.2,2.3-0.5,3.4
				c-0.6,2.2-2.2,4-4.2,5.1c-2,1.1-5.2,1.8-7.5,1.6c1.3,2.5,4.3,1.7,5.1,2.1c-0.7,0.7-1.8,1-2.8,1s-1.9-0.3-2.9-0.5
				c-0.7-0.2-1.4-0.4-2-0.6c0.1,0.7-0.1,1.3,0.4,1.8c1.3,1.4,3.2,2.2,5.1,2.4c-1.9,1.8-5,2.3-7.3,1.1c1,1.1,1.9,2.1,3.2,2.7
				c3.7,1.7,8.1,1.1,11.6-0.8c3.5-1.9,6.3-4.8,8.7-8c1.8-2.4,3.4-4.9,4.2-7.8C137.5,71,137.1,67.3,135.3,64.9z"/>
			<path class="st4" d="M143.5,81.6c0.7,0,1.5,0.1,2.2,0.1c1.5,0.1,3,0.4,4.1,1.3c0.3,0.2,0.5,0.4,0.7,0.6c0.4,0.3,0.8,0.5,1.2,0.7
				c0.2,0.1,0.5,0.2,0.7,0.1c0.3-0.1,0.4-0.5,0.3-0.8c-0.1-0.3-0.4-0.5-0.6-0.7c-0.2-0.2-0.5-0.3-0.7-0.4c1.1,0,2.2,0.2,3.2,0.8
				c0.2,0.1,0.5,0.3,0.8,0.3c0.3,0,0.6-0.1,0.7-0.3c0.1-0.2,0-0.4-0.1-0.5s-0.3-0.3-0.5-0.4c-0.9-0.5-1.9-0.9-3.1-1.2
				c1.1-0.1,2.1,0.4,3.1,0.8c0.2,0.1,0.4,0.2,0.6,0.2c0.2,0,0.5-0.1,0.5-0.3c0.1-0.3-0.2-0.5-0.5-0.7c-1.1-0.7-2.8-1-3.7-0.8
				c1-0.4,2.4-0.2,3.1-0.1c0.2,0,0.4,0.1,0.6,0.1s0.4-0.2,0.4-0.4c0-0.2-0.2-0.4-0.4-0.5c-1.2-0.6-3-0.5-3.8-0.1
				c0.6-0.5,1.3-0.6,2-0.6c0.1,0,0.3,0,0.4-0.1c0.1-0.1,0.2-0.2,0.2-0.3c0-0.1-0.1-0.1-0.2-0.2c-0.7-0.5-1.7-0.4-2.5,0
				c-0.8,0.4-1.4,0.9-2.2,1.3c-1.1,0.6-2.4,0.9-3.7,0.8c-0.9-0.1-1.7-0.4-2.6-0.6C143.5,80.4,143.5,81,143.5,81.6z"/>
			<path class="st4" d="M115.5,78.1c-0.7,0-1.5,0.1-2.2,0.1c-1.5,0.1-3,0.5-4.1,1.4c-0.3,0.2-0.5,0.4-0.7,0.6
				c-0.4,0.3-0.7,0.5-1.2,0.7c-0.2,0.1-0.5,0.2-0.7,0.1c-0.3-0.1-0.4-0.5-0.3-0.8c0.1-0.3,0.4-0.5,0.6-0.7c0.2-0.2,0.5-0.3,0.7-0.4
				c-1.1,0-2.2,0.3-3.2,0.9c-0.2,0.1-0.5,0.3-0.8,0.4s-0.6,0-0.7-0.3c-0.1-0.2,0-0.4,0.1-0.5c0.1-0.2,0.3-0.3,0.4-0.4
				c0.9-0.5,1.9-1,3-1.2c-1.1-0.1-2.1,0.4-3.1,0.8c-0.2,0.1-0.4,0.2-0.6,0.2c-0.2,0-0.5-0.1-0.5-0.3c-0.1-0.3,0.2-0.5,0.5-0.7
				c1.1-0.7,2.7-1.1,3.7-0.9c-1-0.4-2.4-0.2-3.1,0c-0.2,0-0.4,0.1-0.6,0.1c-0.2,0-0.4-0.2-0.4-0.3c0-0.2,0.2-0.4,0.4-0.5
				c1.2-0.6,3-0.5,3.8-0.2c-0.6-0.5-1.3-0.5-2.1-0.6c-0.1,0-0.3,0-0.4-0.1c-0.1-0.1-0.2-0.2-0.2-0.3c0-0.1,0.1-0.1,0.2-0.2
				c0.7-0.5,1.7-0.4,2.5,0c0.8,0.3,1.4,0.9,2.2,1.3c1.1,0.6,2.5,0.9,3.7,0.7c0.9-0.1,1.7-0.4,2.6-0.6
				C115.4,76.9,115.5,77.5,115.5,78.1z"/>
			<path class="st4" d="M133.3,77.7c-0.6,0.9-1.7,1.3-2.7,1.2s-2-0.5-2.8-1.1c-0.7-0.5-1.4-1.4-1-2.2c0.3-0.7,1.3-0.9,1.8-1.6
				c0.2-0.3,0.5-0.7,0.8-0.7c0.9,0.2,1.7,0.7,2.6,0.6c-0.4,0.7-0.3,1.5,0,2.1C132.4,76.8,132.8,77.1,133.3,77.7z"/>
			<path class="st4" d="M132.9,73.9c-0.7,0.9-1.9,1.8-3,1.4c-0.8-0.3-1.3-1.2-1.7-1.9c-0.7-1.5-1.5-3.1-1.3-4.8
				c0.3-2.7,4.5-4.3,6.8-2.6C136.2,67.8,134.3,72,132.9,73.9z"/>
			<path class="st0" d="M123.3,92.2c0.4-0.2,0.7-0.4,1.1-0.6c1.7-0.6,3.3,1.6,5.1,1.3c0.9-0.1,1.6-0.8,2.5-1
				c0.8-0.2,1.6,0.1,2.4,0.3c0.8,0.2,1.6,0.5,2.4,0.3s1.5-1.1,1.2-1.9c-0.2-0.6-1-0.9-1.3-1.5c-1-1.5,1.4-3.7,0.4-5.2
				c-0.4-0.7-1.4-1.2-1.1-2c0.3-0.6,1.2-0.5,1.7-0.1c0.5,0.4,1,1,1.6,1.1c0.6,0.1,3.9,1.4,5.6,0.4c0.8-1,0.9-2.4,0.4-3.5
				c-0.6-1.1-1.8-1.8-3.1-1.8c-0.7,0-1.4,0.3-2,0.2c-1.5-0.2-2.3-1.9-3.7-2.4c-2.3-0.7-4.6,2.1-6.9,1.5c-2.2-0.5-3.3-3.7-5.6-3.5
				c-1.4,0.1-2.4,1.6-3.8,1.6c-0.5,0-1-0.2-1.4-0.4c-1.2-0.4-2.5-0.6-3.7-0.2s-2.2,1.6-2.2,2.8c0,1.3,1.3,2.5,2.5,2.2
				c0.8-0.2,1.4-0.8,2.1-0.9c1.5-0.1,2.4,2.2,3.9,2.2c0.6,0,1.2-0.3,1.7,0c0.6,0.3,0.6,1.3,0.1,1.8s-1.1,0.8-1.8,1.1
				c-0.6,0.3-1.3,0.7-1.5,1.4c-0.2,0.8,0.3,1.4,0.3,2.2c0,0.9-0.7,1.7-0.7,2.5C119.8,91.8,122,92.8,123.3,92.2z"/>
		</g>
		<path class="st3" d="M126,72.4c0.4-0.4,0.8-0.8,1.3-1.2c0.2-0.2,0.4-0.4,0.6-0.4c0.2-0.1,0.5,0,0.7,0c0.5,0,1-0.4,1.2-0.9
			c0.2-0.5,0-1.1,0-1.6c0-0.5,0.2-1.2,0.7-1.4c0.3-0.1,0.6,0,0.9,0c0.7,0,1.4-0.3,1.8-0.9c0.4-0.5,0.5-1.3,0.3-1.9
			c-1.4,0.1-2.9-0.2-4.2,0.3c-1.3,0.5-2.5,1.4-3,2.6c-0.2,0.4-0.3,0.9-0.3,1.3C125.8,69.7,125.9,71,126,72.4z"/>
	</g>
	<g>
		<path class="st2" d="M236.7,161.6c0,0-2.2,24.6-27.4,29.1l16.8,16.8c0,0,22.6-3.9,28.2-29.9L236.7,161.6z"/>
		<path class="st1" d="M233.8,206.6l-2.1,0c0-6-0.2-11.4-3-15.5l-19.4,0.6l-0.1-2.1l28-0.8l-1.6-27.1l2.1-0.1l1,16.9
			c3.5,1.9,8.2,3.2,12.5,3.4c2.3,0.1,2.8,1.3,2.9,1.9L252,184c0,0,0,0.1,0.1,0.1c-0.1,0-0.3-0.2-1-0.2c-4.1-0.2-8.6-1.4-12.2-3.1
			l0.6,10l-8.4,0.2C233.8,196,233.8,202,233.8,206.6z"/>
	</g>
	<g>
		<defs>
			<path id="SVGID_5_" d="M210.8,155.8l-8.9,22.2c0,0-16.6-19.3-39.8-12l8.3-20.3C170.3,145.7,193.6,133.5,210.8,155.8z"/>
		</defs>
		<clipPath id="SVGID_6_">
			<use xlink:href="#SVGID_5_"  style="overflow:visible;"/>
		</clipPath>
		<path class="st7" d="M210.8,155.8l-8.9,22.2c0,0-16.6-19.3-39.8-12l8.3-20.3C170.3,145.7,193.6,133.5,210.8,155.8z"/>
		<path class="st8" d="M195.6,178c0-1.1,0-2.5,0-3.9c0-4.8-0.1-10.7-0.4-14.9c-0.9,0.2-1.9,0.5-2.8,0.7c-2.9,0.7-5.6,1.4-8.1,1.8
			l-0.5,0.1l-0.4-0.3c-2.6-2.2-4.9-5.2-7.1-8c-0.1-0.1-0.2-0.2-0.3-0.3c-3.9,3.4-6.8,7.8-8.5,12.7l-2-0.7c1.8-5.3,5-10,9.2-13.7
			c-2.4-3-4.8-5.9-7.8-7.5l1.1-1.9c4,2.3,7,6.3,10,10.1c2.1,2.8,4.1,5.4,6.4,7.4c2.3-0.4,4.8-1,7.5-1.7c6.7-1.6,13.6-3.4,19.5-2.3
			c0.2-0.3,0.5-0.5,0.8-0.5c0.5-0.1,1.1,0.2,1.4,0.7c0.3,0.5,0.3,1,0,1.5c-0.3,0.4-0.9,0.8-2.1,0.6c-4.2-0.9-9.2-0.2-14.2,1
			c0.4,4.3,0.4,10.4,0.4,15.4c0,1.4,0,2.7,0,3.9L195.6,178z M211.7,156.1c-0.1,0.2-0.1,0.5,0,0.7c0.2,0.3,0.5,0.3,0.8,0.3
			c0.4-0.1,0.7-0.3,0.7-0.7L211.7,156.1z"/>
	</g>
	<g>
		<defs>
			<path id="SVGID_7_" d="M113,148c-2.6-0.2-5-1.7-7.2-3.2c-5.2-3.8-5.1-6.7-6.9-13c7.8,0.5,15.6-4.1,22.5-7.8
				c0.5,3.1,1.9,5.3,4.2,7.5s7,2.5,10,1.5C137.9,140.6,122.4,148.6,113,148z"/>
		</defs>
		<clipPath id="SVGID_8_">
			<use xlink:href="#SVGID_7_"  style="overflow:visible;"/>
		</clipPath>
		<path class="st9" d="M113,148c-2.6-0.2-5-1.7-7.2-3.2c-5.2-3.8-5.1-6.7-6.9-13c7.8,0.5,15.6-4.1,22.5-7.8c0.5,3.1,1.9,5.3,4.2,7.5
			s7,2.5,10,1.5C137.9,140.6,122.4,148.6,113,148z"/>
		<path class="st10" d="M124.1,146.2c-2.5,0-5-0.4-6.8-1l-1-0.3l0.4-1c0.5-1.5,1-3,1.3-4.5c-5.5,1.8-12.9,3-18.1,2.9l0.1-2.1
			c5.4,0.1,13.2-1.2,18.6-3.2l0.1,0.1c0.9-4.2,1.1-8,1.3-11c0.1-0.9,0.1-1.8,0.2-2.5l2.1,0.2c-0.1,0.7-0.1,1.6-0.2,2.5
			c-0.3,4.2-0.7,10.4-2.9,17.2c3.5,0.9,8.8,1,11.2-0.8l1.3,1.7C129.7,145.7,126.9,146.2,124.1,146.2z"/>
	</g>
	<path class="st3" d="M38.9,278.2h43.7v-42c0,0,1.4-18-21.7-18s-21.9,18.1-21.9,18.1L38.9,278.2z"/>
	<path class="st0" d="M60.9,218.3c-23,0-22.3,18.1-22.3,18.1l-0.1,41.9h22.4V218.3z"/>
	<g>
		<g>
			<defs>
				<path id="SVGID_9_" d="M63.7,78c0,0,11,18.1,35.6,7.9L93.8,108c0,0-23.2,11.9-36-9.7L63.7,78z"/>
			</defs>
			<clipPath id="SVGID_10_">
				<use xlink:href="#SVGID_9_"  style="overflow:visible;"/>
			</clipPath>
			<path class="st11" d="M63.7,78c0,0,11,18.1,35.6,7.9L93.8,108c0,0-23.2,11.9-36-9.7L63.7,78z"/>
			<path class="st12" d="M85.9,111.6c-1.4-4.9-1.7-10-0.9-15c-4.3,2.7-7.8,4.7-9.5,5.1l-0.8,0.2l-1.2-2.1c-1.3-2.1-2.6-4.4-4-6.7
				c-2.6,4.7-5.4,9.3-8.5,13.7l-1.7-1.2c3.3-4.7,6.3-9.6,9-14.7c-2.7-4.9-5.1-9.9-6.4-14.5l2.1-0.6c2,7.2,7.2,15.9,11.4,22.9
				l0.4,0.7c3.7-1.5,13.6-8.2,19.1-11.9c2.2-1.5,3.9-2.6,4.8-3.2l1.1,1.8c-0.9,0.6-2.6,1.7-4.7,3.2c-2.9,2-5.8,3.9-8.5,5.7
				c-1.2,5.3-1.1,10.8,0.5,16.1L85.9,111.6z"/>
		</g>
	</g>
</g>
</svg>
