<svg id="Layer_1" data-name="Layer 1" xmlns="http://www.w3.org/2000/svg" viewBox="0 0 300 300">
  <title>lakas-02</title>
  <g>
    <polygon points="8.1 277.72 291.99 277.84 291.99 168.69 149.92 22.16 8.01 169.1 8.1 277.72" style="fill: #22b573"/>
    <polygon points="116.11 76.11 19.87 170.85 20.37 267.09 211.85 267.09 211.85 171.85 116.11 76.11" style="fill: #fff"/>
    <polygon points="161.07 75.41 138.18 51.8 152.96 37.01 175.86 60.63 161.07 75.41" style="fill: #1b1464"/>
    <polygon points="144.02 92.47 121.12 68.86 135.91 54.07 158.8 77.69 144.02 92.47" style="fill: #1b1464"/>
    <polygon points="169.3 117.76 146.41 94.14 161.19 79.36 184.09 102.97 169.3 117.76" style="fill: #1b1464"/>
    <polygon points="186.76 101.1 163.87 77.48 178.65 62.7 201.54 86.32 186.76 101.1" style="fill: #1b1464"/>
    <polygon points="194.79 143.44 171.89 119.83 186.68 105.04 209.57 128.66 194.79 143.44" style="fill: #1b1464"/>
    <polygon points="212.25 126.79 189.35 103.17 204.13 88.39 227.03 112 212.25 126.79" style="fill: #1b1464"/>
    <polygon points="220.38 169.43 197.48 145.81 212.26 131.03 235.16 154.65 220.38 169.43" style="fill: #1b1464"/>
    <polygon points="237.83 152.77 214.94 129.16 229.72 114.38 252.62 137.99 237.83 152.77" style="fill: #1b1464"/>
    <path d="M230.48,277.84h43.71V235.92s1.39-18-21.64-18S230.61,236,230.61,236Z" style="fill: #ffd407"/>
    <path d="M252.65,217.93c-23,0-22.25,18.08-22.25,18.08l-.14,41.83h22.39Z" style="fill: #1b1464"/>
    <circle cx="236.84" cy="61.3" r="10.27" style="fill: #ffd407"/>
    <rect x="234.89" y="43.68" width="2.13" height="10.88" transform="translate(-4.69 35.87) rotate(-8.61)" style="fill: #ffd407"/>
    <path d="M232.64,56.11a64.07,64.07,0,0,1-5-9.63l2-.81a61.94,61.94,0,0,0,4.8,9.31Z" style="fill: #ffd407"/>
    <path d="M229.94,58.53c-3.33-2-6.63-4.1-9.8-6.32l1.22-1.75c3.13,2.19,6.38,4.28,9.66,6.23Z" style="fill: #ffd407"/>
    <path d="M218.27,62.45l-.37-2.1a32.73,32.73,0,0,1,5.44-.36,29.83,29.83,0,0,0,5.21-.35l.39,2.09a31.89,31.89,0,0,1-5.58.39A30.65,30.65,0,0,0,218.27,62.45Z" style="fill: #ffd407"/>
    <path d="M222.82,69.14l-1.9-1a5.81,5.81,0,0,1,3-2.4l5.41-2.49.89,1.94-5.41,2.49A4,4,0,0,0,222.82,69.14Z" style="fill: #ffd407"/>
    <path d="M227.37,75.21l-1.93-.9a29.41,29.41,0,0,1,4.23-6.61l.08-.09a3.59,3.59,0,0,0,1-1.69l2.12.18A5.28,5.28,0,0,1,231.37,69l-.07.09A27.27,27.27,0,0,0,227.37,75.21Z" style="fill: #ffd407"/>
    <rect x="243.4" y="65.56" width="2.13" height="10.24" transform="translate(16.79 184.35) rotate(-42.66)" style="fill: #ffd407"/>
    <path d="M252.28,69.32c-2.64-1-5.29-2.11-7.85-3.3l.9-1.93c2.52,1.17,5.11,2.26,7.7,3.24Z" style="fill: #ffd407"/>
    <path d="M253.56,63.08l-3.85-.54a21.69,21.69,0,0,0-5.86-.3l-.29-2.11a23.3,23.3,0,0,1,6.44.3l3.85.54Z" style="fill: #ffd407"/>
    <path d="M242.7,58.16l-.52-2.07,10.4-2.64a1.43,1.43,0,0,1,1.49.5,1.16,1.16,0,0,1,0,1.31l-1.79-1.15a1,1,0,0,0,0,1.09.74.74,0,0,0,.77.32Z" style="fill: #ffd407"/>
    <path d="M241.66,56.34l-1.57-1.44c.36-.4.74-.81,1.1-1.22a39.68,39.68,0,0,0,6-9.07l1.92.92a41.81,41.81,0,0,1-6.29,9.55C242.41,55.52,242,55.94,241.66,56.34Z" style="fill: #ffd407"/>
    <rect x="235.53" y="48.69" width="8.13" height="2.13" transform="translate(140.37 273.44) rotate(-77.81)" style="fill: #ffd407"/>
    <path d="M233.13,79.26l-1.94-.87A22,22,0,0,0,232.57,73a26.25,26.25,0,0,1,1.33-5.44l2,.79a24.28,24.28,0,0,0-1.21,5A24,24,0,0,1,233.13,79.26Z" style="fill: #ffd407"/>
    <path d="M240.48,78.48c-1.09-3.15-2.11-6.38-3-9.59l2-.59c.92,3.17,1.93,6.36,3,9.48Z" style="fill: #ffd407"/>
    <path d="M164.44,68.36l-2.08-.45c.77-3.55-.09-7.67-2.41-11.61-2.14-3.62-5.19-6.69-8.15-9.65l1.51-1.5c3,3.06,6.2,6.23,8.47,10.07C164.38,59.61,165.32,64.28,164.44,68.36Z" style="fill: #ffd407"/>
    <path d="M185.14,96.26l-1.64-8.34c-1.47-7.46-3.22-14.5-8.39-18.64l1.33-1.66c5.74,4.59,7.6,12,9.15,19.89l1.64,8.34Z" style="fill: #ffd407"/>
    <path d="M212.43,119.51l-2.13,0a36.44,36.44,0,0,0-10.6-25.85l1.5-1.51A38.61,38.61,0,0,1,212.43,119.51Z" style="fill: #ffd407"/>
    <path d="M236.16,146.16l-2.13-.09A41.53,41.53,0,0,0,226.88,121l1.76-1.2A43.67,43.67,0,0,1,236.16,146.16Z" style="fill: #ffd407"/>
    <path d="M146,83.76l-2.12-.21a30.76,30.76,0,0,0-9.45-25L135.93,57A32.93,32.93,0,0,1,146,83.76Z" style="fill: #ffd407"/>
    <path d="M170.22,109.84a48.38,48.38,0,0,0-10.8-25.46L161,83a50.54,50.54,0,0,1,11.29,26.6Z" style="fill: #ffd407"/>
    <path d="M193.23,136.48l-2.12-.18a40.2,40.2,0,0,0-6.49-25.37l1.78-1.17A42.34,42.34,0,0,1,193.23,136.48Z" style="fill: #ffd407"/>
    <path d="M221.08,163l-2.13-.1a43.39,43.39,0,0,0-7.36-26.13l1.77-1.19A45.54,45.54,0,0,1,221.08,163Z" style="fill: #ffd407"/>
    <g>
      <path d="M100.66,116.06c-4.57,7.05-8.52,10.81-13.46,17.61-5.8,8-7.83,18.14-8.14,28-.2,6.24.29,12.69,3.09,18.27,3.65,7.28,11,12.28,18.88,14.37s16.27,1.54,24.26-.17a45,45,0,0,0,15-5.69,30.74,30.74,0,0,0,13.85-23.5c.87-13.54-7.37-26-16.66-35.86a73.85,73.85,0,0,1-5.83-6.59c-3.4-4.62-5.32-10.09-6.69-15.61-1-3.89-.4-8.5-5.19-8.23-2,.11-13.16,3-14.29,4.19s-1.1,5.1-1.66,6.74A29.66,29.66,0,0,1,100.66,116.06Z" style="fill: #ffd407"/>
      <path d="M112.1,97.34l.13-.06c.92-.37,2,.08,3.07,1.34,1.34,1.52,1.37,3.7,1.39,5.3a240.42,240.42,0,0,0,5.15,46.9l.13.6a68.16,68.16,0,0,1,6.82,1,6.56,6.56,0,0,1,4,1.86,3.82,3.82,0,0,1,.63,3.66,4.89,4.89,0,0,1-3.21,3.26c-2.84.8-5.62-.91-7.12-3a14.91,14.91,0,0,1-2.27-5.41,68.64,68.64,0,0,0-13.31.3,37.83,37.83,0,0,1-1.69,4.18,10.67,10.67,0,0,1-4,4.89c-1.92,1.09-4.91,1-6.35-1s-.57-4.83,1.12-6.36a11.78,11.78,0,0,1,5.83-2.42q2-.38,4-.65A73.54,73.54,0,0,0,109,136.58h0c.76-8,1.13-15.83,1.13-23.88,0-.16,0-.5,0-1C109.69,102.6,110.28,98.27,112.1,97.34Zm8.34,54,0-.18a241.88,241.88,0,0,1-5.18-47.19c0-1.77-.11-3.32-1-4.34-.73-.83-1.22-1-1.42-1-.53.22-1.72,1.92-1.2,13,0,.51,0,.88,0,1,0,8.1-.37,16-1.13,24h0a77,77,0,0,1-2.54,14.84A70.15,70.15,0,0,1,120.44,151.3Zm-14.61,2q-1.59.23-3.15.54a10.56,10.56,0,0,0-5.13,2.07c-1.19,1.08-1.84,3.11-.91,4.41s3,1.35,4.42.56a9.37,9.37,0,0,0,3.38-4.25A35.74,35.74,0,0,0,105.83,153.32Zm24.43,6.24a3.51,3.51,0,0,0,1.7-2.09,2.38,2.38,0,0,0-.35-2.28,5.38,5.38,0,0,0-3.12-1.36c-2-.39-4.1-.69-6.18-.9a12.64,12.64,0,0,0,1.91,4.41c1.16,1.58,3.38,3,5.54,2.4A2.7,2.7,0,0,0,130.26,159.55Z" style="fill: #1b1464"/>
      <path d="M103.69,105.3s11.83-7.9,22.31-2.93l-.27-13.31L115.18,78l-14.5,11.13Z" style="fill: #ed1c24"/>
    </g>
    <path d="M212.12,269.37H17.1l-.51-98.76,98-96.5,97.51,97.51ZM20.63,265.81H208.57V173.09l-94-94-94.45,93Z" style="fill: #22b573"/>
    <g>
      <path d="M50.38,258.89a78.3,78.3,0,0,1,10.41-.35A4.07,4.07,0,0,0,58,256.33a12,12,0,0,0-3.7-.16l-1.31-3.52a.82.82,0,0,0-.28-.43.77.77,0,0,0-.4-.09c-2.07,0-2,.42-2,2.29C50.28,254.8,50.43,258.88,50.38,258.89Z" style="fill: #1b1464"/>
      <path d="M43.68,252.37l-.5,6.52H33.4s1-2.83,6.49-3l1.27-3.72Z" style="fill: #1b1464"/>
      <path d="M53.32,246c.56,2.81,1.15,5.7,2.68,8.08a31.44,31.44,0,0,1-7.69.78q-.9-6.47-1.24-13L44.7,254.15a15.13,15.13,0,0,1-7.54,0l1.75-4.79c1.65-4.52,3.33-9.29,2.69-14.09,0,.08,5.44-.29,6-.27a4.11,4.11,0,0,1,3,1.17C52.66,238.44,52.75,243.2,53.32,246Z" style="fill: #22b573"/>
      <path d="M84.47,258.59q0-.27-.07-.53c-.24-2.1-.3-4.32-.58-6.4a14.12,14.12,0,0,1,3.6-.37A46.35,46.35,0,0,1,89,256.64a4.29,4.29,0,0,1,6.9,2.25Z" style="fill: #1b1464"/>
      <path d="M79.57,251.37l-.64,7.29-10.44.22s3.51-5,7-3.26l1-5Z" style="fill: #1b1464"/>
      <path d="M85.78,234s3.91,15.06,5.46,18a1.65,1.65,0,0,0,.31.45c1.25,1.09-19.55-.27-19.55-.27s6.27-13.85,6-18.74Z" style="fill: #22b573"/>
      <path d="M110.34,252.37c.25.75-.75,3.76-.75,3.76s-7-.75-8.77,2.76l12.53-.5.77-5.62Z" style="fill: #1b1464"/>
      <path d="M123.85,251.89c-.22.85.89,4.19.89,4.19s7-1.07,8.87,2.81l-12.54-.16-1-6.27Z" style="fill: #1b1464"/>
      <path d="M112.07,232.81a16.23,16.23,0,0,1,2.85,0c2.64,0,5.2.18,7.81-.05a48,48,0,0,0,1.25,7.69c1.11,4.81,1.12,9.91,3,14.47a21.82,21.82,0,0,0-7.6.12q-1-6.41-1.8-12.86c-.86,4.33-1.62,8.66-2.11,13l-7.4-1.37L110,240.22A19.45,19.45,0,0,1,112.07,232.81Z" style="fill: #22b573"/>
      <path d="M148.38,254.25h-3.3q.37-5.54,1.23-11c.2-1.26,2.2-.45,2.78.15a2.3,2.3,0,0,1,.49,2.14A55.63,55.63,0,0,1,148.38,254.25Z" style="fill: #22b573"/>
      <path d="M154.85,241.51c-.74.56-.7,1.67-.58,2.59a90.21,90.21,0,0,0,1.76,9.31,8.86,8.86,0,0,0,2.83-.48q-.22-4.11-.71-8.19C158,243.31,157.37,239.58,154.85,241.51Z" style="fill: #22b573"/>
      <path d="M150.2,248.78c-.09,3.23-.46,6.66-.55,9.9l-5.65.11a28.32,28.32,0,0,0-4.33.1,3.34,3.34,0,0,1,1-2.88,3.51,3.51,0,0,1,3-1c.2-2.16.25-4.42.61-6.56C144.28,248.31,148.51,249.48,150.2,248.78Z" style="fill: #1b1464"/>
      <path d="M153.45,258.84c1.46,0,9.44.12,10.28,0-.25-.74-1-3.51-3.51-3.26-.2-2.31-.25-4.67-.44-7-.73,0-1.47,0-2.2,0l-1.85,0c-.78,0-1.13,0-2.28-.05C153.38,252,153.69,255.43,153.45,258.84Z" style="fill: #1b1464"/>
      <path d="M70.24,239.77c-.33.44-1,1.75-2,1.5-.75-.25.22-2,.35-2.43a1.45,1.45,0,0,1-.61.88,4.05,4.05,0,0,1-1.61,1,1.4,1.4,0,0,1-1.61-.65,1.53,1.53,0,0,1,.06-1.25,4.44,4.44,0,0,1,.74-1l1.61-1.84a5.39,5.39,0,0,1,1.08-1,1.72,1.72,0,0,1,1.4-.27C71.88,235.31,71.21,238.48,70.24,239.77Z" style="fill: #ffd407"/>
      <path d="M62.67,235.76a2.26,2.26,0,0,0,.44.35,2.41,2.41,0,0,0,.67.21,12.14,12.14,0,0,1,1.59.47,3.72,3.72,0,0,1,1.51.91,2.09,2.09,0,0,1,.61,1.82,13.06,13.06,0,0,1-.75,1.5c-1.25,1.5-2,.57-2.76,0a3.07,3.07,0,0,1-1.25-1.75c-.3,1.17-.5,2-1.25,1.75s-.71-1.21-.5-1.75a7.56,7.56,0,0,0,.19-1.3.81.81,0,0,0-.26-.45c-2.51-2.7-5.69-4.83-7.45-8.12.52-.55,1.53-1.18,2.23-.79A13.6,13.6,0,0,1,57.92,231Q60.25,233.45,62.67,235.76Z" style="fill: #ffd407"/>
      <path d="M36.5,230.72a7.83,7.83,0,0,0-1.11,4.6c0,.34.1.68.14,1a6.43,6.43,0,0,1,0,1.49,1,1,0,0,1-.31.72.66.66,0,0,1-.87-.19,1.67,1.67,0,0,1-.28-1,5.9,5.9,0,0,1,0-.89A6.42,6.42,0,0,0,33,240a2.6,2.6,0,0,1-.1.9.67.67,0,0,1-.68.47.62.62,0,0,1-.43-.41,1.71,1.71,0,0,1-.08-.63,10.13,10.13,0,0,1,.64-3.49,7.72,7.72,0,0,0-1,3.27,1.9,1.9,0,0,1-.2.68.55.55,0,0,1-.58.29c-.31-.09-.38-.5-.38-.83a6.48,6.48,0,0,1,1.34-3.89,6.14,6.14,0,0,0-1.82,2.83,1.64,1.64,0,0,1-.27.55.46.46,0,0,1-.54.15c-.21-.11-.25-.41-.23-.66a5.35,5.35,0,0,1,2.06-3.57A3.83,3.83,0,0,0,29,237.15a1.1,1.1,0,0,1-.29.31.31.31,0,0,1-.39,0,.43.43,0,0,1-.08-.27,2.77,2.77,0,0,1,1.38-2.29c.77-.51,1.66-.79,2.47-1.24a6.88,6.88,0,0,0,2.82-3c.16-.33.36-.74.72-.76a.94.94,0,0,1,.64.35C36.45,230.39,36.3,230.52,36.5,230.72Z" style="fill: #ffd407"/>
      <path d="M46.17,218.32l2.11-.32a1.45,1.45,0,0,0-.14,1.47c.32.65,1.12,1,1.23,1.76a1.84,1.84,0,0,1-.51,1.36,3.63,3.63,0,0,1-1.5,1.22,1.81,1.81,0,0,1-1.84-.27,2.48,2.48,0,0,1-.6-1.11,2.91,2.91,0,0,1-.14-2.29S46.48,218.27,46.17,218.32Z" style="fill: #ffd407"/>
      <path d="M44.84,220.1a2.6,2.6,0,0,0,.49,1.86,2,2,0,0,0,1.48.48,2.5,2.5,0,0,0,1.49-.49,1.45,1.45,0,0,0,.54-1.41,6.2,6.2,0,0,1,3.37,2c2.43,2.56,4,6.14,7.22,7.61a40.34,40.34,0,0,0-5.52,4.28,50.84,50.84,0,0,1-2.61-7.89c.47,3.9.86,7.87,1.31,11.77a19.93,19.93,0,0,0-11.63.59,122.49,122.49,0,0,1-.19-12.62A13.62,13.62,0,0,0,38.56,234,35.58,35.58,0,0,1,32.12,230a10.18,10.18,0,0,0,4.42-3.26,47.4,47.4,0,0,1,3.66-4.18C41.57,221.35,43,220,44.84,220.1Z" style="fill: #ed1c24"/>
      <path d="M45.81,218.85a2.61,2.61,0,0,0,2.91.32,2.8,2.8,0,0,0,1.15-1.71,8.3,8.3,0,0,0,.18-2.1,10.4,10.4,0,0,0-.22-2.61,2.68,2.68,0,0,0-.54-1.12,3.39,3.39,0,0,0-1.95-.88C42.49,209.79,43.24,216.79,45.81,218.85Z" style="fill: #ffd407"/>
      <path d="M45.54,215.49l-2.74,1.09a.54.54,0,0,1-.76-.21,4.15,4.15,0,0,1-1-1.61,1.42,1.42,0,0,1,.64-1.65,3.49,3.49,0,0,0,.78-.3,1.07,1.07,0,0,0,.27-1,4.3,4.3,0,0,1-.16-1.1c.08-.79.87-1.29,1.58-1.66a1.21,1.21,0,0,1,1.08-.18c.14.07.25.2.38.29a1.09,1.09,0,0,0,1.06-.07c.33-.18.61-.43.95-.58a1.82,1.82,0,0,1,2.59,1.69,2.33,2.33,0,0,0,0,1.08c.22.44.78.53,1.22.74a1.83,1.83,0,0,1,1,1.62,1.68,1.68,0,0,1-1.09,1.54.9.9,0,0,1-.68,0c-.28-.14-.37-.52-.62-.66-.52-.28-.52,0-1,0a2.94,2.94,0,0,1-2-.82c-.52-.35-.62-.9-1.4-.5C44.55,213.69,45.52,214.64,45.54,215.49Z" style="fill: #1b1464"/>
      <path d="M95.59,239.48a3.74,3.74,0,0,1-.4,2.38c0,.08-.1.17-.19.19a.31.31,0,0,1-.24-.08c-.64-.5-.65-1.43-.74-2.23a14.92,14.92,0,0,0-.61-2.58l-1.79-6c.57-.19,1.11-.43,1.68-.62a2.59,2.59,0,0,0,.17,1.29,12.39,12.39,0,0,0,1.61,3.7c1.12,1.53,2.94,2.56,3.66,4.32a1.49,1.49,0,0,1,.12.92c-.19.74-1.14.92-1.9,1a.72.72,0,0,1-.41-.06.68.68,0,0,1-.22-.27A5.79,5.79,0,0,1,95.59,239.48Z" style="fill: #ffd407"/>
      <path d="M101.8,234.64a6.85,6.85,0,0,1,1.45,1.31,6.51,6.51,0,0,0-1.68,2.88c-.07.34-.09.68-.15,1a4.51,4.51,0,0,1-.63,1.65c-.15.23-.39.48-.66.4s-.33-.47-.31-.76a6.65,6.65,0,0,1,.33-1.54,7.75,7.75,0,0,1-1.42,1.53c-.27.27-.62.56-1,.44a1,1,0,0,1-.38-.29,6.81,6.81,0,0,1-1.21-1.85,1.52,1.52,0,0,1-.17-.81c.07-.52.58-.84,1-1.1A54.92,54.92,0,0,0,101.8,234.64Z" style="fill: #ffd407"/>
      <path d="M116,218.28a4.73,4.73,0,0,1-1.24,3.82,43.51,43.51,0,0,0,5.34,0,2.3,2.3,0,0,1-1.2-1.64,6.81,6.81,0,0,1,0-2.1A8.71,8.71,0,0,0,116,218.28Z" style="fill: #ffd407"/>
      <path d="M116.17,219.13a3,3,0,0,0,3.09-.19,3.64,3.64,0,0,0,1.06-1.49,6.75,6.75,0,0,0,.39-4,5.06,5.06,0,0,0-1.79-3,3.4,3.4,0,0,0-3.39-.47,3.92,3.92,0,0,0-2,4.18C113.91,216,114.28,218.17,116.17,219.13Z" style="fill: #ffd407"/>
      <path d="M120,220.93a1.91,1.91,0,0,0-.68,2.59c.44.9,1.49,1.32,2.1,2.12,1.24,1.6,6.87,8.22,10.13,12.52.13.18,2-2.34,3.28-3.34-2.25-2.43-4.09-5.2-6.17-7.78a22.33,22.33,0,0,0-7.46-6.42C120.94,220.51,119.73,220.92,120,220.93Z" style="fill: #1b1464"/>
      <path d="M102,238.59a8.66,8.66,0,0,0-2.71-2.51,74.51,74.51,0,0,1,7.54-11c1.35-1.63,4.19-4.72,6.57-4.68,2.12,0,1.9,2.78,1.08,4-1.66,2.54-4.24,4.81-6.25,7.09C107.72,232.16,101.83,238.33,102,238.59Z" style="fill: #1b1464"/>
      <path d="M111.1,233.76a59,59,0,0,0,12.45,0c-.2-2.54-.48-3.68-.67-6.23a10.61,10.61,0,0,1-2.09-6.88,27.94,27.94,0,0,1-7.18-.14c.34,1-1.25,7-2.26,7.77A37.5,37.5,0,0,1,111.1,233.76Z" style="fill: #ed1c24"/>
      <path d="M112.63,218.44l.18-1.66A3.5,3.5,0,0,1,111,218.6a19.27,19.27,0,0,1,.48-2.24,3.34,3.34,0,0,1-2,1.64l1.19-3.72a15.15,15.15,0,0,1,1.9-4.33,5.12,5.12,0,0,1,4-2.31c2,0,3.7,1.58,4.79,3.29s1.85,3.65,3.25,5.11a3.2,3.2,0,0,1-1.8-.35,2.77,2.77,0,0,0,1.47,1.53,4,4,0,0,1-2.3-.06,4,4,0,0,0,1.27,1.1,2.5,2.5,0,0,1-2.78-1.17,8.37,8.37,0,0,1-1-3.08,5.82,5.82,0,0,0-1.23-3c-.46-.49-1.56-1-2.09-.33s-.44,2-.66,2.66a14.51,14.51,0,0,1-1.16,2.68,14.34,14.34,0,0,1-.77,1.24C113.35,217.54,112.66,218.16,112.63,218.44Z" style="fill: #1b1464"/>
      <path d="M85.13,219.05c-.14.65.65,1.12,1.29,1.47,3.41,1.86,5.3,5.22,7,8.41l3,5.6q-2.33.71-4.73,1.24a31.86,31.86,0,0,1-4.63-8.63l.59,7.71a31,31,0,0,1-6.75.21l-3.82-.16A19.88,19.88,0,0,1,77,227c-1.65,3.14-3.48,6.12-5.13,9.26a9.55,9.55,0,0,1-4.18-1,8.1,8.1,0,0,1,1.23-3.77,52.33,52.33,0,0,1,4.67-7.21,9.45,9.45,0,0,1,2.48-2.44,25.74,25.74,0,0,0,2.53-1.38,3.37,3.37,0,0,0,1.14-1.6A9.81,9.81,0,0,0,85.13,219.05Z" style="fill: #ed1c24"/>
      <path d="M82.58,220.18a1.41,1.41,0,0,0,.58,0,1.37,1.37,0,0,0,.58-.33A5.54,5.54,0,0,0,85.53,214a3,3,0,0,0-.65-1.17c-1.7-1.78-5.65-1.54-6.05.94C78.46,216.1,79.69,219.57,82.58,220.18Z" style="fill: #ffd407"/>
      <path d="M81.69,212.18a29,29,0,0,1,4.07,3.76,9.92,9.92,0,0,0,.6-2.63c0-.9,1.48-5.75-4.59-5.12a9.55,9.55,0,0,0-3.2,1.36,2.78,2.78,0,0,0-.66,1.27c-.43,1.39-1.08,4.25.85,4.9S81.4,213.49,81.69,212.18Z" style="fill: #1b1464"/>
      <path d="M76.89,207.52A5.24,5.24,0,0,0,73.61,211a42.57,42.57,0,0,0-1.1,4.8C72,218,71,220,70.34,222.17a6.56,6.56,0,0,0,2.57-2.69,11.6,11.6,0,0,1-.92,3.37,6.47,6.47,0,0,0,2.48-3.35,6.79,6.79,0,0,1-.29,2.47,5.28,5.28,0,0,0,1.54-2.5,16.05,16.05,0,0,0,.32-3.27,16.66,16.66,0,0,1,1-4.55,3.16,3.16,0,0,1,1.38-1.91c.73-.35,1.83.1,1.79.91,0-.61.34-.8.3-1.14a2.29,2.29,0,0,0-.68-1.21A3.12,3.12,0,0,0,76.89,207.52Z" style="fill: #1b1464"/>
      <path d="M132.5,233.92,131,235.28c.44.54.89,1.26,1.31,1.82a2.89,2.89,0,0,1,.34.53,3.47,3.47,0,0,1,.22.92,10,10,0,0,0,.51,1.92,1.55,1.55,0,0,0,.42.68.59.59,0,0,0,.74,0,.8.8,0,0,0,.2-.56,4.22,4.22,0,0,0-.25-1.73c.25.23.39.44.64.66a1.48,1.48,0,0,0,.69.42,1.44,1.44,0,0,0,1-.37,2.19,2.19,0,0,0,.86-.93,2.3,2.3,0,0,0,.06-1,1,1,0,0,0-.09-.39,1,1,0,0,0-.17-.22,5.3,5.3,0,0,0-1.84-1.31c-.26-.1-.54-.17-.8-.28A9.07,9.07,0,0,1,132.5,233.92Z" style="fill: #ffd407"/>
      <path d="M144.12,224.79a4.8,4.8,0,0,1,1.25.64c-1.95,3.21-5.84,10.3-5.9,10.56-.28,1.22,1.56,2.23,1.42,3.25-.22,1.59-1.57.19-1.75-.11l-.45-.74a6.45,6.45,0,0,1-1.35,1.79,1.73,1.73,0,0,1-1.83-.44,1,1,0,0,1-.35-.43.76.76,0,0,1,.13-.69C135.44,238.43,140.8,229.17,144.12,224.79Z" style="fill: #ffd407"/>
      <g>
        <path d="M174.23,234.77a25.07,25.07,0,0,0-1,4.2,2.64,2.64,0,0,1-.71,1.59.43.43,0,0,1-.45.12.48.48,0,0,1-.2-.31,3.7,3.7,0,0,1-.15-1.37c0-.07.07-.17.13-.12-.37.61-1.42,1.86-2.14,1.82a2,2,0,0,1-.66-.2,7.63,7.63,0,0,1-1.56-1.35.84.84,0,0,1,.07-.92,12.54,12.54,0,0,1,2.33-2.42,9.18,9.18,0,0,0,1.74-2.36A6.79,6.79,0,0,1,174.23,234.77Z" style="fill: #ffd407"/>
        <path d="M178.58,247.21l.45-3.29a1.5,1.5,0,0,1,.59-1.2,2.07,2.07,0,0,1,1.05-.18,1.91,1.91,0,0,1,1.35.35,1.3,1.3,0,0,1,.25,1c-.07,2-.28,3.93-.55,5.88-.16,1.21,0,4.27-1.3,4.78C176.72,256,178.42,248.32,178.58,247.21Z" style="fill: #22b573"/>
        <path d="M186.89,244.13a6.25,6.25,0,0,0-.24,2.08,31.77,31.77,0,0,0,1.09,8l2.69.17c.15,0,.2-8.64.09-9.45C190.23,242.66,187.89,241.24,186.89,244.13Z" style="fill: #22b573"/>
        <path d="M177.54,251.75a7.66,7.66,0,0,0,5-.2c-.36,2.37-.89,4.84-1.25,7.2q-4.86-.13-9.71.14a2.49,2.49,0,0,1,1.74-2.55,5.49,5.49,0,0,1,3.3.11A28.58,28.58,0,0,1,177.54,251.75Z" style="fill: #1b1464"/>
        <path d="M191.14,251.67a9.15,9.15,0,0,1-5.26.46c.25,2.2.35,4.34.59,6.54,0,.06,2.68.07,3.93,0l7-.16c0-.52-.63-1-1-1.45-1.39-1.79-4.65-1-4.72-.87S191.24,253.06,191.14,251.67Z" style="fill: #1b1464"/>
        <path d="M192.62,232.48a7.83,7.83,0,0,1,1.11,4.6c0,.34-.1.68-.14,1a6.43,6.43,0,0,0,0,1.49,1,1,0,0,0,.31.72.66.66,0,0,0,.87-.19,1.67,1.67,0,0,0,.28-1,5.9,5.9,0,0,0,0-.89,6.42,6.42,0,0,1,1.06,3.44,2.6,2.6,0,0,0,.1.9.67.67,0,0,0,.68.47.62.62,0,0,0,.43-.41,1.71,1.71,0,0,0,.08-.63,10.13,10.13,0,0,0-.64-3.49,7.72,7.72,0,0,1,1,3.27,1.9,1.9,0,0,0,.2.68.55.55,0,0,0,.58.29c.31-.09.38-.5.38-.83a6.48,6.48,0,0,0-1.34-3.89,6.14,6.14,0,0,1,1.82,2.83,1.64,1.64,0,0,0,.27.55.46.46,0,0,0,.54.15c.21-.11.25-.41.23-.66a5.35,5.35,0,0,0-2.06-3.57,3.83,3.83,0,0,1,1.74,1.53,1.1,1.1,0,0,0,.29.31.31.31,0,0,0,.39,0,.43.43,0,0,0,.08-.27,2.77,2.77,0,0,0-1.38-2.29c-.77-.51-1.66-.79-2.47-1.24a6.88,6.88,0,0,1-2.82-3c-.16-.33-.36-.74-.72-.76a.94.94,0,0,0-.64.35C192.67,232.14,192.83,232.28,192.62,232.48Z" style="fill: #ffd407"/>
        <g>
          <path d="M178.94,221.63c-5,4.5-7.12,6.88-9.33,13q2.69.8,5.3,1.83a15.85,15.85,0,0,0,2.8-4.26c1.66-3.31.78-.83,2.06-4.28-1.5,7.2-2.73,10.55-2.83,17.27a59.66,59.66,0,0,1,14.51.31l-.05-8.34c0-4,.07-5.8-.84-9.71.72,5.12,1.3,4.67,3,9.59a26,26,0,0,0,4.88-1.26,57.76,57.76,0,0,0-3.69-11.18,12.38,12.38,0,0,0-2.21-3.43,10.32,10.32,0,0,0-7.17-2.76,5.19,5.19,0,0,0-3.41.67C180.93,219.92,179.9,220.77,178.94,221.63Z" style="fill: #ed1c24"/>
          <path d="M188,217.21c.2,1-.33,2.28-.13,3.29-.93,0-1.84.28-2.77.28-.72,0-2.15,0-2.21-.79,0-.28.34-.66.42-.94a4.31,4.31,0,0,0,.05-1.55A31.46,31.46,0,0,0,188,217.21Z" style="fill: #ed1c24"/>
        </g>
        <path d="M185.36,209.53a3.12,3.12,0,0,0-2.5,1.49,4.46,4.46,0,0,0-.51,1.43,5.91,5.91,0,0,0,.33,3.64,3.84,3.84,0,0,0,2.79,2.22,2.13,2.13,0,0,0,.95,0,2.62,2.62,0,0,0,1.2-.94,7.34,7.34,0,0,0,1.49-3.35A3.71,3.71,0,0,0,185.36,209.53Z" style="fill: #ffd407"/>
        <path d="M183.87,213.62c0,.53-.87.71-.93,1.23,0,.35.3.63.35,1a1,1,0,0,1-.6.91,11.52,11.52,0,0,0-1.05.49c-1,.65-.93,2.16-1.79,2.95a1.74,1.74,0,0,1-2.92-1.25,4.05,4.05,0,0,0,0-.6c-.11-.65-.83-1-1.34-1.4a2.54,2.54,0,0,1-.44-3.45,7.66,7.66,0,0,1,2.41-1.41,5,5,0,0,0,1.93-1.88c.63-1.1.86-2.44,1.7-3.38a5.15,5.15,0,0,1,3.11-1.43c1.1-.17,2.42-.09,3.05.82.39.56.44,1.35,1,1.78a2.73,2.73,0,0,0,1.86.3,5.24,5.24,0,0,1,2.82.6,3.1,3.1,0,0,1,1.59,2.31,11.18,11.18,0,0,0,0,1.68c.32,1.3,1.9,1.76,2.84,2.71a3,3,0,0,1,.42,3.73,2.56,2.56,0,0,1-3.57.58c-1-.85-1.24-2.54-2.44-3.12s-3,.2-3.83-.81c-1.16-1.33.42-3.62-1.54-4.67-.74-.4-1.31-.07-2,.35-.28.18-.83.43-1,.77S183.9,213.16,183.87,213.62Z" style="fill: #1b1464"/>
      </g>
      <path d="M158,224.5a4,4,0,0,0-1,.84,97.49,97.49,0,0,0,7.25,10.54,2.13,2.13,0,0,1,.35,1.42,8.15,8.15,0,0,1-.25,1.46,2,2,0,0,0-.05,1,.74.74,0,0,0,.68.58c.42,0,.65-.48.76-.88a7.19,7.19,0,0,0,.26-2.12,4.51,4.51,0,0,0,1.55,2.09A1.69,1.69,0,0,0,170,239a1.83,1.83,0,0,0-.62-2.08,21.4,21.4,0,0,0-2-1.26C166.22,234.87,159.11,226.57,158,224.5Z" style="fill: #ffd407"/>
      <path d="M148,213a5.2,5.2,0,0,1,.57-1.38,5.65,5.65,0,0,1,1.56-1.43,4.41,4.41,0,0,1,1.45-.77,2.73,2.73,0,0,1,2.11.43,5,5,0,0,1,1.47,1.62,11.57,11.57,0,0,1,1.52,5.49,33.68,33.68,0,0,1-.38,5.74,19,19,0,0,1-8.95-.19c-.77-.16-.91-.52-.81-1.2.12-.86.21-1.74.31-2.62A33.53,33.53,0,0,1,148,213Z" style="fill: #1b1464"/>
      <path d="M153.64,221.05a3.18,3.18,0,0,0,1.08.35.47.47,0,0,1,.31.16.44.44,0,0,1,0,.35,5.24,5.24,0,0,1-1,1.85A3.9,3.9,0,0,1,152,225.5a2.43,2.43,0,0,1-2-.5,4.69,4.69,0,0,1-1.27-1.65,4.49,4.49,0,0,1-.57-2.38,2.56,2.56,0,0,0,1.63-.59,2.19,2.19,0,0,0,.71-.6.85.85,0,0,0,.08-.88,4.78,4.78,0,0,1,2.1.07A4.68,4.68,0,0,0,153.64,221.05Z" style="fill: #ffd407"/>
      <path d="M150.24,219a2.89,2.89,0,0,0,2,.45,2.32,2.32,0,0,0,.75-.2,3.12,3.12,0,0,0,1.36-2,7.79,7.79,0,0,0,.41-2.75,3.56,3.56,0,0,0-1.13-2.48,3.73,3.73,0,0,0-1.16-.65,2.28,2.28,0,0,0-1.78,0,2.45,2.45,0,0,0-1,1.38C149,214.41,148.39,217.64,150.24,219Z" style="fill: #ffd407"/>
      <path d="M141.78,226.44a6.26,6.26,0,0,1,3.35,2.41,16.22,16.22,0,0,0,1.67-3.2,54.33,54.33,0,0,1-2.27,18.62q3,.76,5.94,1.76a31.33,31.33,0,0,0,1.41-7.16,20.49,20.49,0,0,0,2,7.26,18.49,18.49,0,0,1,4.95-.54q-1.15-9.17-1.55-18.4a4.26,4.26,0,0,0,1.61,2.71l3-2.82c-2.5-1.69-3.67-5.12-6.51-6.15-.55-.2-2.18,1.62-2.52,2.31s-.95,1.4-1.71,1.32-1.25-1-1.42-1.8a3.39,3.39,0,0,0-1-2.2,1.91,1.91,0,0,0-1.95,0,5.13,5.13,0,0,0-1.51,1.36A41.63,41.63,0,0,0,141.78,226.44Z" style="fill: #ed1c24"/>
      <path d="M150.49,214.14c-.26.27-.67.33-1,.52a2.79,2.79,0,0,0-.73.69,1.08,1.08,0,0,1-.16-1c.09-.35.27-.66.36-1s.08-.48.12-.72c.2-1,1.89-3,2.89-1.61.47.66-.14.89-.57,1.29S151,213.62,150.49,214.14Z" style="fill: #1b1464"/>
    </g>
  </g>
</svg>
