<svg id="Layer_2" data-name="Layer 2" xmlns="http://www.w3.org/2000/svg" viewBox="0 0 300 300">
  <title>lakas</title>
  <g>
    <polygon points="7.95 277.86 292.14 277.98 292.14 72.11 149.92 22.02 7.86 72.53 7.95 277.86" style="fill: #ed1c24"/>
    <polygon points="165.33 217.12 116.22 266.22 15.57 266.22 64.68 217.12 165.33 217.12" style="fill: #fff"/>
    <polygon points="165.33 110.31 116.22 159.41 15.57 159.41 64.68 110.31 165.33 110.31" style="fill: #fff"/>
    <polygon points="284.27 139.34 235.16 188.44 134.51 188.44 183.62 139.34 284.27 139.34" style="fill: #fff"/>
    <path d="M141.62,229.71a1.52,1.52,0,0,1-1.37-2.17l22.54-47a1.52,1.52,0,1,1,2.74,1.31l-22.54,47A1.52,1.52,0,0,1,141.62,229.71Z" style="fill: #1b1464"/>
    <path d="M131.39,229.71a1.52,1.52,0,0,1-1.37-2.17l22.54-47a1.52,1.52,0,1,1,2.74,1.31l-22.54,47A1.52,1.52,0,0,1,131.39,229.71Z" style="fill: #1b1464"/>
    <g>
      <path d="M170,164.08a1.52,1.52,0,0,1-1.29-.72l-25.16-40.8a1.52,1.52,0,1,1,2.58-1.59l25.16,40.8a1.52,1.52,0,0,1-1.29,2.31Z" style="fill: #1b1464"/>
      <path d="M176.64,157.23a1.52,1.52,0,0,1-1.29-.72l-25.16-40.8a1.52,1.52,0,1,1,2.58-1.59l25.16,40.8a1.52,1.52,0,0,1-1.29,2.31Z" style="fill: #1b1464"/>
      <path d="M148.47,128.53a1.52,1.52,0,0,1-1.05-2.61l6-5.78a1.52,1.52,0,1,1,2.11,2.19l-6,5.78A1.51,1.51,0,0,1,148.47,128.53Z" style="fill: #1b1464"/>
      <path d="M152,133.14a1.52,1.52,0,0,1-1.05-2.61l6-5.78a1.52,1.52,0,1,1,2.11,2.19l-6,5.78A1.51,1.51,0,0,1,152,133.14Z" style="fill: #1b1464"/>
      <path d="M155.11,138.17a1.52,1.52,0,0,1-1.05-2.61l6-5.78a1.52,1.52,0,1,1,2.11,2.19l-6,5.78A1.51,1.51,0,0,1,155.11,138.17Z" style="fill: #1b1464"/>
      <path d="M158.11,143.1a1.52,1.52,0,0,1-1.05-2.61l6-5.78a1.52,1.52,0,1,1,2.11,2.19l-6,5.78A1.51,1.51,0,0,1,158.11,143.1Z" style="fill: #1b1464"/>
      <path d="M160.68,148.45a1.52,1.52,0,0,1-1.05-2.61l6-5.78a1.52,1.52,0,1,1,2.11,2.19l-6,5.78A1.51,1.51,0,0,1,160.68,148.45Z" style="fill: #1b1464"/>
      <path d="M164.43,153.06a1.52,1.52,0,0,1-1.05-2.61l6-5.78a1.52,1.52,0,1,1,2.11,2.19l-6,5.78A1.51,1.51,0,0,1,164.43,153.06Z" style="fill: #1b1464"/>
      <path d="M167.32,157.88a1.52,1.52,0,0,1-1.05-2.61l6-5.78a1.52,1.52,0,1,1,2.11,2.19l-6,5.78A1.51,1.51,0,0,1,167.32,157.88Z" style="fill: #1b1464"/>
    </g>
    <g>
      <path d="M161.11,188.69h-9.64a1.52,1.52,0,1,1,0-3h9.64a1.52,1.52,0,1,1,0,3Z" style="fill: #1b1464"/>
      <path d="M158.11,194.26h-9.64a1.52,1.52,0,0,1,0-3h9.64a1.52,1.52,0,0,1,0,3Z" style="fill: #1b1464"/>
      <path d="M155.43,200h-9.64a1.52,1.52,0,0,1,0-3h9.64a1.52,1.52,0,0,1,0,3Z" style="fill: #1b1464"/>
      <path d="M152.86,205.82h-9.64a1.52,1.52,0,0,1,0-3h9.64a1.52,1.52,0,0,1,0,3Z" style="fill: #1b1464"/>
      <path d="M150,211.61h-9.64a1.52,1.52,0,0,1,0-3H150a1.52,1.52,0,1,1,0,3Z" style="fill: #1b1464"/>
      <path d="M147.19,217.39h-9.64a1.52,1.52,0,0,1,0-3h9.64a1.52,1.52,0,0,1,0,3Z" style="fill: #1b1464"/>
      <path d="M144.51,223.17h-9.64a1.52,1.52,0,1,1,0-3h9.64a1.52,1.52,0,0,1,0,3Z" style="fill: #1b1464"/>
    </g>
    <g>
      <path d="M117.37,98.95l.27-6.86-3.45.18c-.52,2.89.38,5.86.07,8.77a10.22,10.22,0,0,1,1.71.18C118,101.46,117.31,100.39,117.37,98.95Z" style="fill: #ffd407"/>
      <path d="M118,89.16a4.37,4.37,0,0,0-2.74,2.11A12.24,12.24,0,0,0,114,94.6c.88,0,1.55-.14,2.43-.14.16,0,.38-.14.26-.25a21.75,21.75,0,0,0,1.68-3.57,1.66,1.66,0,0,0,.11-.86A1,1,0,0,0,118,89.16Z" style="fill: #ffd407"/>
      <g>
        <path d="M110.67,99.29a17.49,17.49,0,0,0,3.42.6,34.28,34.28,0,0,0,.95-7.53c0-.79-.12-2.18-1.28-2.25s-1.2,1.34-1.42,2.05A54.08,54.08,0,0,0,110.67,99.29Z" style="fill: #1b1464"/>
        <path d="M114.73,89.17a5,5,0,0,0-2.25,3.76,4.86,4.86,0,0,0,.47,3,2.88,2.88,0,0,0,2.59,1.51c1.45-.1,2.45-1.49,2.93-2.85.42-1.2,1-3.41.35-4.62S116,88.49,114.73,89.17Z" style="fill: #ffd407"/>
        <path d="M114.83,118.13a17.72,17.72,0,0,1,3.51,6.94,53,53,0,0,1,1.34,7.72,11.8,11.8,0,0,1,2.6-.17l-.11-6.93a96.72,96.72,0,0,0-.91-14.12,73,73,0,0,0-10.93-.47,83.21,83.21,0,0,0-1,22.14,13.07,13.07,0,0,0,2.13-.19c.47-.29.4-.55.48-1.09.22-1.56.36-3.12.63-4.68A63.41,63.41,0,0,1,114.83,118.13Z" style="fill: #ed1c24"/>
        <path d="M112.73,131.09c0,.53.24,5.76.24,5.76H102.53s2.91-4.44,5.1-5l.73-1.59Z" style="fill: #1b1464"/>
        <path d="M122.92,131.27l1,5.58H113.45s2.91-3.64,5.1-4.61v-1.46Z" style="fill: #1b1464"/>
        <path d="M124.31,110.63a7.44,7.44,0,0,1,.36,4.48c-.09.32-.2.63-.29.94a6.11,6.11,0,0,0-.22,1.4,1,1,0,0,0,.19.72.63.63,0,0,0,.85,0,1.59,1.59,0,0,0,.4-.85,5.61,5.61,0,0,0,.12-.84,6.1,6.1,0,0,1,.49,3.39,2.47,2.47,0,0,0,0,.86.64.64,0,0,0,.57.54.59.59,0,0,0,.47-.32,1.62,1.62,0,0,0,.17-.58,9.62,9.62,0,0,0-.09-3.37,7.34,7.34,0,0,1,.49,3.22,1.8,1.8,0,0,0,.08.67.52.52,0,0,0,.51.36c.3,0,.43-.41.48-.73a6.15,6.15,0,0,0-.68-3.85,5.83,5.83,0,0,1,1.29,2.92,1.56,1.56,0,0,0,.17.56.44.44,0,0,0,.48.22c.22-.07.29-.35.31-.58a5.09,5.09,0,0,0-1.41-3.66,3.64,3.64,0,0,1,1.41,1.7,1,1,0,0,0,.23.34.3.3,0,0,0,.37,0,.41.41,0,0,0,.12-.24,2.64,2.64,0,0,0-1-2.36c-.65-.59-1.44-1-2.13-1.53a6.54,6.54,0,0,1-2.2-3.26c-.1-.34-.23-.75-.57-.82a.89.89,0,0,0-.65.23C124.4,110.32,124.53,110.48,124.31,110.63Z" style="fill: #ffd407"/>
        <path d="M105,104.87a21.45,21.45,0,0,1-3.21-3,32.83,32.83,0,0,1-4-6.27A3.73,3.73,0,0,1,94.38,93a4,4,0,0,1-.58-2.44c0-.09.05-.19.14-.21s.22.11.27.22a8.72,8.72,0,0,0,1.58,2.35,3.68,3.68,0,0,1-.9-1.79,4.05,4.05,0,0,1-.14-2.32.34.34,0,0,1,.19-.24c.17,0,.3.14.36.3a12.57,12.57,0,0,0,1.25,3.24,7.82,7.82,0,0,1-.42-4c0-.17.09-.37.26-.4a.34.34,0,0,1,.28.12,1.8,1.8,0,0,1,.39,1.08,15.79,15.79,0,0,0,.71,2.91,12.49,12.49,0,0,1,0-2.14,3.76,3.76,0,0,1,.43-1.54.39.39,0,0,1,.23-.21c.16,0,.29.11.37.25a3.8,3.8,0,0,1,.21,2,7.39,7.39,0,0,0,.41,2.39q.37-.8.82-1.56a.48.48,0,0,1,.19-.21.39.39,0,0,1,.43.17,1.38,1.38,0,0,1,.2,1,6.93,6.93,0,0,1-.57,1.89L100,95.12l1.84,2.79a32.4,32.4,0,0,0,3.88,5.1.43.43,0,0,1,.16.29.42.42,0,0,1,0,.16C105.62,103.93,105.23,104.41,105,104.87Z" style="fill: #ffd407"/>
        <path d="M113.58,98.09a2.69,2.69,0,0,1-1.4,2.11,9.54,9.54,0,0,1-7.79,1.37,44.13,44.13,0,0,0-.08,4.64,44.66,44.66,0,0,0,5.07-.64c-.31,4.31-.49,9.55-1.1,13.82a31.5,31.5,0,0,0,14.51.45c-.21-3.83-1-9.68-1.31-13.5a42.82,42.82,0,0,1,2.48,5.78l2.77-.91a48.3,48.3,0,0,0-3-8.29c-.8-1.72-2-3.58-3.76-3.73a3.59,3.59,0,0,1-1.19-.14.77.77,0,0,1-.41-1C116.79,98.1,115.19,98.13,113.58,98.09Z" style="fill: #22b573"/>
        <path d="M116.2,104.94c-.44-.2-.68-.68-1-1a1.93,1.93,0,0,0-1.56-.58,1.57,1.57,0,0,0-1.29,1c-.27.77.16,1.69-.24,2.4a3.89,3.89,0,0,1-.85.86,2.26,2.26,0,0,0-.75,1.51,1.54,1.54,0,0,0,.78,1.44,3.93,3.93,0,0,1,1,.43,2.21,2.21,0,0,1,.44,1.12,2.24,2.24,0,0,0,1.53,1.61,1.63,1.63,0,0,0,1.9-1c.13-.37.1-.82.37-1.11a1.7,1.7,0,0,1,1.19-.35c2.31-.18,1.64-2.25,1.78-3.9a2.17,2.17,0,0,0-.55-1.94C118.06,104.66,117.11,105.36,116.2,104.94Z" style="fill: #fff"/>
        <path d="M113.44,107.71a1.7,1.7,0,0,0,.5,2.38c1.32.66,2.74-1,2.59-2.27C116.34,106.25,114.11,106.68,113.44,107.71Z" style="fill: #ed1c24"/>
        <path d="M111.42,91.15a6.44,6.44,0,0,0,4.23,1.07c.11,2.58-.12,5.28,0,7.87a14.76,14.76,0,0,0,6.93-.84c-.34-1.39-.66-3-1-4.4a13.37,13.37,0,0,0-2-5,4.89,4.89,0,0,0-4.83-2C112.89,88.25,112.4,89.54,111.42,91.15Z" style="fill: #1b1464"/>
      </g>
      <g>
        <path d="M66.22,131.2a.9.9,0,0,0-.52.1.84.84,0,0,0-.32.49,4,4,0,0,0,.42,2.58,77.23,77.23,0,0,0,3.35,7.51c.3.56.74,1.18,1.37,1.14a1.12,1.12,0,0,0,.89-.72,2.85,2.85,0,0,0,.15-1.19,13.9,13.9,0,0,0-2.69-7.78C68.1,132.26,67.71,131.24,66.22,131.2Z" style="fill: #ed1c24"/>
        <path d="M52.93,141.14a1.55,1.55,0,0,0,.25,1.37,1.13,1.13,0,0,0,1.3,0,7.58,7.58,0,0,0,2.83-3.68,15,15,0,0,0,.76-2c.29-1,.74-2.79.2-3.77-.67-1.21-1.82-.07-2.38.66A16.08,16.08,0,0,0,52.93,141.14Z" style="fill: #ed1c24"/>
        <path d="M68.17,146.59c-.09,0,.05.16.15.15a7.57,7.57,0,0,0,2.28-.23c.1-.78.17-1.5.26-2.28l1,1.71a55.57,55.57,0,0,0,7.5-2.34,8.54,8.54,0,0,0-.22-1.59,2.11,2.11,0,0,0-3.25-1.35,8.31,8.31,0,0,0-2.07,1.8c-.43-1.13-.88-2.09-1.39-3.18a2.77,2.77,0,0,1-2.06,1.64,6.6,6.6,0,0,1-2.73-.12,10.46,10.46,0,0,1,.41,2.3C68.16,144.23,68.08,145.45,68.17,146.59Z" style="fill: #1b1464"/>
        <path d="M48.91,145.23a5.17,5.17,0,0,1,1.92.7c.56-.62,1.11-.84,1.68-1.46l-.57,1.83a80.45,80.45,0,0,1,8.16,1.56c-.05,0,0,.11.06.09s.07-.08.08-.13a4.39,4.39,0,0,0-.06-3A2.72,2.72,0,0,0,58,143.53a5,5,0,0,0-2.56.55c.63-1.08,1.3-2.22,1.91-3.32,0,0,.07,0,0-.05s-.08,0-.11.09A.53.53,0,0,1,57,141a4.86,4.86,0,0,1-4.34-1.12A54.73,54.73,0,0,1,48.91,145.23Z" style="fill: #1b1464"/>
        <path d="M60.89,102.83a3.77,3.77,0,0,1,3.66-.4c.74.5.61,2.46,3.07,4.92H66.09c0,1.84-.85,2.1-1.54,2.77-1.25,1.21-4.88,2-5.22-.35C59,107.61,59.26,104.34,60.89,102.83Z" style="fill: #ffd407"/>
        <path d="M57.46,110.24l8.32,0-1.28,3.61s9.61,17.3,10.16,23.08c0,0-19.84,2.83-25.2-1l8.35-21.63Z" style="fill: #22b573"/>
        <path d="M91.92,106.88c3-1.74,5.16-2.39,8.25-4,3.63-1.86,6.28-5.22,8.24-8.79a15.66,15.66,0,0,0,2.28-7.31A12.11,12.11,0,0,0,106.42,78a21.59,21.59,0,0,0-9-4.47,18.59,18.59,0,0,0-6.59-.71,12.7,12.7,0,0,0-9.5,6.07c-2.85,4.83-2.14,10.94-.57,16.33a30.51,30.51,0,0,1,.92,3.52,18.06,18.06,0,0,1-.46,7c-.37,1.61-1.44,3.2.37,4,.75.33,5.4,1.37,6,1.13s1.36-1.67,1.87-2.17A12.25,12.25,0,0,1,91.92,106.88Z" style="fill: #ffd407;opacity: 0.58"/>
        <path d="M84.79,117.75a5.87,5.87,0,0,0,1.3-1.56,18.79,18.79,0,0,0,3-6.17q-4.52-1.39-9.14-2.45c-.85-.19-2.91,8-2.36,9C78.72,118.63,83.12,119,84.79,117.75Z" style="fill: #1b1464"/>
        <path d="M84.2,111.64h-.06c-.41,0-.7-.39-.88-1.07a3.27,3.27,0,0,1,.48-2.21,99.33,99.33,0,0,0,6.88-18.24l.07-.25a28.16,28.16,0,0,1-2.33-1.63,2.71,2.71,0,0,1-1.11-1.42,1.58,1.58,0,0,1,.45-1.46,2,2,0,0,1,1.79-.6,2.85,2.85,0,0,1,2.07,2.42,6.16,6.16,0,0,1-.18,2.42,28.36,28.36,0,0,0,5,2.38,15.63,15.63,0,0,1,1.41-1.22,4.41,4.41,0,0,1,2.38-1.06,1.86,1.86,0,1,1,.55,3.68,4.87,4.87,0,0,1-2.6-.2q-.8-.23-1.58-.5a30.38,30.38,0,0,0-3.83,5.09h0c-1.78,2.81-3.38,5.62-4.88,8.59l-.17.37C86.08,110.15,85,111.64,84.2,111.64Zm7-21.44,0,.07a99.93,99.93,0,0,1-6.92,18.35,2.71,2.71,0,0,0-.44,1.79c.12.44.26.61.34.62s1-.38,2.87-4.57l.18-.39c1.51-3,3.12-5.81,4.91-8.64h0a31.83,31.83,0,0,1,3.71-5A29,29,0,0,1,91.23,90.2Zm5.76,2q.63.21,1.26.39a4.36,4.36,0,0,0,2.28.2,1.48,1.48,0,0,0,1.16-1.46,1.44,1.44,0,0,0-1.52-1,3.87,3.87,0,0,0-2,.93A14.77,14.77,0,0,0,97,92.19Zm-7.83-6.87a1.45,1.45,0,0,0-1,.45,1,1,0,0,0-.3.9,2.22,2.22,0,0,0,.89,1.08q1,.79,2.11,1.49a5.22,5.22,0,0,0,.12-2,2.28,2.28,0,0,0-1.59-1.92Z" style="fill: #1b1464"/>
        <path d="M76.89,117.92a30.69,30.69,0,0,1,.14-3.49,1.56,1.56,0,0,1,.1-.45.43.43,0,0,1,.24-.26.37.37,0,0,1,.36.09.76.76,0,0,1,.19.33c.13.4.11.84.2,1.25a2.18,2.18,0,0,0,.53,1,1,1,0,0,0,.71.36,2.66,2.66,0,0,0,1.54-.65A5.21,5.21,0,0,0,82,114.76a2.94,2.94,0,0,1,.51-.7.4.4,0,0,1,.72.32,2.15,2.15,0,0,1-.26.84,4.76,4.76,0,0,1-2.14,2.12,1,1,0,0,0,.56-.11,5.33,5.33,0,0,0,1.95-1.78,4.54,4.54,0,0,1,.57-.71.39.39,0,0,1,.21-.12c.18,0,.3.18.32.36a1.3,1.3,0,0,1-.16.63,5.49,5.49,0,0,1-1,1.55,3.79,3.79,0,0,1-1.57,1,3.16,3.16,0,0,0,1.9-1,4.5,4.5,0,0,0,.92-1,3.42,3.42,0,0,1,.4-.64.38.38,0,0,1,.35-.14.3.3,0,0,1,.2.22.71.71,0,0,1,0,.31,4.63,4.63,0,0,1-1.26,2,5.78,5.78,0,0,1-1.94,1.21,4.62,4.62,0,0,0,2.34-1.26,2.13,2.13,0,0,1,.36-.28.22.22,0,0,1,.18,0c.1,0,.06.19.08.29.19,1.28-2.31,2.45-2.48,2.49a7.16,7.16,0,0,1-5.59-.36c-2.62.85-4.59,1.18-7.21,2a5.16,5.16,0,0,1-3.35.3,40.44,40.44,0,0,1-4.2-1.82c.1-.35.12-.69.23-1a7.92,7.92,0,0,1,1-2.42c1.71.3,3.05,1.45,4.46,2.47a1.34,1.34,0,0,0,.38.22,1.4,1.4,0,0,0,.79-.07C70.67,119.24,76.17,118.16,76.89,117.92Z" style="fill: #ffd407"/>
        <path d="M62.19,123.2a12.41,12.41,0,0,1,2.48-6.09,9.42,9.42,0,0,0-4.34-1.85,1.61,1.61,0,0,0-.75,0c-.67.21-.91,1.09-.91,1.84C58.65,119.54,60.56,121.47,62.19,123.2Z" style="fill: #22b573"/>
        <path d="M66,102.43a.94.94,0,0,1-.58,1.57,11.94,11.94,0,0,0-2.54.63c-.26.09-.57.25-.52.49.31,1.39.44,2.21.85,3.58a4.68,4.68,0,0,1-.3,4.12c-.85,1.18-2.47,1.72-3.5,2.78a3.71,3.71,0,0,0-1,3.13c.18,1.15.93,2.27.67,3.41a3.82,3.82,0,0,1-1.88,2.14,14.17,14.17,0,0,0-2.51,1.66,10.94,10.94,0,0,0-1.41,2,4.46,4.46,0,0,1-1.74,1.7,2.25,2.25,0,0,1-2.42-.23,2.14,2.14,0,0,1-.52-1.59,6.66,6.66,0,0,1,1.61-4.28,21.7,21.7,0,0,0,2.44-2.72c1.09-1.87.5-4.12,0-6.18s-.71-4.46.87-6c.81-.8,2-1.26,2.74-2.11a13.06,13.06,0,0,0,1.41-2.67,6,6,0,0,1,4.8-3A4.58,4.58,0,0,1,66,102.43Z" style="fill: #1b1464"/>
        <path d="M80.78,117.42a.23.23,0,0,1,0-.45,3.65,3.65,0,0,0,2.6-2.58.23.23,0,0,1,.45,0,4.06,4.06,0,0,1-3,3Z" style="fill: #1b1464"/>
        <path d="M81.51,118.39a.23.23,0,0,1-.08-.44,5.17,5.17,0,0,0,3.25-3,.23.23,0,1,1,.42.18,5.65,5.65,0,0,1-3.5,3.27Z" style="fill: #1b1464"/>
        <path d="M82.23,119.36a.23.23,0,0,1,0-.45,5,5,0,0,0,3.48-3,.23.23,0,0,1,.41.2,5.48,5.48,0,0,1-3.8,3.28Z" style="fill: #1b1464"/>
      </g>
    </g>
    <path d="M169,237.65h-.07" style="fill: none"/>
    <polygon points="126.97 224.2 127.21 242 125.75 243.47 123.15 243.47 122.8 225.06 126.97 224.2" style="fill: #ed1c24"/>
    <polygon points="49.55 240.03 49.3 256.96 52.02 256.96 53.94 255.49 54.21 239.29 49.55 240.03" style="fill: #ed1c24"/>
    <polygon points="127.01 224.11 110.94 240.18 49.55 240.05 65.65 224.11 127.01 224.11" style="fill: #ed1c24"/>
    <path d="M99.51,225.77c.87-3.19,1.23-7.3,1.9-10.54,6.09.29,12.09.46,18.18.54-.78,2.87-1.9,10.81-2.07,11.46a66.55,66.55,0,0,0-8.34,6.88c.18-.14-15.3-.95-17.94-1C91.36,233.05,97.24,227.74,99.51,225.77Z" style="fill: #1b1464"/>
    <path d="M115.65,225.39c0,.11,1.41-7.87,1.42-7.91L103,217.09,101.7,225Z" style="fill: #fff"/>
    <g>
      <path d="M80.14,220.56a5.8,5.8,0,0,1,.16-1.71,1.83,1.83,0,0,1,.92-1.22c.44-.18,4.13-.3,4.33.23.23-.06.44.16.6.37a20.41,20.41,0,0,1,2.64,4.37c-.52.2-1,.33-1.53.53a3.3,3.3,0,0,1-.57,2.62,1.65,1.65,0,0,1-1.12.45,1.85,1.85,0,0,1-1.49-.77L83.39,228a11.23,11.23,0,0,0-2.73.26l-.14-2.09-.34-5.23s0-.1,0-.12S80.19,220.54,80.14,220.56Z" style="fill: #ffd407"/>
      <path d="M81.35,223.12a3.81,3.81,0,0,1,1.35-2.66c.3.42.5,2.72,1,2.7s.62-1.82.74-2.21c.22-.77,1.26-.93,2.06-1.23a12.29,12.29,0,0,0,4.41-2.87l-3.19.79a7.23,7.23,0,0,0,1.94-2.45,11.51,11.51,0,0,0-3.87.92,10.06,10.06,0,0,0,1.58-1.57,4.89,4.89,0,0,0-4,1.29l1.13-1.56A6.35,6.35,0,0,0,80.87,216a7,7,0,0,0-1.8,2.5c-1,2.43,0,4.86.93,7.32l1.66.14S81,225.29,81.35,223.12Z" style="fill: #1b1464"/>
      <g>
        <path d="M107.08,250.27c.19.09.41.21.43.42-1.11,1.55-2.75,3.1-4,4.56.08.08.18,0,.26.07a39,39,0,0,0-6.25-4.48,57.87,57.87,0,0,1-1.31,5.69c-1.62-.23-3.2-.06-4.83-.18a31.05,31.05,0,0,1-.14-7.54,18.29,18.29,0,0,1-6.75-.32,3.27,3.27,0,0,1-.42-2.85,16,16,0,0,1,.41-2,3.33,3.33,0,0,1,.58-1.19,3.09,3.09,0,0,1,1.87-1,5.84,5.84,0,0,1,3.59.5c.73.36,1.38.87,2.09,1.27a17.53,17.53,0,0,0,2.1.92c1.65.65,3.26,1.38,4.88,2.1l2.42,1.08a7.44,7.44,0,0,1,1.05.54,13,13,0,0,0,1.94,1.4c.65.27,1.48.28,1.91.84,0,0,.07.09.13.08S107.12,250.24,107.08,250.27Z" style="fill: #ed1c24"/>
        <path d="M94.81,242.66a11.26,11.26,0,0,1,4.07.23c2.06.63,3.76,2.36,5.37,4a15.18,15.18,0,0,1,1.9,2.25,2.08,2.08,0,0,1-2.76,1,12.41,12.41,0,0,1-2.79-1.94c-2.66-2-5.88-2.56-9-3.09-1-.16-3.33-1.08-1.75-2.08C91,242.33,93.5,242.74,94.81,242.66Z" style="fill: #ed1c24"/>
        <path d="M104.24,256.36l8.12-9.34a9,9,0,0,0-6,1.61,14.3,14.3,0,0,0-4.37,4.53c-.61,1-.23,1.23.3,1.8A6.09,6.09,0,0,0,104.24,256.36Z" style="fill: #1b1464"/>
        <path d="M96.63,236.79A7.84,7.84,0,0,0,99,232.71c.06-.34.1-.69.16-1a6.44,6.44,0,0,1,.43-1.43,1,1,0,0,1,.5-.6.66.66,0,0,1,.78.43,1.68,1.68,0,0,1,0,1,5.9,5.9,0,0,1-.27.85,6.43,6.43,0,0,0,2-3,2.6,2.6,0,0,1,.36-.83.67.67,0,0,1,.79-.25.62.62,0,0,1,.3.52,1.71,1.71,0,0,1-.11.62,10.14,10.14,0,0,1-1.62,3.16,7.73,7.73,0,0,0,1.94-2.83,1.9,1.9,0,0,1,.39-.6.55.55,0,0,1,.64-.11c.27.18.22.59.12.91a6.48,6.48,0,0,1-2.41,3.35,6.14,6.14,0,0,0,2.56-2.19,1.64,1.64,0,0,1,.41-.45.47.47,0,0,1,.56,0c.17.17.12.46,0,.7a5.36,5.36,0,0,1-3,2.83,3.83,3.83,0,0,0,2.11-1,1.1,1.1,0,0,1,.37-.21.31.31,0,0,1,.36.14.43.43,0,0,1,0,.28,2.78,2.78,0,0,1-2,1.8c-.89.27-1.82.28-2.72.48a6.89,6.89,0,0,0-3.58,2.09c-.25.28-.56.6-.91.52s-.39-.3-.51-.52S96.77,237,96.63,236.79Z" style="fill: #ffd407"/>
        <path d="M91.38,260.1l11.71-1.53a8.57,8.57,0,0,0-5.35-2.84,13,13,0,0,0-6,.46c-1.09.36-.94.77-.91,1.54A6.41,6.41,0,0,0,91.38,260.1Z" style="fill: #1b1464"/>
        <path d="M76.38,244.38c-.51-1.12-.24-4.44-.49-5.65a40,40,0,0,1-.77-7,7.83,7.83,0,0,1,.67-4c.91-1.67,2.57-1.69,4.95-2A9.45,9.45,0,0,1,87.82,229a21.29,21.29,0,0,1,3.81,7.18,63.94,63.94,0,0,1,6.27-2.44,3.28,3.28,0,0,1,2,3.13,44.58,44.58,0,0,1-7.48,5.81c-.5.31-.89.69-1.39,1a13.77,13.77,0,0,1-6.87,1.94c-.52,0-1.35.36-1.86.23-1.35-.34-2.66.34-3.82-.44A11.47,11.47,0,0,0,76.38,244.38Z" style="fill: #22b573"/>
        <path d="M97.39,248.72H91.3l-5.61-.11-.48-16.93H82.73v4.79H77.39l-.76-5.17H74.16l1.52,28.9H78l.19-7.47,5.9-.19.57,7.47h1.9l.38-7.66,8.57.19.57,7.66H98ZM77.2,244.51v-4.79l5.71.38.19,4.4Z" style="fill: #1b1464"/>
      </g>
    </g>
    <g>
      <path d="M70.34,229.74a7.64,7.64,0,0,1-6.68-.23V235s4,2.52,6.68,0Z" style="fill: #fff"/>
      <path d="M68.81,235.15,68.73,234c0-.36-.06-.73-.1-1.08s-.07-.74-.1-1.11l0-.25.2-.15a7,7,0,0,1,2.12-1.08,1.79,1.79,0,0,1,1.83.2,1.28,1.28,0,0,1,.22,1.49,3.1,3.1,0,0,1-.8.95,3.91,3.91,0,0,1-1.26.85,4.62,4.62,0,0,1-.56.15,1.39,1.39,0,0,0-.72.29Zm.65-3.14c0,.28.05.56.08.83l0,.38c.16-.05.32-.09.48-.12a3.91,3.91,0,0,0,.45-.12,3.17,3.17,0,0,0,1-.67,2.35,2.35,0,0,0,.58-.66.4.4,0,0,0,0-.44c-.14-.13-.5-.13-.93,0A6.13,6.13,0,0,0,69.46,232Z" style="fill: #fff"/>
      <path d="M69.62,229a4.39,4.39,0,0,0-3.33-1,3.12,3.12,0,0,0-1.76.46,1.05,1.05,0,0,0-.27,1.52,1.74,1.74,0,0,0,.83.39,7.23,7.23,0,0,0,4.12.08C70.07,230.19,70.27,229.67,69.62,229Z" style="fill: #1b1464"/>
      <path d="M64,230.24c-.56-.32-.4-1.17-.12-1.66a1.8,1.8,0,0,1,1.18-.83,4.38,4.38,0,0,1,1.27-.05,5.8,5.8,0,0,1,3.39.95,1.55,1.55,0,0,1,.53.69,1.07,1.07,0,0,1-.24,1.11l0,0a5.4,5.4,0,0,1-2.73.71A6.38,6.38,0,0,1,64,230.24Zm5.63-.7a.91.91,0,0,0-.32-.39,5.29,5.29,0,0,0-3-.8,3.82,3.82,0,0,0-1.08,0,1.18,1.18,0,0,0-.76.52c-.19.32-.21.73-.12.78a5.21,5.21,0,0,0,5.27.25A.56.56,0,0,0,69.66,229.55Z" style="fill: #fff"/>
      <path d="M67,232.22a1.89,1.89,0,0,0-.43-.7.78.78,0,0,0-.8-.17c-.42.19-.4.75-.26,1.17a5.12,5.12,0,0,0,1.31,2,6.78,6.78,0,0,0,1.07-2.16c.11-.37.11-.88-.28-1a.64.64,0,0,0-.63.18,1.61,1.61,0,0,0-.32.57" style="fill: #ed1c24"/>
    </g>
    <path d="M69.82,221.82a4.42,4.42,0,0,1,1.25-.28,2.64,2.64,0,0,0,2-3.07,7.45,7.45,0,0,1-.54-1.85c0-1,1-1.7,1.94-2.08a6.54,6.54,0,0,0,2.65-1.39c1.57-1.8-.3-4.54,0-6.88.26-1.9,2-3.33,3.86-3.93a24.68,24.68,0,0,1,5.79-.73,9.47,9.47,0,0,0,5.46-1.79c1.48-1.25,2.14-3.6,1-5.13A8,8,0,0,0,90,192.76c-1.13-.53-2.3-1.41-2.37-2.64a3.05,3.05,0,0,1,1.8-2.61c1-.54,2.11-.79,3.12-1.29a6.88,6.88,0,0,0,3.43-8,10.18,10.18,0,0,0-2.35-3.67,22,22,0,0,0-13.26-6.77A22.25,22.25,0,0,0,65.81,171c-2.37,1.51-4.62,4-4.18,6.71.38,2.33,2.63,4.17,2.58,6.53a5.22,5.22,0,0,1-2.34,3.83,45.8,45.8,0,0,1-4.06,2.34,10.14,10.14,0,0,0-4.24,4.43,5.78,5.78,0,0,0,.54,5.85,9.21,9.21,0,0,0,4.45,2.56,11.88,11.88,0,0,1,4.63,2.29c1.25,1.2,1.8,3.29.72,4.64a7.8,7.8,0,0,1-2.73,1.67c-1,.49-1.92,1.35-1.82,2.41.11,1.27,1.62,1.91,2.92,2.07s2.75.15,3.66,1.07a2.3,2.3,0,0,1,0,3.1c-.64.66-1.78,1.11-1.66,2.17.08.76,1.87,2.12,2.55,2.4C70.06,226.41,67.82,222.61,69.82,221.82Z" style="fill: #ed1c24"/>
    <path d="M208.74,278h43.75V236s1.39-18-21.66-18-22,18.1-22,18.1Z" style="fill: #ffd407"/>
    <path d="M230.93,218c-23.05,0-22.28,18.1-22.28,18.1L208.52,278h22.41Z" style="fill: #1b1464"/>
    <path d="M69.82,221.82a4.42,4.42,0,0,1,1.25-.28,2.64,2.64,0,0,0,2-3.07,7.45,7.45,0,0,1-.54-1.85c0-1,1-1.7,1.94-2.08a6.54,6.54,0,0,0,2.65-1.39c1.57-1.8-.3-4.54,0-6.88.26-1.9,2-3.33,3.86-3.93a24.68,24.68,0,0,1,5.79-.73,9.47,9.47,0,0,0,5.46-1.79c1.48-1.25,2.14-3.6,1-5.13A8,8,0,0,0,90,192.76c-1.13-.53-2.3-1.41-2.37-2.64a3.05,3.05,0,0,1,1.8-2.61c1-.54,2.11-.79,3.12-1.29a6.88,6.88,0,0,0,3.43-8,10.18,10.18,0,0,0-2.35-3.67,22,22,0,0,0-13.26-6.77A22.25,22.25,0,0,0,65.81,171c-2.37,1.51-4.62,4-4.18,6.71.38,2.33,2.63,4.17,2.58,6.53a5.22,5.22,0,0,1-2.34,3.83,45.8,45.8,0,0,1-4.06,2.34,10.14,10.14,0,0,0-4.24,4.43,5.78,5.78,0,0,0,.54,5.85,9.21,9.21,0,0,0,4.45,2.56,11.88,11.88,0,0,1,4.63,2.29c1.25,1.2,1.8,3.29.72,4.64a7.8,7.8,0,0,1-2.73,1.67c-1,.49-1.92,1.35-1.82,2.41.11,1.27,1.62,1.91,2.92,2.07s2.75.15,3.66,1.07a2.3,2.3,0,0,1,0,3.1c-.64.66-1.78,1.11-1.66,2.17.08.76,1.87,2.12,2.55,2.4C70.06,226.41,67.82,222.61,69.82,221.82Z" style="fill: #ffd407;opacity: 0.58"/>
    <g>
      <circle cx="150" cy="61.23" r="10.28" style="fill: #ffd407"/>
      <path d="M150,50.95a10.28,10.28,0,0,0,0,20.56Z" style="fill: #1b1464"/>
    </g>
    <path d="M108.89,238.25v19.26l3,.23,2-1.86-.25-19.26Z" style="fill: #ed1c24"/>
    <path d="M205.63,116.38l57.6-.66a4.09,4.09,0,0,1,4.14,4.09v19a4.09,4.09,0,0,1-1.2,2.89l-13.91,13.91a4.09,4.09,0,0,1-2.89,1.2H193.69a4.09,4.09,0,0,1-2.74-7.13l9.11-8.23a4.09,4.09,0,0,0,1.35-3l.19-18A4.09,4.09,0,0,1,205.63,116.38Z" style="fill: #1b1464"/>
    <path d="M202,126.18c-2.22.17-4,1.76-5.68,3.26l-8.06,7.37a2.36,2.36,0,0,0-1,2.23l-.17,12.06c0,1.36,0,2.85.89,3.89a4.33,4.33,0,0,0,1.72,1.12,11.45,11.45,0,0,0,8.7-.44,22.34,22.34,0,0,0,7.09-5.35,9.27,9.27,0,0,0,1.91-2.65,9.76,9.76,0,0,0,.59-3,82.11,82.11,0,0,0,.28-9.8c-.06-1.88.73-4.6-.37-6.2S203.81,126,202,126.18Z" style="fill: #1b1464"/>
    <path d="M194.65,157.18c-.8-1.75-.05-6.61,0-6.81l0-.3,48,.5v.71l-47.36-.5c-.22,1.54-.54,4.9,0,6.1Z" style="fill: #fff"/>
    <path d="M194.66,150.58a11.65,11.65,0,0,1,0-9.59l.1-.2,47.76.14v.71l-47.3-.14a11.1,11.1,0,0,0,.09,8.77Z" style="fill: #fff"/>
    <path d="M195.22,141.4l-.48-.53,9.5-8.62h.14c11.83.14,42.76.45,43.83.27a.32.32,0,0,0-.16.09l.5.51c-.15.15-.19.19-7.22.17-3.65,0-8.73,0-15.09-.1-10.16-.09-20.42-.2-21.73-.22Z" style="fill: #fff"/>
    <path d="M211.6,117.62a3.61,3.61,0,0,1,.14.87,11,11,0,0,1-.42,3.83,2.32,2.32,0,0,1-.37.81,1.68,1.68,0,0,1-1.39.56,3.69,3.69,0,0,1-1.47-.45,1.67,1.67,0,0,1-.57-.4,1.83,1.83,0,0,1-.29-.65l-.78-2.55a4.2,4.2,0,0,1-.25-1.91c.07-1.43-.36-5.17,2.11-4.82C209.78,113.12,211.21,116.4,211.6,117.62Z" style="fill: #ffd407"/>
    <path d="M225.22,115.89a6.68,6.68,0,0,1,4,1c.25.17.48.36.73.53a5.49,5.49,0,0,0,1.15.61.86.86,0,0,0,.68,0,.6.6,0,0,0,.21-.77,1.45,1.45,0,0,0-.62-.61,5,5,0,0,0-.69-.35,5.48,5.48,0,0,1,3.09.57,2.21,2.21,0,0,0,.73.29.59.59,0,0,0,.64-.35.56.56,0,0,0-.14-.51,1.46,1.46,0,0,0-.45-.32,8.62,8.62,0,0,0-3-.92,6.59,6.59,0,0,1,2.95.52,1.62,1.62,0,0,0,.61.12.49.49,0,0,0,.46-.35c.06-.28-.23-.51-.49-.64a5.53,5.53,0,0,0-3.56-.54,5.29,5.29,0,0,1,2.93-.28,1.41,1.41,0,0,0,.54,0,.42.42,0,0,0,.34-.36c0-.21-.21-.36-.41-.45a4.61,4.61,0,0,0-3.6.17,3.36,3.36,0,0,1,1.9-.75,1,1,0,0,0,.36-.1.28.28,0,0,0,.14-.32.37.37,0,0,0-.17-.17,2.39,2.39,0,0,0-2.34.16c-.71.4-1.3,1-2,1.44a6,6,0,0,1-3.5,1c-.32,0-.72,0-.88.26a.85.85,0,0,0,0,.65C225,115.71,225.15,115.65,225.22,115.89Z" style="fill: #ffd407"/>
    <path d="M203.79,115.61l3.1-2.17a1.44,1.44,0,0,1,.7-.32" style="fill: none"/>
    <path d="M202.38,123.12a13.44,13.44,0,0,0,2.39,5.45l1.74,2.77a1,1,0,0,0,.31.35,1,1,0,0,0,.53.07,19.64,19.64,0,0,0,3.16-.42,31.14,31.14,0,0,0,7.77-3.32,36,36,0,0,1-1.88-5.32,22.78,22.78,0,0,0-1.11-3.59A66.63,66.63,0,0,1,228.41,117a11.86,11.86,0,0,1,0-3.76c-3.37,0-6.63,0-10,.19a32.17,32.17,0,0,0-3.6.38,25.76,25.76,0,0,0-6.39,2.17,14.82,14.82,0,0,0-4.39,2.87A5,5,0,0,0,202.38,123.12Z" style="fill: #22b573"/>
    <path d="M211.76,112.63c.19.72.14,1.56.67,2.08.34.34.85.46,1.19.8a2,2,0,0,1,.29,1.91,13.32,13.32,0,0,0-.59,1.93c-.07.6,0,1.33-.49,1.68a1.07,1.07,0,0,1-1.32-.22,3,3,0,0,1-.58-2.35,4,4,0,0,0-.34-2.43c-.39-.59-1.09-.91-1.54-1.46-.61-.75-1.15-3.27-.15-3.91C210.07,109.88,211.51,111.65,211.76,112.63Z" style="fill: #1b1464"/>
    <path d="M207.34,115.17l1.25-.53c.64-.28,1.36-.62,1.57-1.29a2.26,2.26,0,0,0-.47-2.31c.55,0,1.16-.69,1.7-.78a14.58,14.58,0,0,0-3.77-2.82,4,4,0,0,0-2.26-.74,2.28,2.28,0,0,0-2,1.16,3,3,0,0,0-.24,1.41A8.6,8.6,0,0,0,205,114.5a2.87,2.87,0,0,0,1,.85A1.74,1.74,0,0,0,207.34,115.17Z" style="fill: #ffd407"/>
    <path d="M205.37,107.91a2.93,2.93,0,0,1,2.07,3.55,2.52,2.52,0,0,0-.21.94c.06.63.75,1,.93,1.62.28,1-.94,1.85-.92,2.89s1.49,1.8,1.57,2.93c0,.64-.39,1.22-.44,1.86a1.65,1.65,0,0,0,.72,1.48,9.34,9.34,0,0,0,1.25.52,2.52,2.52,0,0,1,1.06,3.45,2.43,2.43,0,0,1-3.53.54c-.33-.3-.57-.69-.92-1-1.33-1.11-3.6-.25-4.92-1.38a3.38,3.38,0,0,1-1-2.11,10.41,10.41,0,0,0-.44-2.32c-.47-1.18-1.62-2.24-1.32-3.48.16-.68.74-1.19.95-1.86.15-.5.08-1,.19-1.55.24-1.16,1.3-2,1.76-3a7.69,7.69,0,0,1,.91-2.28c.34-.38.49-.79,1-.93A2.3,2.3,0,0,1,205.37,107.91Z" style="fill: #1b1464"/>
    <path d="M202.62,111.83a30.31,30.31,0,0,1,6.4-4.12,19.42,19.42,0,0,0,3-1.6,1.13,1.13,0,0,0,.59-.86.81.81,0,0,0-.31-.57,1.63,1.63,0,0,0-1.27-.3,4.83,4.83,0,0,0-1.27.44l-1.71.77c-.25.11-.53.26-.6.53a4.82,4.82,0,0,0-3.78-.3,3.92,3.92,0,0,0-2.42,2.66A3.59,3.59,0,0,0,202.62,111.83Z" style="fill: #22b573"/>
    <path d="M203.46,114.77a3.34,3.34,0,0,1-1.31-.25,10.72,10.72,0,0,0-1.18-.14,2,2,0,0,1-1.09-.42.59.59,0,0,1-.21-.62c.1-.26.46-.32.74-.28a2,2,0,0,1,.75.24L200,112.17a3.39,3.39,0,0,1-1.15-1.62.64.64,0,0,1,0-.41.29.29,0,0,1,.35-.16.43.43,0,0,1,.12.09c.24.22,1.08,1.07,1.32,1.35a10.44,10.44,0,0,0,1,.91l-1.1-1.27a3.2,3.2,0,0,1-1-2,.68.68,0,0,1,.09-.37.33.33,0,0,1,.33-.15.4.4,0,0,1,.16.1,2.55,2.55,0,0,1,.49.94,5,5,0,0,0,.64,1,9.21,9.21,0,0,0,1,1.11,5.79,5.79,0,0,0-.84-1.17,4.35,4.35,0,0,1-.67-1.38,1.25,1.25,0,0,1,0-.71.51.51,0,0,1,.54-.38c.29.06.4.42.47.71a4.78,4.78,0,0,0,1.78,2.58,2.63,2.63,0,0,1-.71-1,1.53,1.53,0,0,1,.08-1.23.4.4,0,0,1,.28-.23c.16,0,.3.13.38.28s.24.57.38.85a12.52,12.52,0,0,0,1.05,1.51,2.19,2.19,0,0,1,.45,1.73,4.31,4.31,0,0,0,.52,2.47,1.37,1.37,0,0,1,.14.74.88.88,0,0,1-.55.59.61.61,0,0,1-.26.06.53.53,0,0,1-.42-.31C204.68,116.6,203.8,114.71,203.46,114.77Z" style="fill: #ffd407"/>
    <path d="M203.23,114.72a6.5,6.5,0,0,1,3.29.44,45.21,45.21,0,0,1-2.73,10.8,7.15,7.15,0,0,1-1.38,2.71,4.82,4.82,0,0,1-2.26,1.16,3.26,3.26,0,0,1-1.64-.08C194.69,128.87,201.52,119,203.23,114.72Z" style="fill: #22b573"/>
    <path d="M219.64,142.43a4.28,4.28,0,0,0,.89.41,3.93,3.93,0,0,1,1.79,2.56,6,6,0,0,0,1.42,2.84c.52.46,1.44.65,1.86.09a1.65,1.65,0,0,0,.18-1.16,28.31,28.31,0,0,0-1.45-6.52.76.76,0,0,0-.87-.62c-.94-.06-3-.44-3.89,0S219,142,219.64,142.43Z" style="fill: #fff"/>
    <path d="M219.19,139c.61,0,.67,3.39.52,3.57-4,.06-8.15.21-12.18.19a19.28,19.28,0,0,1-5.12-.5,4,4,0,0,1-2-1.15,2.08,2.08,0,0,1-.31-2.3,2.84,2.84,0,0,1,1.18-.95,10,10,0,0,1,2.84-1.17,9,9,0,0,1,2.44,0C210.54,137,215.18,138.7,219.19,139Z" style="fill: #ed1c24"/>
    <path d="M220.27,136.48c.76.24,4.69.77,5.2,2.54.16.56-.33,1.36-.66,1.83l-2.57,3.7a12.69,12.69,0,0,1-2,2.43,1.19,1.19,0,0,1-.86.38c-.38,0-1.15-.17-1.19-.54a3.64,3.64,0,0,1,.2-1.36,37.61,37.61,0,0,1,2.08-4.78c0,.07-.81-.63-.87-.71a.89.89,0,0,1-.19-.83A20.88,20.88,0,0,1,220.27,136.48Z" style="fill: #fff"/>
    <path d="M220.95,128.47a5.09,5.09,0,0,1-.1,4.88c-.88,1.35-2.49,1.88-4,2.32a14.8,14.8,0,0,1,4.33.7c-.25.79-1.15,3.74-1.25,3.75-3.8.58-7.58-.84-11.41-1a19,19,0,0,1-5.62-.59,4.06,4.06,0,0,1-1.68-1,2.4,2.4,0,0,1-.66-1.89,3.17,3.17,0,0,1,.94-1.68c2.14-2.29,5.16-3.33,8.05-4.29,2.66-.88,5.17-2.26,7.87-3A3.75,3.75,0,0,1,220.95,128.47Z" style="fill: #ed1c24"/>
    <path d="M220.08,135.1a2.54,2.54,0,0,1-1.89,1.09,7.39,7.39,0,0,1-1.27.08,1.87,1.87,0,0,1-1.55-.63,1.72,1.72,0,0,1,0-1.69,6,6,0,0,1,1.08-1.36,8.79,8.79,0,0,0,1.28-1.72c.48-.86,1.58-3.77,3-2.66,1,.83.83,3.33.55,4.47A6.19,6.19,0,0,1,220.08,135.1Z" style="fill: #ed1c24"/>
    <path d="M218.28,140.87a30.77,30.77,0,0,1-5.08-.57,34.8,34.8,0,0,0-4.43-.55l-1.09,0a14.74,14.74,0,0,1-4.64-.59,14.14,14.14,0,0,1-2.67-1.19l.37-.61a13.27,13.27,0,0,0,2.54,1.13,14.21,14.21,0,0,0,4.41.55l1.1,0a35.35,35.35,0,0,1,4.52.56,21.34,21.34,0,0,0,6.82.42l.11.7A13,13,0,0,1,218.28,140.87Z" style="fill: #1b1464"/>
    <path d="M221.14,136.58a89.9,89.9,0,0,0-15.57-1.83v0l-.24,0,.06-.71a90.61,90.61,0,0,1,15.9,1.85Z" style="fill: #1b1464"/>
    <path d="M244,118.61c-.87-.5-2-.94-2.84-.4a3,3,0,0,0-.93,2.57A62.72,62.72,0,0,0,241.89,136a8.13,8.13,0,0,0-3.6,1,1.57,1.57,0,0,0-.72.63,1.2,1.2,0,0,0,.67,1.48,3.47,3.47,0,0,0,1.77.19l5.5-.37q.08-6.13-.16-12.26a4.24,4.24,0,0,0,2.54-2.39C248.86,121.48,245.93,119.73,244,118.61Z" style="fill: #ffd407"/>
    <g>
      <path d="M263.34,128.7c-1.09-1.59-4.08-2.67-5.92-2.52-2.22.17-4,1.76-5.68,3.26l-8.06,7.37a2.36,2.36,0,0,0-1,2.23c-.06,4,0,13.89,0,17.91" style="fill: #1b1464"/>
      <path d="M243,157h-.71c0-2,0-5.54,0-9s0-6.94,0-9a2.69,2.69,0,0,1,1.12-2.48l8.06-7.37c1.82-1.66,3.64-3.17,5.89-3.35,1.93-.15,5.07,1,6.24,2.68l-.59.4c-1-1.48-3.89-2.51-5.6-2.37-2,.16-3.74,1.59-5.46,3.17l-8.06,7.37a2,2,0,0,0-.89,2c0,2,0,5.53,0,8.94S243,154.94,243,157Z" style="fill: #fff"/>
    </g>
    <path d="M242.76,120.7a3.71,3.71,0,0,0-4.43.79,5.71,5.71,0,0,0-.82,2.16,109.21,109.21,0,0,1-4.29,13.15l-3.08,0c-.76,0-1.78.2-1.83,1s.7,1,1.32,1.21a22.11,22.11,0,0,0,7.48.9,9.21,9.21,0,0,0,1.48-3.22l3-9.76L244,128.6a2.42,2.42,0,0,0,.78.44c.88.24,1.72-.58,2-1.44C247.82,124.74,245.19,121.79,242.76,120.7Z" style="fill: #ffd407"/>
    <path d="M244.53,121.19c-1.09.81-1.7,3.19-2,4.52a32.89,32.89,0,0,0-.52,7.21c.94-.69,2.26-.14,3.25.48a16.27,16.27,0,0,0,4.39,2.29A7,7,0,0,0,256.8,133a7.75,7.75,0,0,0,.65-7.69c-.44-.94-1.06-1.79-1.59-2.68a16.69,16.69,0,0,1-1.28-2.66l-5.33,0c-.47,0-1.07-.08-1.2-.53a5.72,5.72,0,0,0-1.15,3.68A16.59,16.59,0,0,1,244.53,121.19Z" style="fill: #ed1c24"/>
    <path d="M249,109.42a4.15,4.15,0,0,0-.11-1.34q-.36-1.8-.87-3.57a2.67,2.67,0,0,0-.61-1.22,2.27,2.27,0,0,0-.8-.46,3.48,3.48,0,0,0-3.36.34,5.18,5.18,0,0,0-1.34,2.61c-.29.95-.37,2.48-1.26,2.94a8,8,0,0,0,2.3.29,2.51,2.51,0,0,0,2.45,2.5C246.87,111.7,248.75,111.07,249,109.42Z" style="fill: #ffd407"/>
    <path d="M232.81,126.92a.81.81,0,0,1,0-1,1,1,0,0,1-.58.19.94.94,0,0,1,.21-1.25,1.23,1.23,0,0,1-.76.21.75.75,0,0,1-.19-1,18.85,18.85,0,0,1-3,.94c-.35.08-.83.08-.94-.26a.59.59,0,0,1,.05-.42,2.62,2.62,0,0,1,1.61-1.15,54.77,54.77,0,0,1,6-1.83c1.46-.35,2.21,1.79,1.54,2.84C236.47,124.67,233.29,127.48,232.81,126.92Z" style="fill: #ffd407"/>
    <path d="M233.36,107a.37.37,0,0,1-.25.67,29.75,29.75,0,0,1-10-2.07,16.68,16.68,0,0,1-8.62-7.67A11.43,11.43,0,0,1,215,86.66a10.26,10.26,0,0,1,11-3.92,11,11,0,0,1,7.63,9,11.87,11.87,0,0,1-4.87,10.89C229.51,102.91,231.57,105.6,233.36,107Z" style="fill: #ffd407;opacity: 0.58"/>
    <g>
      <polygon points="230.94 162.84 218.14 175.64 180.9 175.64 193.69 162.84 230.94 162.84" style="fill: #ffd407"/>
      <g>
        <rect x="218.08" y="175.06" width="4.72" height="0.56" style="fill: #ffd407"/>
        <rect x="219.94" y="173.19" width="4.72" height="0.56" style="fill: #ffd407"/>
        <rect x="221.72" y="171.42" width="4.72" height="0.56" style="fill: #ffd407"/>
        <rect x="223.58" y="169.55" width="4.72" height="0.56" style="fill: #ffd407"/>
        <rect x="225.36" y="167.97" width="4.72" height="0.56" transform="translate(-4.08 5.66) rotate(-1.41)" style="fill: #ffd407"/>
        <rect x="226.93" y="166.01" width="4.72" height="0.56" style="fill: #ffd407"/>
        <rect x="228.6" y="164.33" width="4.72" height="0.56" style="fill: #ffd407"/>
        <rect x="230.27" y="162.86" width="4.72" height="0.56" style="fill: #ffd407"/>
      </g>
      <g>
        <rect x="177.15" y="175.06" width="4.72" height="0.56" style="fill: #ffd407"/>
        <rect x="179.02" y="173.19" width="4.72" height="0.56" style="fill: #ffd407"/>
        <rect x="180.79" y="171.42" width="4.72" height="0.56" style="fill: #ffd407"/>
        <rect x="182.66" y="169.55" width="4.72" height="0.56" style="fill: #ffd407"/>
        <rect x="184.43" y="167.97" width="4.72" height="0.56" transform="translate(-4.09 4.66) rotate(-1.41)" style="fill: #ffd407"/>
        <rect x="186" y="166.01" width="4.72" height="0.56" style="fill: #ffd407"/>
        <rect x="187.68" y="164.33" width="4.72" height="0.56" style="fill: #ffd407"/>
        <rect x="189.35" y="162.86" width="4.72" height="0.56" style="fill: #ffd407"/>
      </g>
    </g>
    <path d="M247.51,124.34a5.18,5.18,0,0,0,1.42-2.79,7.42,7.42,0,0,1-1.68-1.07,2.27,2.27,0,0,1-.81-1.08c-.11-.07-.25.05-.32.17a5.73,5.73,0,0,0-.91,3.07A3.29,3.29,0,0,0,247,124C247.15,124.08,247.39,124.28,247.51,124.34Z" style="fill: #ed1c24"/>
    <path d="M257.58,123.45c-3.51,1.51-5.77,2-9.79.5-.5-1.51-3.26-4-2.26-7a34,34,0,0,1-4.27,5.52c-1.25,1.25-4.16,4.33-6.52,5.52,0-1.25.71-5.61.25-6.77A61,61,0,0,0,244.68,111a1.61,1.61,0,0,1,.44-.42,1.59,1.59,0,0,1,.43-.14l3.11-.7a6.24,6.24,0,0,1,2.91-.2C256.12,110.06,257.4,121.34,257.58,123.45Z" style="fill: #22b573"/>
    <path d="M244.63,107.08a1.79,1.79,0,0,0,.76-.69l.38,2.88a1.12,1.12,0,0,0,.87-.7,4.07,4.07,0,0,1-1.4,3.29,3,3,0,0,0,1.32.14,4.37,4.37,0,0,1-2.24,1.91,5.25,5.25,0,0,0,4.26.51,3.68,3.68,0,0,0,2,2.5A5.26,5.26,0,0,1,251,114a4.16,4.16,0,0,0,3.17-.22,5.6,5.6,0,0,1-1.64-2.41,2.79,2.79,0,0,0,2.44-1,16.16,16.16,0,0,1-3.47-3,1.64,1.64,0,0,0,1.69-1.15,3,3,0,0,1-2.62-1.77c.71.18,1.23-.61,1.36-1.29a.55.55,0,0,0,0-.4c-.11-.18-.37-.21-.59-.21h-3.19a2.05,2.05,0,0,0-.17-2.41,18.38,18.38,0,0,1-3.86.82,8,8,0,0,0-.91-2.3,4.08,4.08,0,0,1-2.19,2.49,13.06,13.06,0,0,0-2.23-1.7c-.11,2.41,2.39,5.6,4.32,7,.31-.34.55-.74.85-1.1A4,4,0,0,0,244.63,107.08Z" style="fill: #1b1464"/>
  </g>
</svg>
