<svg id="Layer_3" data-name="Layer 3" xmlns="http://www.w3.org/2000/svg" xmlns:xlink="http://www.w3.org/1999/xlink" viewBox="0 0 300 300">
  <defs>
    <clipPath id="clip-path">
      <path d="M86.82,148.31a27,27,0,0,0-9,15.17,22.67,22.67,0,0,0,.67,13.46,15.77,15.77,0,0,0,10.13,9.3c3.73,1,7.77.53,11.53-.41,4.82-1.21,9.6-3.24,12.78-6.79,5.48-6.14,6.1-20.24,2.62-27.43C110.44,141.1,95,141.7,86.82,148.31Z" style="fill: none"/>
    </clipPath>
    <clipPath id="clip-path-2">
      <path d="M62.32,157.26s-2-2.76-5.52-.5c0,0-3-2.26-6,1.25,0,0-4-1.25-5,2.76a5,5,0,0,0-3.51,4.77l-10.53-31.1s-1.76-7.77,6.77-10.78,11.54,1,13.79,3.76Z" style="fill: none"/>
    </clipPath>
    <clipPath id="clip-path-3">
      <rect x="84" y="220.52" width="48.87" height="13.79" transform="translate(-139.39 182.04) rotate(-54.13)" style="fill: none"/>
    </clipPath>
  </defs>
  <title>lakas_06</title>
  <g>
    <polygon points="8.02 278.08 292.1 278.2 292.1 106.53 149.94 22.35 7.93 106.94 8.02 278.08" style="fill: #1b1464"/>
    <polygon points="276.92 114.43 276.92 261.62 23.19 261.51 23.11 114.18 276.92 114.43" style="fill: #fff"/>
    <g>
      <circle cx="150.01" cy="71.47" r="15.02" style="fill: #ffd407"/>
      <path d="M150,56.45a15,15,0,1,0,0,30Z" style="fill: #22b573"/>
    </g>
    <g>
      <path d="M128.24,278.2H172V236.26s1.39-18-21.65-18-21.95,18.09-21.95,18.09Z" style="fill: #ffd407"/>
      <path d="M150.43,218.26c-23,0-22.27,18.09-22.27,18.09L128,278.2h22.4Z" style="fill: #22b573"/>
    </g>
    <polygon points="200.08 190.92 223.3 197.67 230.19 171.87 211.21 162.38 188.28 151.69 177.75 177.8 200.08 190.92" style="fill: #1b1464"/>
    <path d="M200.78,188.49s-4.92-13.29-20-12.73c0,0,9.37-22.16,9.74-25.26,0,0,17.1-3.18,20,11.24,0,0,9.64-5.42,18.25,7.21l-6.36,24.3S210.11,182.77,200.78,188.49Z" style="fill: #ffd407"/>
    <g>
      <polygon points="134.71 169 155.94 157.43 142.64 134.26 122.49 140.91 98.68 149.49 109.62 175.44 134.71 169" style="fill: #1b1464"/>
      <path d="M100.76,146.07c4.34,8.24,8.57,16.57,11.63,25.32,10.57-13.52,22.36-3.7,22.36-3.7s1.75-11.86,16.94-12.48c-3.59-6.47-8.62-15.61-12.41-22-11.18-2.38-16.45,4.59-16.74,7.65-.94-1.77-4.31-4.09-8.38-3.48S102.88,142.65,100.76,146.07Z" style="fill: #ffd407"/>
      <path d="M121.26,139.56s12.18,27.76,12.39,28.38-.45,7.93,1.81,10.62c0,0,3.06-5.65.58-11.45l-12.8-28.17A1.68,1.68,0,0,0,121.26,139.56Z" style="fill: #1b1464"/>
    </g>
    <path d="M200,201.57c-1.21-3.93-.71-8.2.29-12.21l9.83-29c1.45-1.08,2.19.67,2.19.67l-9.52,29.6a41.25,41.25,0,0,1-.66,5.91A11.92,11.92,0,0,1,200,201.57Z" style="fill: #1b1464"/>
    <g>
      <path d="M222.17,143.48l25.67,28.35a5.16,5.16,0,0,0,7.11.51l13.49-11.15a5.16,5.16,0,0,0,.54-7.43l-25-27.66a5.16,5.16,0,0,0-6.89-.7l-14.19,10.46A5.16,5.16,0,0,0,222.17,143.48Z" style="fill: #ed1c24"/>
      <polygon points="240.32 128.72 245.47 134.8 231.44 146.03 226.29 139.95 240.32 128.72" style="fill: #fff"/>
      <polygon points="248.27 138.08 234.71 148.83 252.01 168.48 265.11 156.78 248.27 138.08" style="fill: #ffd407"/>
      <rect x="254.1" y="136.02" width="0.97" height="27.5" transform="translate(-35.28 206.56) rotate(-41.55)" style="fill: #ed1c24"/>
      <rect x="251.14" y="138.07" width="0.97" height="27.72" transform="translate(-38.56 198.71) rotate(-40.28)" style="fill: #ed1c24"/>
      <rect x="248.49" y="140.76" width="0.97" height="27.85" transform="translate(-40.48 200.85) rotate(-40.91)" style="fill: #ed1c24"/>
      <rect x="245.45" y="142.53" width="0.97" height="28.51" transform="translate(-42.53 199.85) rotate(-41.01)" style="fill: #ed1c24"/>
      <rect x="234.06" y="146.53" width="19.26" height="0.97" transform="translate(-35.4 202.74) rotate(-42.39)" style="fill: #ed1c24"/>
      <rect x="237.29" y="149.72" width="19.42" height="0.97" transform="translate(-36.47 206.91) rotate(-42.62)" style="fill: #ed1c24"/>
      <rect x="240.27" y="153.15" width="19.62" height="0.97" transform="translate(-39.53 201.26) rotate(-40.9)" style="fill: #ed1c24"/>
      <rect x="243.98" y="156.07" width="18.87" height="0.97" transform="translate(-39.68 209.69) rotate(-41.98)" style="fill: #ed1c24"/>
      <rect x="246.06" y="159.34" width="19.85" height="0.97" transform="translate(-40.13 218.05) rotate(-43.1)" style="fill: #ed1c24"/>
      <polygon points="237.24 140.15 234.85 137.91 237.04 135.46 236.3 134.54 234.91 135.58 235.5 136.39 234.71 136.96 233.57 135.37 236.47 133.2 238.31 135.49 236.21 137.85 237.24 138.82 239.06 137.12 239.72 137.83 237.24 140.15" style="fill: #ed1c24"/>
      <polygon points="239.82 135.06 237.61 132.3 238.36 131.7 239.9 133.61 241.82 131.68 243.54 134.56 242.71 135.05 241.63 133.25 239.82 135.06" style="fill: #ed1c24"/>
      <polygon points="235.07 141.84 231.83 138.04 230.85 139.46 230.05 138.91 231.75 136.46 235.81 141.21 235.07 141.84" style="fill: #ed1c24"/>
    </g>
    <polygon points="270.48 204.66 263.46 241.03 226.59 231.5 235.62 196.64 270.48 204.66" style="fill: #ed1c24"/>
    <path d="M252.68,199.65s10-5.27,15.79,2.76l-7.77,36.11S253.9,231,244.42,234c0,0-5.1-6-14.57-4.51l9-33.86S247.1,190.62,252.68,199.65Z" style="fill: #ffd407"/>
    <path d="M252.42,199.15a353.38,353.38,0,0,0-8.53,35.61s-1.5,7.27.25,13.54c0,0,1.76-8.28,2.4-11.89.38-2.15,8.2-37.14,8.2-37.14S254.18,196.89,252.42,199.15Z" style="fill: #ed1c24"/>
    <path d="M67.54,216.61c-.17,0-.29-.17-.35-.33a7.67,7.67,0,0,1-.4-2.57,26.06,26.06,0,0,0,5.52-2.08,7.85,7.85,0,0,1,1.3-.65.26.26,0,0,1,.23,0,.26.26,0,0,1,.08.2,6.4,6.4,0,0,1-.08,1.79,1.7,1.7,0,0,1-.19.58,2,2,0,0,1-.84.64C71,215.1,69.51,216.25,67.54,216.61Z" style="fill: #ffd407"/>
    <g>
      <g>
        <path d="M85.25,146.8a29.66,29.66,0,0,0-10.14,16.7,24.45,24.45,0,0,0,.75,14.83,17.61,17.61,0,0,0,11.41,10.25c4.2,1.14,8.75.59,13-.45,5.43-1.33,10.82-3.57,14.39-7.48,6.17-6.76,6.88-22.3,2.95-30.22C111.85,138.85,94.42,139.51,85.25,146.8Z" style="fill: #fff"/>
        <path d="M92.31,191.71a21.53,21.53,0,0,1-5.69-.73,20,20,0,0,1-13.05-11.7,26.92,26.92,0,0,1-.88-16.34,32.25,32.25,0,0,1,11-18.09h0a29,29,0,0,1,23.16-5.24,18.5,18.5,0,0,1,13,9.71c4.27,8.61,3.73,25.25-3.34,33-3.43,3.76-8.69,6.52-15.64,8.22A36,36,0,0,1,92.31,191.71ZM85.25,146.8l1.55,1.95a27.27,27.27,0,0,0-9.27,15.32,22,22,0,0,0,.63,13.32,15.2,15.2,0,0,0,9.76,8.8c3.18.86,6.91.72,11.74-.47,6-1.46,10.4-3.73,13.15-6.74,2.48-2.72,4.17-7.53,4.62-13.2.43-5.44-.34-10.76-2.06-14.24a13.58,13.58,0,0,0-9.59-7.06,23.75,23.75,0,0,0-19,4.28Z" style="fill: #22b573"/>
      </g>
      <path d="M91,189c-4.73,14.86-7.7,29.62-12.43,44.47a62.88,62.88,0,0,1-11.09-2.58c-.4-.18,3.55-17.49,7.2-25.83,1.26-2.87,7.25-15.44,8.9-18.88C84.51,186.67,90,189.28,91,189Z" style="fill: #22b573"/>
    </g>
    <g>
      <path d="M44.84,255.15s-1.45,4.34-1.16,6.94h2l.29-1.74,2.6,1.74h9.54s-4.34-4-7.52-4.34l-1.45-2.6Z" style="fill: #1b1464"/>
      <path d="M63.64,254s2.31,5.7,3.76,6.37l1.74-.67L68.26,257l3.47,1.68,9-5s-6.65-2.54-10.41-.52L67.69,252Z" style="fill: #1b1464"/>
      <path d="M55.54,241.56c.06,3-.42,4.78-.36,7.83a11.52,11.52,0,0,1-.23,3.19A7.65,7.65,0,0,1,53.78,255a3.82,3.82,0,0,1-2.63,1.86,14.16,14.16,0,0,1-2.58-.48C47,256.17,45.14,257,44,256a2.44,2.44,0,0,1-.54-2.34,8.62,8.62,0,0,1,1.08-2.26c2.56-4.39,3.89-9.36,5.2-14.27,3.1-1.22,5.92-2.64,8.95-4a86.12,86.12,0,0,0,9.08,9.07,15.61,15.61,0,0,1,3.74,4,4.75,4.75,0,0,1-.08,5.18c-1.2,1.48-3.36,1.71-5,2.75-.93.61-1.79,1.54-2.9,1.52a2.6,2.6,0,0,1-2.08-1.43,10.16,10.16,0,0,1-.83-2.5C59.53,247.38,57.94,245.24,55.54,241.56Z" style="fill: #22b573"/>
      <path d="M73.89,215.43c.39-.6.61-1.3,1-1.93a1.42,1.42,0,0,1,.67-.7.59.59,0,0,1,.79.35.88.88,0,0,1-.08.45l-.54,1.48a22,22,0,0,1,2.82-3c.21-.18.52-.35.74-.19s.12.61-.05.9c-.51.79-1.11,1.46-1.68,2.2a7.53,7.53,0,0,1,3.07-2.16.39.39,0,0,1,.39,0,.33.33,0,0,1,.08.2,1.74,1.74,0,0,1-.54,1.25,16,16,0,0,1-2.14,1.84,13.48,13.48,0,0,1,2.5-.81,1.29,1.29,0,0,1,.56-.08.47.47,0,0,1,.41.34c0,.26-.2.47-.43.61a10.88,10.88,0,0,1-3.24,1.27c.36.06,2.31-.58,2.65-.2.11.37-.28.68-.63.83-2.45,1.1-5.32.51-7.92,1.16-.18-.46-1.06-2.42-.51-2.69.29-.15.74,0,1.07-.14A2.56,2.56,0,0,0,73.89,215.43Z" style="fill: #ffd407"/>
      <path d="M51.51,218.8a1.51,1.51,0,0,0-.77,2,2.82,2.82,0,0,0,1.75,1.49,9,9,0,0,0,4.36.12,47.74,47.74,0,0,0,8.17-2c1.49-.5,3.14-1.29,3.47-2.79a7.08,7.08,0,0,0,.08-1.32c0-.69.15-1.38.12-2.08a2.44,2.44,0,0,0-.83-1.85,2.51,2.51,0,0,0-2.19-.27,10.83,10.83,0,0,0-2.05,1c-3.55,1.89-7.83,2.31-11.21,4.48Z" style="fill: #ed1c24"/>
      <path d="M48,210.61a4.34,4.34,0,0,1,4.08-1.19c.94.42,1.19,2.67,4.48,5l-1.74.31c.37,2.09-.54,2.55-1.19,3.45-1.17,1.63-5.13,3.29-6,.65C46.89,216.41,46.49,212.66,48,210.61Z" style="fill: #ffd407"/>
      <path d="M46.36,221.24a6.88,6.88,0,0,0-1.62,3,8,8,0,0,0,.84,3.93,24.86,24.86,0,0,1,1.21,4.56,13.66,13.66,0,0,0,.75,3.28A3.39,3.39,0,0,0,50,238.13c1.25.18,2.4-.61,3.52-1.21a25.89,25.89,0,0,1,4.81-1.55,3.52,3.52,0,0,0,2-.87,2.18,2.18,0,0,0,.27-2,10.38,10.38,0,0,0-1-1.91,11.31,11.31,0,0,1-1.34-4.09,16.42,16.42,0,0,0,5.32-1.07c3.27-1.06,4.7-1.12,8-2A6.07,6.07,0,0,0,75,221.57a3.81,3.81,0,0,0,.47-3.65,5.09,5.09,0,0,0-2.62-2.7,6.23,6.23,0,0,0-6.69,1,16.45,16.45,0,0,1-1.34,1.26,6.06,6.06,0,0,1-1.21.64,19.8,19.8,0,0,1-9.9,1.75C50.86,219.49,48.46,218.56,46.36,221.24Z" style="fill: #ed1c24"/>
      <path d="M54.18,209.45c.26.66-.4,1.34-1.07,1.53s-1.41.11-2.08.33-1.27,1-.93,1.6c.18.33.54.49.82.74a1.64,1.64,0,0,1,.45,1.67,9.46,9.46,0,0,0-.47,1.16c-.14.85.61,1.56,1.35,2s1.59.87,1.87,1.68A1.83,1.83,0,0,1,53.6,222a2.59,2.59,0,0,1-1.85.66,17.84,17.84,0,0,0-2.18-.2c-1.83.18-3.1,2.39-4.93,2.2a2.1,2.1,0,0,1-1.82-2.09c.07-1.81,2.39-2.87,2.54-4.67.09-1.15-.74-2.15-1-3.27a3.59,3.59,0,0,1,.78-3.23c.35-.39.79-.71,1.1-1.13.49-.66.65-1.56,1.27-2.1a2.81,2.81,0,0,1,2.26-.44C50.89,207.9,53.65,208.08,54.18,209.45Z" style="fill: #1b1464"/>
    </g>
    <g style="clip-path: url(#clip-path)">
      <g>
        <polygon points="126.61 175.28 159.06 161.69 142.03 129.01 111.69 136.04 75.79 145.32 89.05 181.53 126.61 175.28" style="fill: #1b1464"/>
        <path d="M79.21,140.89c5.48,11.59,10.8,23.28,14.34,35.44,17-17.27,33.26-2.81,33.26-2.81s3.86-15.89,26.24-15.25c-4.58-9.12-11-22-15.85-31C121,123,112.52,131.89,111.78,136c-1.19-2.49-5.89-6-11.94-5.53S82.69,136.47,79.21,140.89Z" style="fill: #ffd407"/>
        <path d="M110,134.09s14.89,38.79,15.13,39.65-1.52,10.7,1.51,14.56c0,0,5.1-7.36,2.09-15.46L113,133.44A2.63,2.63,0,0,0,110,134.09Z" style="fill: #1b1464"/>
      </g>
    </g>
    <path d="M175.41,196.93c-5-6.66-12.8-17.34-17.59-24.12l-24.17,14.53,18.42,26.27Z" style="fill: #1b1464"/>
    <path d="M145.32,209.26c2.61-1.34,6.69-2.06,7.24-4.94.15-.79-8.77-14.22-8.77-14.22s-2.89-.35-8.7,5.29Z" style="fill: #1b1464"/>
    <path d="M181.2,214.78c-5.92,0-10.24-1.52-12.86-4.54a20.29,20.29,0,0,1-3.26-6.14c-.2-.52-.41-1-.62-1.56-1.33-3.21-4.36-8.77-9.7-10a.71.71,0,1,1,.32-1.39c6,1.37,9.26,7.38,10.69,10.83.22.53.43,1.07.63,1.59a18.94,18.94,0,0,0,3,5.73c2.56,2.94,7,4.29,13.34,4a.71.71,0,0,1,.06,1.42Q182,214.78,181.2,214.78Z" style="fill: #ffd407"/>
    <path d="M183,217.55h-.14a25.78,25.78,0,0,1-6.18-2.42l-1.57-.76a.71.71,0,0,1,.06-1.31,47.61,47.61,0,0,1,7-2,.71.71,0,0,1,.28,1.39,46.22,46.22,0,0,0-5.14,1.35l0,0a24.74,24.74,0,0,0,5.83,2.3.71.71,0,0,1-.14,1.41Z" style="fill: #ffd407"/>
    <path d="M183.3,220.8l-.18,0c-4.58-1.19-6.72-3.74-9.25-7.21a.71.71,0,0,1,.08-.93c1.65-1.58,4.42-2.78,6.65-3.75l1.14-.5a.71.71,0,0,1,.58,1.3l-1.15.5a26.58,26.58,0,0,0-5.77,3.06c2.25,3,4.16,5.13,8.07,6.15a.71.71,0,0,1-.18,1.4Z" style="fill: #ffd407"/>
    <polyline points="52.32 127.48 62.35 157.23 57.54 173.31 42.18 165.51 31.78 134.49" style="fill: #ffd407"/>
    <path d="M59.31,167.55l-1.76,5.77L52,170.56A7.57,7.57,0,0,1,59.31,167.55Z" style="fill: #1b1464"/>
    <path d="M62.32,157.26s-2-2.76-5.52-.5c0,0-3-2.26-6,1.25,0,0-4-1.25-5,2.76a5,5,0,0,0-3.51,4.77l-10.53-31.1s-1.76-7.77,6.77-10.78,11.54,1,13.79,3.76Z" style="fill: #ed1c24"/>
    <g style="clip-path: url(#clip-path-2)">
      <rect x="50.62" y="120.83" width="0.71" height="36.88" transform="translate(-41.43 23.27) rotate(-18.43)" style="fill: #fff"/>
      <rect x="39.52" y="124.95" width="0.71" height="36.8" transform="translate(-43.81 20.32) rotate(-18.68)" style="fill: #fff"/>
      <rect x="44.53" y="122.19" width="0.71" height="36.8" transform="translate(-42.67 21.79) rotate(-18.68)" style="fill: #fff"/>
    </g>
    <path d="M199.6,209.93s-1,8.71-7.88,8.71c0,0,7.2.39,7.2,8.84,0,0,1.58-8.58,8-8.58C206.92,218.9,199.83,218.12,199.6,209.93Z" style="fill: #ffd407"/>
    <path d="M211.52,222.47S209.94,236,199.25,236c0,0,11.21.61,11.21,13.77,0,0,2.45-13.36,12.44-13.36C222.9,236.44,211.87,235.23,211.52,222.47Z" style="fill: #ffd407"/>
    <rect x="84" y="220.52" width="48.87" height="13.79" transform="translate(-139.39 182.04) rotate(-54.13)" style="fill: #ffd407"/>
    <g style="clip-path: url(#clip-path-3)">
      <rect x="94.04" y="237.68" width="1.42" height="8.58" transform="translate(-155.63 172.43) rotate(-53.09)" style="fill: #1b1464"/>
      <rect x="94.34" y="235.84" width="1.42" height="4.61" transform="translate(-152.45 171.14) rotate(-53.09)" style="fill: #1b1464"/>
      <rect x="98.35" y="230.32" width="1.42" height="4.61" transform="matrix(0.6, -0.8, 0.8, 0.6, -146.44, 172.14)" style="fill: #1b1464"/>
      <rect x="102.11" y="225.05" width="1.42" height="4.61" transform="translate(-140.72 173.05) rotate(-53.09)" style="fill: #1b1464"/>
      <rect x="105.87" y="219.79" width="1.42" height="4.61" transform="translate(-135.01 173.95) rotate(-53.09)" style="fill: #1b1464"/>
      <rect x="109.76" y="214.39" width="1.42" height="4.61" transform="matrix(0.6, -0.8, 0.8, 0.6, -129.14, 174.91)" style="fill: #1b1464"/>
      <rect x="113.52" y="209.13" width="1.42" height="4.61" transform="translate(-123.43 175.81) rotate(-53.09)" style="fill: #1b1464"/>
      <rect x="97.93" y="232.29" width="1.42" height="8.58" transform="translate(-149.76 173.39) rotate(-53.09)" style="fill: #1b1464"/>
      <rect x="101.84" y="226.91" width="1.42" height="8.58" transform="translate(-144.39 176.54) rotate(-53.6)" style="fill: #1b1464"/>
      <rect x="105.68" y="221.48" width="1.42" height="8.58" transform="translate(-138.47 177.43) rotate(-53.6)" style="fill: #1b1464"/>
      <rect x="109.47" y="216.49" width="1.42" height="8.58" transform="translate(-132.52 176.3) rotate(-53.09)" style="fill: #1b1464"/>
      <rect x="113.38" y="211.11" width="1.42" height="8.58" transform="translate(-126.99 179.41) rotate(-53.6)" style="fill: #1b1464"/>
      <rect x="117.22" y="205.68" width="1.42" height="8.58" transform="matrix(0.59, -0.8, 0.8, 0.59, -121.06, 180.29)" style="fill: #1b1464"/>
    </g>
    <g>
      <g>
        <path d="M164.24,150.53a2.63,2.63,0,0,1-1.93-.7c-2.52-2.52,2.14-9.9,7.8-15.56s13-10.32,15.56-7.8-2.14,9.9-7.8,15.56C173.29,146.6,167.59,150.53,164.24,150.53Zm19.51-23.7c-2.45,0-7.56,2.86-12.89,8.18-6.44,6.44-9.28,12.58-7.8,14.06s7.62-1.36,14.06-7.8,9.28-12.58,7.8-14.06A1.6,1.6,0,0,0,183.74,126.83Z" style="fill: #22b573"/>
        <path d="M174,143.63c-8,0-16.52-1.92-16.52-5.49s8.51-5.49,16.52-5.49,16.52,1.92,16.52,5.49S182,143.63,174,143.63Zm0-9.91c-9.11,0-15.45,2.33-15.45,4.42s6.35,4.42,15.45,4.42,15.45-2.33,15.45-4.42S183.09,133.72,174,133.72Z" style="fill: #22b573"/>
        <path d="M183.73,150.53c-3.35,0-9-3.92-13.63-8.5-5.66-5.66-10.32-13-7.8-15.56s9.9,2.14,15.56,7.8,10.32,13,7.8,15.56A2.63,2.63,0,0,1,183.73,150.53Zm-19.51-23.7a1.6,1.6,0,0,0-1.17.38c-1.48,1.48,1.36,7.62,7.8,14.06,5.32,5.32,10.43,8.18,12.89,8.18a1.6,1.6,0,0,0,1.17-.38c1.48-1.48-1.36-7.62-7.8-14.06C171.79,129.69,166.68,126.83,164.23,126.83Z" style="fill: #22b573"/>
        <path d="M174,154.66c-3.57,0-5.49-8.51-5.49-16.52s1.92-16.52,5.49-16.52,5.49,8.51,5.49,16.52S177.55,154.66,174,154.66Zm0-32c-2.09,0-4.42,6.35-4.42,15.45s2.33,15.45,4.42,15.45,4.42-6.35,4.42-15.45S176.08,122.69,174,122.69Z" style="fill: #22b573"/>
      </g>
      <circle cx="173.99" cy="138.14" r="2.58" style="fill: #ed1c24"/>
      <circle cx="173.99" cy="138.14" r="1.21" style="fill: #ffd407"/>
    </g>
  </g>
</svg>
